<svg id="Layer_1" data-name="Layer 1" xmlns="http://www.w3.org/2000/svg" viewBox="0 0 15 15"><defs><style>.cls-1{fill:#ab02ff;}</style></defs><title>Artboard 28</title><path class="cls-1" d="M13.24.37H1.75A1.35,1.35,0,0,0,.37,1.75q0,1,0,2.1,0,4.7,0,9.4a1.55,1.55,0,0,0,0,.38,1.35,1.35,0,0,0,1.34,1H13.28a1.35,1.35,0,0,0,1.35-1.34q0-5.77,0-11.54A1.34,1.34,0,0,0,13.24.37ZM14,13.29c0,.48-.22.7-.7.7H1.69A.6.6,0,0,1,1,13.31Q1,8.53,1,3.74s0-.08,0-.14H14c0,.06,0,.11,0,.16Q14,8.53,14,13.29ZM13.83,3H1V2.54C1,2.27,1,2,1,1.72c0-.5.22-.71.72-.71H13.31a.59.59,0,0,1,.66.44,1,1,0,0,1,0,.24c0,.37,0,.74,0,1.11C14,2.94,14,3,13.83,3Z"/><circle class="cls-1" cx="13.36" cy="1.98" r="0.32" transform="translate(11.27 15.32) rotate(-89.54)"/><circle class="cls-1" cx="11.26" cy="1.98" r="0.32" transform="translate(9.05 13.2) rotate(-88.88)"/><circle class="cls-1" cx="12.3" cy="1.98" r="0.32" transform="translate(10.09 14.25) rotate(-88.93)"/><path class="cls-1" d="M11.42,8.22c-.2-.07-.4-.11-.61-.16a.47.47,0,0,1-.36-.32c0-.09-.07-.18-.11-.27a.49.49,0,0,1,0-.5l.39-.64c-.24-.24-.47-.48-.71-.7a.22.22,0,0,0-.2,0c-.18.09-.35.2-.53.31a.47.47,0,0,1-.48,0l-.29-.12a.48.48,0,0,1-.32-.36c0-.19-.1-.38-.14-.57S8,4.74,7.9,4.74H7.1a.17.17,0,0,0-.2.16c0,.17-.09.34-.12.51a.52.52,0,0,1-.39.45c-.09,0-.17.09-.25.1a1,1,0,0,1-.44,0,3.06,3.06,0,0,1-.53-.31.17.17,0,0,0-.25,0c-.19.2-.39.38-.57.59a.23.23,0,0,0,0,.21c.08.17.19.33.29.49A1,1,0,0,1,4.36,8a.69.69,0,0,1-.19.08l-.59.16c-.05,0-.12.08-.12.13,0,.34,0,.67,0,1l.74.18a.47.47,0,0,1,.36.32,1.82,1.82,0,0,0,.1.25.51.51,0,0,1,0,.56c-.13.2-.24.4-.37.62.24.23.46.46.7.67a.23.23,0,0,0,.21,0,5.89,5.89,0,0,0,.53-.31.52.52,0,0,1,.52,0l.25.11a.47.47,0,0,1,.32.36c0,.19.11.38.14.57s.1.18.23.18h.74c.13,0,.21,0,.23-.17s.09-.38.14-.57a.47.47,0,0,1,.32-.36l.25-.1a.55.55,0,0,1,.58,0,5.32,5.32,0,0,0,.47.28.22.22,0,0,0,.19,0c.24-.22.47-.46.71-.69a3.17,3.17,0,0,0-.23-.38.83.83,0,0,1-.09-1,.59.59,0,0,1,.39-.34l.72-.18c0-.34,0-.66,0-1A.21.21,0,0,0,11.42,8.22ZM7.5,11A2.32,2.32,0,0,1,5.26,8.77,2.32,2.32,0,0,1,7.5,6.55,2.32,2.32,0,0,1,9.73,8.8,2.32,2.32,0,0,1,7.5,11Z"/><path class="cls-1" d="M7.49,7.44A1.28,1.28,0,0,0,6.14,8.84a1.29,1.29,0,0,0,1.38,1.32A1.29,1.29,0,0,0,8.86,8.77,1.28,1.28,0,0,0,7.49,7.44Z"/></svg>