<svg id="Layer_1" data-name="Layer 1" xmlns="http://www.w3.org/2000/svg" viewBox="0 0 15 15"><defs><style>.cls-1{fill:#06b;}</style></defs><title>Artboard 24</title><rect class="cls-1" x="6.13" y="7.68" width="8.37" height="6.24" rx="0.18" ry="0.18"/><path class="cls-1" d="M4,7.61H.67a.5.5,0,0,0-.5.5v5.38a.5.5,0,0,0,.5.5H4a.5.5,0,0,0,.5-.5V8.11A.5.5,0,0,0,4,7.61Zm-.15,5.73h-3V8.26h3Z"/><rect class="cls-1" x="0.5" y="1.02" width="8.37" height="5.18" rx="0.18" ry="0.18"/><path class="cls-1" d="M14.33,1H11a.5.5,0,0,0-.5.5V6a.5.5,0,0,0,.5.5h3.33a.5.5,0,0,0,.5-.5V1.51A.5.5,0,0,0,14.33,1Zm-.15,4.86h-3V1.66h3Z"/></svg>