<svg id="Layer_1" data-name="Layer 1"
    xmlns="http://www.w3.org/2000/svg" viewBox="0 0 15 15">
    <defs>
        <style>.cls-1{fill:#d63031;}</style>
    </defs>
    <title>device management</title>
    <path class="cls-1" d="M11,.14H1.48A.76.76,0,0,0,.72.9c0,4.4,0,8.79,0,13.19a.8.8,0,0,0,.41.78H8.75l-.61-1.26H1.59a.3.3,0,0,1-.3-.3c0-1.49,0-8.25,0-11.7,0-.28.1-.34.36-.34l9.3,0a.28.28,0,0,1,.28.28v2.8h.54V.89C11.74.32,11.56.14,11,.14ZM6.23,13.82a.45.45,0,1,1-.45.45A.45.45,0,0,1,6.23,13.82Z"/>
    <path class="cls-1" d="M14.28,5.48c0-.55-.19-.74-.75-.73-1.16,0-2.32,0-3.48,0-.62,0-.82.15-.82.72,0,2.29,0,6.9,0,8.67a.72.72,0,0,0,.72.72h3.61a.72.72,0,0,0,.72-.72C14.28,12.37,14.28,7.77,14.28,5.48Zm-2.52,9.23a.44.44,0,1,1,.44-.44A.44.44,0,0,1,11.76,14.71Zm2.17-1.13H9.59V6h4.34Z"/>
    <path class="cls-1" d="M8.83,6.64l-.47-.13a.36.36,0,0,1-.28-.25C8,6.19,8,6.12,8,6.05a.38.38,0,0,1,0-.39l.3-.5c-.19-.19-.36-.37-.55-.54a.17.17,0,0,0-.15,0c-.14.07-.27.16-.41.24a.37.37,0,0,1-.37,0L6.6,4.79a.37.37,0,0,1-.25-.28c0-.15-.08-.29-.11-.44s-.06-.13-.15-.13H5.47a.13.13,0,0,0-.15.13c0,.13-.07.26-.1.4a.41.41,0,0,1-.3.35c-.07,0-.13.07-.2.08a.81.81,0,0,1-.34,0A2.37,2.37,0,0,1,4,4.62a.13.13,0,0,0-.2,0c-.15.16-.3.3-.45.46a.18.18,0,0,0,0,.16c.06.13.15.25.22.38a.75.75,0,0,1-.19.82.54.54,0,0,1-.15.06l-.46.12s-.09.06-.1.1c0,.26,0,.52,0,.78l.57.14a.37.37,0,0,1,.28.25,1.41,1.41,0,0,0,.08.2.4.4,0,0,1,0,.43c-.1.15-.19.31-.29.48.19.18.36.35.54.52a.18.18,0,0,0,.16,0,4.57,4.57,0,0,0,.41-.24.41.41,0,0,1,.4,0L5,9.38a.37.37,0,0,1,.25.28c0,.15.08.29.11.44s.08.14.18.14h.57c.1,0,.16,0,.18-.14s.07-.3.11-.44a.36.36,0,0,1,.25-.28l.2-.08a.42.42,0,0,1,.45,0,4.13,4.13,0,0,0,.36.22.17.17,0,0,0,.15,0c.19-.17.37-.35.55-.53a2.46,2.46,0,0,0-.18-.3.65.65,0,0,1-.07-.8.46.46,0,0,1,.3-.27l.56-.14c0-.26,0-.51,0-.76A.16.16,0,0,0,8.83,6.64Zm-3,2.19A1.8,1.8,0,0,1,4,7.07,1.8,1.8,0,0,1,5.78,5.35,1.8,1.8,0,0,1,7.52,7.09,1.8,1.8,0,0,1,5.78,8.82Z"/>
    <path class="cls-1" d="M5.77,6a1,1,0,0,0-1,1.08,1,1,0,0,0,1.07,1,1,1,0,0,0,1-1.08A1,1,0,0,0,5.77,6Z"/>
</svg>