<svg id="Layer_1" data-name="Layer 1" xmlns="http://www.w3.org/2000/svg" viewBox="0 0 15 15"><defs><style>.cls-1{fill:#19b283;}</style></defs><title>Artboard 27</title><path class="cls-1" d="M14.74,8.69a1.49,1.49,0,0,0,0-.37A2.16,2.16,0,0,0,12.5,6.52H6.06A2.18,2.18,0,0,0,3.91,8.68c0,1.5,0,2.64,0,3.71A2.2,2.2,0,0,0,4.56,14a2.23,2.23,0,0,0,1.57.63h6.31a2.31,2.31,0,0,0,.5,0,2.2,2.2,0,0,0,1.8-2.15c0-.71,0-1.42,0-2.13ZM8.64,10.17a.23.23,0,0,1-.17.07H5.68c-.19,0-.21-.21-.21-.3s.12-.25.23-.25H8.47c.1,0,.24,0,.24.25A.3.3,0,0,1,8.64,10.17Zm3.29,2.06a.22.22,0,0,1-.16.07H9a.2.2,0,0,1-.15-.06A.29.29,0,0,1,8.79,12,.19.19,0,0,1,9,11.81h2.75c.21,0,.24.12.24.23A.26.26,0,0,1,11.93,12.23Z"/><path class="cls-1" d="M3.53,13.7,2,13.64A1.65,1.65,0,0,1,1,12.12V2.93A1.67,1.67,0,0,1,2.78,1.19H8.33a1.65,1.65,0,0,1,1.73,1.72V6h.78V5.7c0-.46,0-2.35,0-2.82a2.5,2.5,0,0,0,0-.43,2.41,2.41,0,0,0-2.43-2H2.72A2.65,2.65,0,0,0,2.11.5,2.39,2.39,0,0,0,.26,2.84c0,.82,0,1.65,0,2.45v6.84A2.42,2.42,0,0,0,2,14.47c.11,0,1.4.06,2.16.08h.38l-.95-.86Z"/><path class="cls-1" d="M3.76,2.26H3A1.28,1.28,0,0,0,1.72,3.51v1A1.26,1.26,0,0,0,3,5.72H4.53A1.24,1.24,0,0,0,5.79,4.5c0-.34,0-.69,0-1a1.26,1.26,0,0,0-1.24-1.2Zm1.18,1.3a8.89,8.89,0,0,1,0,1,.38.38,0,0,1-.39.34H3a.4.4,0,0,1-.42-.42V3.56A.41.41,0,0,1,3,3.12H4.52A.4.4,0,0,1,4.94,3.56Z"/><path class="cls-1" d="M8.91,2.71H6.45a.49.49,0,0,0-.35.14A.41.41,0,0,0,6,3.13a.44.44,0,0,0,.47.43H8.91a.47.47,0,0,0,.35-.13.43.43,0,0,0-.35-.72Z"/><path class="cls-1" d="M6.45,4.07a.48.48,0,0,0-.35.13.42.42,0,0,0-.12.3.43.43,0,0,0,.47.42H8.91a.42.42,0,0,0,.46-.41.42.42,0,0,0-.11-.31.46.46,0,0,0-.34-.13Z"/></svg>