<svg id="Layer_1" data-name="Layer 1" xmlns="http://www.w3.org/2000/svg" viewBox="0 0 15 15"><defs><style>.cls-1{fill:#8b0037;}.cls-2{fill:#fff;}</style></defs><title>Artboard 69</title><path class="cls-1" d="M4.31,8.24h0a1.23,1.23,0,1,1,.87-2.09A1.21,1.21,0,0,1,5.53,7,1.23,1.23,0,0,1,4.31,8.24Z"/><path class="cls-1" d="M3.48,12.89a1.11,1.11,0,0,1-.29,0l-.08,0a1.48,1.48,0,0,0,.24.55h.22v-.5Zm8.71-12a.89.89,0,0,0-.94-.68H2.56a.92.92,0,0,0-.93.93V12.45a1,1,0,0,0,.93.95H4v-.5H3.48a1.11,1.11,0,0,1-.29,0l-.08,0a1.27,1.27,0,0,1-.5-.26,1.37,1.37,0,0,1-.5-1.13V2.18A1.46,1.46,0,0,1,3.56.72h6.7a1.46,1.46,0,0,1,1.16.57h.8V1.19A2.12,2.12,0,0,0,12.19.94Zm-8.62,12H3.48a1.11,1.11,0,0,1-.29,0l-.08,0a1.48,1.48,0,0,0,.24.55H4v-.5Z"/><path class="cls-1" d="M12.21,1.29V12.45a1,1,0,0,1-.93.95H4v-.5h6.22a2.4,2.4,0,0,0,.42,0,1.37,1.37,0,0,0,1.08-1.41V2.16a.61.61,0,0,0,0-.12.76.76,0,0,0,0-.21,1.3,1.3,0,0,0-.27-.54Z"/><path class="cls-1" d="M13.36,2.52V13.79a1,1,0,0,1-.93,1H3.72a1,1,0,0,1-.93-1v-.9a1.27,1.27,0,0,0,.5.26,1.48,1.48,0,0,0,.24.55,1.06,1.06,0,0,0,.22.22,1.27,1.27,0,0,0,.5.26l.08,0a1.11,1.11,0,0,0,.29,0H11.4a2.41,2.41,0,0,0,.42,0,1.37,1.37,0,0,0,1.08-1.41V9.5q0-2.53,0-5.06a6.4,6.4,0,0,0,0-1.12c0-.27-.22-.83-.56-.86h-.13s-.06,0-.07,0V1.59h.41a.86.86,0,0,1,.82.68A2,2,0,0,1,13.36,2.52Z"/><path class="cls-2" d="M4.78,7.63a.09.09,0,0,1-.07,0l-.41-.46-.05.06-.36.39a.1.1,0,0,1-.07,0h0a.08.08,0,0,1-.06,0,.07.07,0,0,1,0-.09l.09-.1,0,0,.22-.25L4.2,7l-.32-.35,0,0-.08-.1a.08.08,0,0,1,0-.1l.06,0,0,0,.19.21.09.1.16.17.22-.24.18-.2s.06-.05.07-.05h0a.08.08,0,0,1,.06,0,.07.07,0,0,1,0,.09l0,.05L4.41,7l.29.33.13.15a.07.07,0,0,1,0,.09.07.07,0,0,1-.06.05Z"/><path class="cls-1" d="M4.31,4.64a1.23,1.23,0,0,1-.91-.41,1.22,1.22,0,0,1-.31-1,1.24,1.24,0,0,1,1-1.07,1.23,1.23,0,1,1,.2,2.44Z"/><path class="cls-2" d="M4.12,3.87a.12.12,0,0,1-.08,0l-.31-.31a.12.12,0,0,1,0-.17.12.12,0,0,1,.17,0L4,3.48a.16.16,0,0,0,.23,0L4.72,3a.12.12,0,0,1,.2.08.12.12,0,0,1,0,.08l-.68.68A.12.12,0,0,1,4.12,3.87Z"/><path class="cls-1" d="M4.31,11.84a1.23,1.23,0,1,1,1.23-1.23A1.23,1.23,0,0,1,4.31,11.84Z"/><path class="cls-2" d="M3.85,11.23a.57.57,0,0,1,.1-.37,1,1,0,0,1,.22-.23h0l0,0a.85.85,0,0,1-.25-.31.57.57,0,0,1,0-.28h.91a1.15,1.15,0,0,1,0,.12.61.61,0,0,1-.18.36l-.15.14,0,0a.86.86,0,0,1,.25.3.58.58,0,0,1,0,.28H3.85ZM4,10.12a.41.41,0,0,0,0,.13.81.81,0,0,0,.26.27h0l.11-.09a.64.64,0,0,0,.18-.24l0-.08Zm.63,1v0a1,1,0,0,0,0-.11.78.78,0,0,0-.24-.26s0,0-.06,0A.81.81,0,0,0,4,11a.41.41,0,0,0,0,.13Z"/><rect class="cls-1" x="6.29" y="2.99" width="3.99" height="0.36" rx="0.18" ry="0.18"/><rect class="cls-1" x="8.08" y="3.52" width="2.2" height="0.36" rx="0.18" ry="0.18"/><rect class="cls-1" x="6.29" y="6.57" width="3.99" height="0.36" rx="0.18" ry="0.18"/><rect class="cls-1" x="8.08" y="7.1" width="2.2" height="0.36" rx="0.18" ry="0.18"/><rect class="cls-1" x="6.29" y="10.15" width="3.99" height="0.36" rx="0.18" ry="0.18"/><rect class="cls-1" x="8.08" y="10.68" width="2.2" height="0.36" rx="0.18" ry="0.18"/></svg>