<svg id="Layer_1" data-name="Layer 1" xmlns="http://www.w3.org/2000/svg" viewBox="0 0 15 15"><defs><style>.cls-1{fill:#0db1b3;}.cls-2{fill:#fff;}</style></defs><title>Artboard 68</title><path class="cls-1" d="M11.6,11H3.4A1.11,1.11,0,0,1,2.29,9.88V5.35A1.11,1.11,0,0,1,3.4,4.24h8.2a1.11,1.11,0,0,1,1.11,1.11V9.88A1.11,1.11,0,0,1,11.6,11Z"/><path class="cls-1" d="M4.54,12.13A.19.19,0,0,1,4.4,12a.24.24,0,0,1,.07-.23,1.35,1.35,0,0,1,.38-.21,1.42,1.42,0,0,0,.48-.31l0,0,.1-.07h.42l-.07.12a1.51,1.51,0,0,1-.45.52,1.71,1.71,0,0,1-.68.32H4.54Z"/><path class="cls-1" d="M10.1,12.45a.31.31,0,0,1-.15,0A2.5,2.5,0,0,1,9.43,12L9.37,12l-.1-.1-.67-.57-.17-.15h.66l.3.22a3.54,3.54,0,0,1,.78.7q.12.17.07.26l-.1.11Z"/><path class="cls-1" d="M9,4a3.62,3.62,0,0,0-1.4-.28A3.9,3.9,0,0,0,6.21,4q-.71.16-.75,0s0-.11.15-.2a4.44,4.44,0,0,1,1-.39,4.33,4.33,0,0,1,1.06-.13,3.63,3.63,0,0,1,1.93.52L9.73,4c.08,0,.18.1.18.21S9.57,4.2,9,4Z"/><path class="cls-1" d="M3.94,4.06a.2.2,0,0,1-.11-.28,1.19,1.19,0,0,1,.42-.47,4.49,4.49,0,0,1,1.24-.73,6.49,6.49,0,0,1,2.12-.38A5.68,5.68,0,0,1,11,3.37a2.48,2.48,0,0,1,.31.31c.25.26.07.64-.47.12l-.13-.12A3.46,3.46,0,0,0,10,3.2a5.32,5.32,0,0,0-1.74-.53,6.51,6.51,0,0,0-.87-.06,4.41,4.41,0,0,0-2.24.58,3.8,3.8,0,0,0-.6.45l-.15.15A1.11,1.11,0,0,1,4.15,4a.35.35,0,0,1-.16,0Z"/><path class="cls-1" d="M5.23,2.31c-.16,0-.19-.08-.21-.14s.19-.31.35-.39A4,4,0,0,1,7.3,1.35a8.47,8.47,0,0,1,2.53.44l.1,0c.25.07.47.15.44.33s-.13.14-.23.14c-.35-.06-.63-.13-.91-.2A7.18,7.18,0,0,0,7.5,1.81,7.22,7.22,0,0,0,6,2.07a2.3,2.3,0,0,1-.76.24Z"/><path class="cls-1" d="M10.63,11.62l-.6-.45h.64c.12.07.16.1.19.16a.28.28,0,0,1,0,.27v0l-.13.07Z"/><path class="cls-1" d="M7,13.65c-.25-.24-.13-.67,0-1.06l.06-.16a.94.94,0,0,1,.38-.57.64.64,0,0,1,.33-.08.89.89,0,0,1,.35.07,1.77,1.77,0,0,1,.58.45c.12.13.23.27.35.41A.46.46,0,0,1,9.2,13l-.12.12h0c-.22,0-.43-.26-.63-.53a1.73,1.73,0,0,0-.23-.27.59.59,0,0,0-.36-.16.42.42,0,0,0-.33.21,2.56,2.56,0,0,0-.25.9c0,.18-.07.37-.25.37Z"/><path class="cls-1" d="M5.53,13.11,5.38,13c0-.15.07-.23.24-.34l.16-.12a2,2,0,0,0,.43-.64,2,2,0,0,0,.14-.66v-.08h.41v.08a2.74,2.74,0,0,1-.62,1.5,1.05,1.05,0,0,1-.6.37Z"/><path class="cls-2" d="M11.42,6.63h-3a.25.25,0,0,1,0-.49h3a.25.25,0,0,1,0,.49Z"/><path class="cls-2" d="M8.46,7.61H9A.25.25,0,1,1,9,8.1H8.46a.25.25,0,1,1,0-.49Z"/><path class="cls-2" d="M8.46,8.6H9.94a.25.25,0,1,1,0,.49H8.46a.25.25,0,0,1,0-.49Z"/><path class="cls-2" d="M9.45,7.86a.25.25,0,0,1,.25-.25h1a.25.25,0,1,1,0,.49h-1A.25.25,0,0,1,9.45,7.86Z"/><path class="cls-2" d="M5.91,6.47s0,.09,0,.15a0,0,0,0,0,0,.06c.12,0,.14.08.13.19a1.79,1.79,0,0,1-.07.3.15.15,0,0,1-.14.11.08.08,0,0,0-.07.07,1.05,1.05,0,0,1-.61.7.37.37,0,0,1-.34,0,1.07,1.07,0,0,1-.59-.7.1.1,0,0,0-.06-.06A.23.23,0,0,1,4,7.13.74.74,0,0,1,4,6.81c0-.08,0-.11.1-.13s0,0,0-.07a2.68,2.68,0,0,1,0-.42.48.48,0,0,1,.52-.42c.05,0,.09,0,.11-.07a.09.09,0,0,1,.09-.07,2.12,2.12,0,0,1,.32,0,.92.92,0,0,1,.6.37A.69.69,0,0,1,5.91,6.47Z"/><path class="cls-2" d="M6.75,9.41a.22.22,0,0,1-.08.12.59.59,0,0,1-.36.05H3.56c-.14,0-.29-.06-.29-.22a1.57,1.57,0,0,1,0-.31.48.48,0,0,1,.32-.37l.53-.19.09,0c.06,0,.07,0,.09,0l.26.71,0,.07,0,0L4.79,9c0-.08.08-.14,0-.22s-.12-.12-.11-.24A.29.29,0,0,1,5,8.31c.23,0,.44.17.28.42,0,0-.09.08-.1.12s0,.1.07.14l.09.17.08.13,0-.07c.09-.24.17-.49.27-.73l0,0s.21.05.26.07c.28.1.7.17.75.53A.89.89,0,0,1,6.75,9.41Z"/><path class="cls-1" d="M13.36,14.81H1.64a1.2,1.2,0,0,1-1.2-1.2V1.39A1.2,1.2,0,0,1,1.64.19H13.36a1.2,1.2,0,0,1,1.2,1.2V13.61A1.2,1.2,0,0,1,13.36,14.81ZM1.8.9a.66.66,0,0,0-.66.66V13.45a.66.66,0,0,0,.66.66H13.2a.66.66,0,0,0,.66-.66V1.55A.66.66,0,0,0,13.2.9Z"/></svg>