<svg id="Layer_1" data-name="Layer 1"
    xmlns="http://www.w3.org/2000/svg" viewBox="0 0 15 15">
    <defs>
        <style>.cls-1{fill:#6F1E51;}</style>
    </defs>
    <title>Artboard 66</title>
    <path class="cls-1" d="M8.53.18,11.6,2.41a.43.43,0,0,1,.21.41c0,.32,0,.65,0,1,0,0,0,.09,0,.16l-.42-.27a.17.17,0,0,1,0-.12c0-.2,0-.4,0-.6a.28.28,0,0,0-.13-.25L8.55.79a.25.25,0,0,0-.27,0L3.79,2.47a.24.24,0,0,0-.18.26c0,.24,0,.49,0,.73,0,.08,0,.13-.11.15l-.36.11c0-.06,0-.12,0-.17,0-.38,0-.75,0-1.13a.27.27,0,0,1,.2-.3L8.29.24,8.41.18Z"/>
    <path class="cls-1" d="M1.56,14.82c0-.2,0-.38,0-.57A.21.21,0,0,1,1.79,14h.34v-.17q0-4.59,0-9.18c0-.26,0-.29.27-.37L8.32,2.37a.39.39,0,0,1,.36,0l4,2.46a.39.39,0,0,1,.21.38q0,4.32,0,8.64s0,.09,0,.15h.28c.18,0,.26.07.26.25s0,.35,0,.53Zm6.93-12V14h3.93v-.16q0-4.19,0-8.38a.34.34,0,0,0-.18-.32L9.16,3.27ZM7.08,6.68q0-.09,0-.19c0-.06,0-.12,0-.19S7,6,6.78,6.07l-.62.15-2.34.56c-.13,0-.22.09-.23.23s0,.46,0,.69a.21.21,0,0,0,.28.21l3-.62A.22.22,0,0,0,7.08,7C7.08,6.91,7.08,6.8,7.08,6.68Zm0-1.85c0-.12,0-.25,0-.37a.21.21,0,0,0-.3-.23l-.52.15L3.82,5.1c-.13,0-.23.1-.23.25s0,.43,0,.64a.21.21,0,0,0,.27.21l.39-.09,2.6-.66c.18,0,.23-.1.23-.29S7.08,4.94,7.08,4.83Zm0,3.67c0-.1,0-.19,0-.29,0-.29-.09-.35-.37-.3L6,8l-2.19.41a.23.23,0,0,0-.22.26c0,.2,0,.39,0,.59a.22.22,0,0,0,.28.24l3-.43a.23.23,0,0,0,.22-.25C7.09,8.74,7.08,8.62,7.08,8.5Zm0,1.83c0-.11,0-.23,0-.34S7,9.71,6.8,9.73l-.68.09-2.28.29c-.18,0-.24.1-.24.29s0,.33,0,.5.09.31.33.29L5.76,11l1.08-.09c.18,0,.24-.09.24-.27S7.08,10.44,7.08,10.33ZM5.34,12.8h0l1.5-.05c.17,0,.24-.08.24-.25s0-.46,0-.69-.08-.27-.28-.26l-.87.06-2.11.16c-.17,0-.23.09-.24.26s0,.31,0,.46.06.36.37.35Z"/>
</svg>