<svg id="Layer_1" data-name="Layer 1" xmlns="http://www.w3.org/2000/svg" viewBox="0 0 15 15"><defs><style>.cls-1{fill:#eb1e79;}</style></defs><title>Artboard 25</title><path class="cls-1" d="M3.85,12.06c-.41,0-.77-.4-.92-1L2.47,8.78A.46.46,0,0,0,2,8.41c-.46,0-.46,0-.46-.88.14-1.72.55-2.36,1.2-2.88l.08-.08,0,0a2.23,2.23,0,0,0,1.88,0V3.5A1.37,1.37,0,1,1,5.14,2h.93A2.32,2.32,0,0,0,3.85.2,2.27,2.27,0,0,0,2.15,4,4.52,4.52,0,0,0,.65,7.5c0,.77,0,1.63,1,1.8l.39,2A2,2,0,0,0,3.85,13a1.55,1.55,0,0,0,.91-.3V11.61A.86.86,0,0,1,3.85,12.06Z"/><path class="cls-1" d="M12.85,4A2.27,2.27,0,0,0,11.15.2,2.32,2.32,0,0,0,8.93,2h.93a1.37,1.37,0,1,1,.38,1.47V4.57a2.23,2.23,0,0,0,1.88,0l0,0,.08.08c.65.52,1.06,1.16,1.2,2.84,0,.91,0,.91-.46.91a.46.46,0,0,0-.45.37L12.08,11c-.16.62-.52,1-.93,1a1.23,1.23,0,0,1-.91-.46v1.07a1.56,1.56,0,0,0,.91.3A2,2,0,0,0,13,11.24l.39-1.94c1-.17,1-1,1-1.83A4.48,4.48,0,0,0,12.85,4Z"/><path class="cls-1" d="M10.69,9.29A4.46,4.46,0,0,0,9.2,5.81a2.25,2.25,0,0,0,.58-1.51,2.28,2.28,0,1,0-4,1.51c-.93.76-1.35,1.74-1.49,3.52,0,.77,0,1.63,1,1.79l.4,2A2,2,0,0,0,7.5,14.8a1.61,1.61,0,0,0,1.12-.47,2.63,2.63,0,0,0,.69-1.27l.39-1.94C10.7,11,10.7,10.09,10.69,9.29Zm-3.19,0L6.59,8.11,7.2,6.59H7.8l.61,1.52Z"/></svg>