<svg id="Layer_1" data-name="Layer 1" xmlns="http://www.w3.org/2000/svg" viewBox="0 0 15 15"><defs><style>.cls-1{fill:#ff6d02;}</style></defs><title>Artboard 26</title><path class="cls-1" d="M3.82,9.81a5.75,5.75,0,0,1-2.53-.45.69.69,0,0,1-.24-.19c.16-2,.56-2.35,1.36-3L2.62,6a2.81,2.81,0,0,0,1.19.26,2.67,2.67,0,0,0,.47,0V5.24a1.77,1.77,0,0,1-.47.07A1.91,1.91,0,1,1,5.72,3.41a1.61,1.61,0,0,1-.06.43H6.6a2.61,2.61,0,0,0,0-.43,2.83,2.83,0,1,0-4.8,2h0C.87,6.25.32,6.82.14,9.13a1.17,1.17,0,0,0,.69,1,6.86,6.86,0,0,0,3,.58Z"/><path class="cls-1" d="M13.18,5.44l0,0a2.82,2.82,0,1,0-4.81-2,2.78,2.78,0,0,0,0,.43h.93a1.9,1.9,0,1,1,1.4,1.42v.94A2.78,2.78,0,0,0,12.37,6l.21.18c.8.68,1.2,1,1.36,3,0,0-.07.13-.23.23a5.76,5.76,0,0,1-2.53.45v.92a6.88,6.88,0,0,0,3-.58,1.18,1.18,0,0,0,.69-1.06C14.68,6.82,14.13,6.25,13.18,5.44Z"/><path class="cls-1" d="M9.5,9.12l0,0a2.83,2.83,0,1,0-4,0h0c-1,.81-1.5,1.38-1.68,3.7a1.17,1.17,0,0,0,.69,1,6.55,6.55,0,0,0,3,.58,6.55,6.55,0,0,0,3-.58,1.18,1.18,0,0,0,.69-1.06C11,10.5,10.45,9.93,9.5,9.12Z"/></svg>