<?xml version="1.0" encoding="iso-8859-1"?>
<!-- Generator: Adobe Illustrator 19.0.0, SVG Export Plug-In . SVG Version: 6.00 Build 0)  -->
<svg version="1.1" id="Capa_1"
    xmlns="http://www.w3.org/2000/svg"
    xmlns:xlink="http://www.w3.org/1999/xlink" x="0px" y="0px"
	 viewBox="0 0 512 512" style="enable-background:new 0 0 512 512;" xml:space="preserve">
    <path style="fill:#F0EFEB;" d="M512,256c0,78.451-35.286,148.658-90.854,195.615c-24.472,20.679-52.882,36.854-83.937,47.229
	C311.693,507.382,284.39,512,256,512c-15.506,0-30.678-1.379-45.422-4.023c-39.455-7.064-75.776-23.165-106.747-46.09
	C40.835,415.253,0,340.396,0,256C0,114.615,114.615,0,256,0S512,114.615,512,256z"/>
    <path style="fill:#0071AC;" d="M218.363,148.959l69.352-42.769c41.219-25.419,37.009-86.648-7.3-106.188l0,0l-149.16,91.984
	c-56.961,35.126-51.148,119.738,10.082,146.744l160.542,70.811c9.485,4.183,10.385,17.289,1.562,22.731l-29.654,18.29
	l106.812,47.117l9.598-5.92c57.501-35.464,51.628-120.881-10.186-148.141L220.02,173.059
	C209.964,168.624,209.008,154.727,218.363,148.959z"/>
    <path style="fill:#76ACD4;" d="M153.634,143.771c-26.181-11.541-28.744-47.63-4.555-62.783c0.072-0.048,0.155-0.095,0.227-0.143
	L280.415,0.001c44.303,19.541,48.511,80.773,7.297,106.191l-69.352,42.765c-9.264,5.71-8.417,19.397,1.371,23.964L153.634,143.771z"
	/>
    <path style="fill:#A3D19E;" d="M397.4,207.531l-24.905,15.356l-104.654-46.164l122.262-75.384
	C434.406,120.88,438.615,182.113,397.4,207.531z"/>
    <path style="fill:#76ACD4;" d="M380.598,397.679L274.037,350.67l29.651-18.289c8.823-5.448,7.916-18.551-1.562-22.736l68.231,29.639
	C394.248,349.822,398.457,380.833,380.598,397.679z"/>
    <path style="fill:#12AB41;" d="M421.146,451.615c-24.472,20.679-52.882,36.854-83.937,47.229c-1.16-0.522-2.299-1.034-3.438-1.536
	l-193.484-85.326c-61.628-27.178-67.48-112.327-10.156-147.686l13.187-8.119l107.123,47.24l-34.105,21.044
	c-7.899,4.869-7.095,16.593,1.39,20.334l167.037,73.655C400.959,425.597,413.32,437.478,421.146,451.615z"/>
    <path style="fill:#A3D19E;" d="M217.732,344.791l-67.92-29.951c-23.958-10.565-27.587-43.078-6.531-58.642l0.033-0.025
	l107.133,47.247l-34.11,21.043C208.445,329.328,209.243,341.047,217.732,344.791z"/>
    <path style="fill:#76ACD4;" d="M253.983,481.207l-43.405,26.77c-39.455-7.064-75.776-23.165-106.747-46.09l44.345-27.345
	L253.983,481.207z"/>
    <g></g>
    <g></g>
    <g></g>
    <g></g>
    <g></g>
    <g></g>
    <g></g>
    <g></g>
    <g></g>
    <g></g>
    <g></g>
    <g></g>
    <g></g>
    <g></g>
    <g></g>
</svg>
