<svg id="Layer_1" data-name="Layer 1" xmlns="http://www.w3.org/2000/svg" viewBox="0 0 60 60"><defs><style>.cls-1{fill:#f4f4f4;}.cls-2{fill:#fd9804;}</style></defs><title>Artboard 67</title><circle class="cls-1" cx="30" cy="30" r="30"/><path class="cls-2" d="M33,8.61c3,2.18,6,4.37,9,6.53a1.27,1.27,0,0,1,.62,1.21c0,.95,0,1.89,0,2.84,0,.13,0,.27,0,.48-.45-.28-.85-.51-1.24-.78a.5.5,0,0,1-.13-.36c0-.58,0-1.17,0-1.76a.81.81,0,0,0-.37-.74l-7.77-5.65a.74.74,0,0,0-.78-.1l-13.13,5a.71.71,0,0,0-.52.76c0,.71,0,1.42,0,2.13,0,.24-.05.38-.31.45s-.66.21-1,.33c0-.19,0-.34,0-.5,0-1.1,0-2.2,0-3.3a.79.79,0,0,1,.6-.86q7.23-2.75,14.46-5.52c.13,0,.24-.12.37-.18Z"/><path class="cls-2" d="M12.65,51.39c0-.58,0-1.12,0-1.66a.61.61,0,0,1,.65-.62c.31,0,.61,0,1,0v-.5q0-13.42,0-26.84c0-.75.06-.84.78-1.07Q23.74,17.87,32.4,15a1.14,1.14,0,0,1,1.05.13q5.83,3.6,11.67,7.18a1.13,1.13,0,0,1,.62,1.1q0,12.62,0,25.25c0,.14,0,.27,0,.45h.82c.53,0,.75.21.76.73s0,1,0,1.55Zm20.24-35V49.09H44.37v-.48q0-12.25,0-24.5a1,1,0,0,0-.53-.95q-4.51-2.75-9-5.53ZM28.77,27.59q0-.27,0-.54c0-.18,0-.36,0-.54,0-.56-.31-.81-.86-.7s-1.22.29-1.82.43l-6.85,1.64c-.38.09-.65.27-.66.68,0,.67,0,1.34,0,2a.62.62,0,0,0,.82.6l8.82-1.83a.64.64,0,0,0,.56-.71C28.76,28.29,28.77,27.94,28.77,27.59Zm0-5.39c0-.36,0-.72,0-1.09a.63.63,0,0,0-.88-.66l-1.52.44L19.25,23c-.38.11-.67.29-.68.73,0,.63,0,1.25,0,1.88a.61.61,0,0,0,.8.6c.38-.08.76-.18,1.13-.27L28.1,24c.54-.14.66-.3.67-.84C28.77,22.84,28.77,22.52,28.77,22.2Zm0,10.72c0-.28,0-.56,0-.84,0-.83-.26-1-1.09-.87l-2.09.39-6.4,1.18a.68.68,0,0,0-.64.75c0,.57,0,1.14,0,1.71a.66.66,0,0,0,.82.7l8.75-1.25a.66.66,0,0,0,.64-.73C28.79,33.61,28.78,33.26,28.78,32.92Zm0,5.36c0-.33,0-.67,0-1,0-.6-.25-.81-.84-.75s-1.33.17-2,.25l-6.66.86c-.53.07-.71.29-.72.84s0,1,0,1.46c0,.7.27.9,1,.84l5.37-.47L28.07,40c.52,0,.7-.27.71-.79C28.79,38.92,28.78,38.6,28.78,38.28Zm-5.1,7.22h0l4.39-.16c.5,0,.7-.22.7-.73q0-1,0-2c0-.56-.24-.78-.81-.75l-2.54.18-6.17.48c-.49,0-.68.26-.69.76s0,.89,0,1.34c0,.87.18,1,1.07,1Z"/></svg>