<svg id="Layer_1" data-name="Layer 1" xmlns="http://www.w3.org/2000/svg" viewBox="0 0 60 60"><defs><style>.cls-1{fill:#f4f4f4;}.cls-2{fill:#ff6d02;}</style></defs><title>Artboard 4</title><circle class="cls-1" cx="30" cy="30" r="30"/><path class="cls-2" d="M19.48,36.61c-2.87,0-5.74-.43-7.22-1.29a2,2,0,0,1-.67-.55C12,29,13.18,28,15.47,26.11l.59-.5a8,8,0,0,0,3.4.76,7.64,7.64,0,0,0,1.34-.13v-2.7a5.06,5.06,0,0,1-1.34.2,5.45,5.45,0,1,1,5.45-5.45,4.62,4.62,0,0,1-.16,1.23h2.68a7.48,7.48,0,0,0,.11-1.23,8.08,8.08,0,1,0-13.72,5.78l0,0C11,26.42,9.47,28,9,34.68a3.36,3.36,0,0,0,2,2.93c1.87,1.08,5.31,1.62,8.54,1.65Z"/><path class="cls-2" d="M35.19,19.52a5.44,5.44,0,1,1,4,4.06v2.68a7.95,7.95,0,0,0,4.72-.66l.61.51C46.82,28,48,29,48.42,34.68c0,.13-.21.38-.67.65-1.49.86-4.36,1.29-7.22,1.29v2.64c3.22,0,6.68-.57,8.54-1.65a3.37,3.37,0,0,0,2-3C50.53,28,49,26.42,46.24,24.1L46.17,24a8.08,8.08,0,1,0-13.75-5.75,8,8,0,0,0,.1,1.23Z"/><path class="cls-2" d="M35.71,34.63l-.07-.06a8.08,8.08,0,1,0-11.31,0l0,0c-2.73,2.31-4.3,3.94-4.81,10.57a3.36,3.36,0,0,0,2,2.93c1.92,1.11,5.23,1.66,8.54,1.66s6.62-.55,8.54-1.66a3.37,3.37,0,0,0,2-3C40,38.57,38.44,36.94,35.71,34.63Z"/></svg>