<svg id="Layer_1" data-name="Layer 1" xmlns="http://www.w3.org/2000/svg" viewBox="0 0 44.3 30.67"><defs><style>.cls-1{fill:#3389c6;}</style></defs><title>Artboard 5</title><path class="cls-1" d="M25,1.72a2,2,0,0,1,1.89,1.2c.61,1.49,1.15,3,1.72,4.59l.2.54H21.48l-3.06,0a6.22,6.22,0,0,0-6,4.84,6.94,6.94,0,0,0-.16,1c-.16-.5-.36-1-.58-1.58a2.45,2.45,0,0,0-2.24-1.54,2.42,2.42,0,0,0-.73.11c-.94.3-1.88.63-2.79,1a2.42,2.42,0,0,0-1.39,3c.19.59.41,1.21.69,1.89a2.57,2.57,0,0,0,2.6,1.55h0a1.14,1.14,0,0,0,.43-.08L9,18c.72-.28,1.54-.59,2.35-1a2,2,0,0,0,.87-.83c0,.59,0,1.22,0,1.91v3.11c0,1.17,0,2.31,0,3.45l-.54.21c-1,.38-1.91.73-2.86,1a2.1,2.1,0,0,1-.55.08,2.17,2.17,0,0,1-2-1.55L3.92,18,3,15.48l-.34-.93c-.27-.73-.53-1.46-.79-2.19A2.17,2.17,0,0,1,3.19,9.5l21-7.64A2.4,2.4,0,0,1,25,1.72M25,.57A3.55,3.55,0,0,0,23.8.79l-21,7.64a3.31,3.31,0,0,0-2,4.31c.37,1,.76,2.09,1.14,3.13q1.62,4.46,3.25,8.91a3.32,3.32,0,0,0,3.07,2.3A3.24,3.24,0,0,0,9.09,27c1.37-.38,2.7-.94,4-1.43a.39.39,0,0,0,.2-.29c0-1.63,0-3.26,0-5V18.11c0-1.18,0-2.36,0-3.54a6.56,6.56,0,0,1,.16-1.4,5.1,5.1,0,0,1,4.93-4l3,0h9c-.85-2.3-1.6-4.53-2.49-6.71A3.13,3.13,0,0,0,25,.57ZM7.81,17.24c-.89,0-1.34-.28-1.56-.83s-.47-1.19-.66-1.8A1.28,1.28,0,0,1,6.32,13c.89-.36,1.79-.69,2.7-1A1.27,1.27,0,0,1,9.41,12a1.29,1.29,0,0,1,1.18.84c.25.59.45,1.2.65,1.8A1.1,1.1,0,0,1,10.8,16c-1,.52-2.16.9-3,1.24Z"/><path class="cls-1" d="M32.15,12.2h8.71a2.16,2.16,0,0,1,2.29,2.3q0,6.37,0,12.73a2.16,2.16,0,0,1-2.31,2.28H18.75A2.42,2.42,0,0,1,17,28.89a2.48,2.48,0,0,1-.65-1.81q0-3.4,0-6.81,0-2.81,0-5.63a2.25,2.25,0,0,1,1.52-2.32,2.59,2.59,0,0,1,.75-.12H32.15m0-1.14H18.62a3.72,3.72,0,0,0-1.09.17,3.33,3.33,0,0,0-2.32,3.41c0,4.15,0,8.29,0,12.44a3.36,3.36,0,0,0,3.55,3.59H40.84a3.3,3.3,0,0,0,3.45-3.43q0-6.37,0-12.74a3.3,3.3,0,0,0-3.43-3.45Z"/><path class="cls-1" d="M40.88,21.21v2.06c0,1.27,0,2.53,0,3.8a1.77,1.77,0,0,1,0,.18H18.64s0-.07,0-.11q0-2.87,0-5.74v-.18H40.88M42,20.07H17.51c0,.18,0,.31,0,.44q0,3.31,0,6.62c0,.87.39,1.26,1.28,1.26H40.7c.94,0,1.31-.37,1.32-1.33,0-1.8,0-3.61,0-5.41,0-.52,0-1,0-1.6Z"/><path class="cls-1" d="M23,15.63H40.87c0,.06,0,.14,0,.25H18.63c0-.09,0-.18,0-.26H23m0-1.14h-4.3a1,1,0,0,0-1.18.93c0,.53,0,1.07,0,1.62H42c0-.38,0-.75,0-1.11,0-1.12-.32-1.44-1.44-1.44H23Z"/><path class="cls-1" d="M29.09,22.17H20.53a.81.81,0,0,0-.9.76.83.83,0,0,0,.89.83H32.05a1,1,0,0,0,.69-.31.86.86,0,0,0,.1-.77,1.14,1.14,0,0,0-.79-.48c-1,0-2,0-3,0Z"/></svg>