<svg id="Layer_1" data-name="Layer 1" xmlns="http://www.w3.org/2000/svg" viewBox="0 0 21.87 20.16"><defs><style>.cls-1{fill:#007b77;}</style></defs><title>idcard</title><path class="cls-1" d="M12.81,3.55h7.05a1.88,1.88,0,0,1,1.88,1.88v9.87a1.88,1.88,0,0,1-1.88,1.88H2A1.88,1.88,0,0,1,.12,15.31V5.43A1.88,1.88,0,0,1,2,3.55H12.81ZM3.88,16.25h6.58m1,0h8.37a.94.94,0,0,0,.94-.94V5.43a.94.94,0,0,0-.94-.94H2a.94.94,0,0,0-.94.94v9.87a.94.94,0,0,0,.94.94h9.5Zm7-6.58H12.81a.47.47,0,0,1,0-.94h5.64a.47.47,0,1,1,0,.94Zm-5.64,1.88h.94a.47.47,0,0,1,0,.94h-.94a.47.47,0,0,1,0-.94Zm0,1.88h2.82a.47.47,0,0,1,0,.94H12.81a.47.47,0,0,1,0-.94ZM14.7,12a.47.47,0,0,1,.47-.47H17a.47.47,0,0,1,0,.94H15.17A.47.47,0,0,1,14.7,12ZM2.49,16.38A5.1,5.1,0,0,1,3,15.32s.4-.82,2.35-.84c0,0,0-.49,0-.48a3.43,3.43,0,0,1-.49-.38,2,2,0,0,1-.68-1.21,18.55,18.55,0,0,1-.23-2c0-1.49.59-3,2.8-3h.06c2.2,0,2.8,1.51,2.8,3a18.55,18.55,0,0,1-.23,2,2,2,0,0,1-.68,1.21,3.34,3.34,0,0,1-.49.38s0,.47,0,.48c2,0,2.34.84,2.35.84a5.1,5.1,0,0,1,.55,1.05Z"/></svg>