<svg id="Layer_1" data-name="Layer 1" xmlns="http://www.w3.org/2000/svg" viewBox="0 0 60 60"><defs><style>.cls-1{fill:#f4f4f4;}.cls-2{fill:#19b283;}.cls-3{fill:#fff;}</style></defs><title>Artboard 5</title><circle class="cls-1" cx="30" cy="30" r="30"/><path class="cls-2" d="M26.48,48.11a5.67,5.67,0,0,1-4-1.61,5.6,5.6,0,0,1-1.66-4c0-2.74,0-5.67,0-9.49a5.54,5.54,0,0,1,5.51-5.54l3.21,0H42.79a5.55,5.55,0,0,1,5.61,4.61,5,5,0,0,1,.1,1v1.33c0,2.66,0,5.41,0,8.12A5.61,5.61,0,0,1,43.91,48a6.76,6.76,0,0,1-1.28.1H26.48Z"/><path class="cls-2" d="M21.44,48c-1.95,0-5.25-.12-5.53-.2a6.18,6.18,0,0,1-4.43-6c0-3.38,0-6.81,0-10.13V24.36c0-2.08,0-4.2,0-6.29a6.11,6.11,0,0,1,4.72-6,6.71,6.71,0,0,1,1.56-.19H32.22a6.15,6.15,0,0,1,6.21,5.19,6.58,6.58,0,0,1,.09,1.09c0,1.2,0,6,0,7.21v.79h-2v-.37c0-1.07,0-5.76,0-6.81v-.73a4.23,4.23,0,0,0-4.41-4.41H17.92a4.26,4.26,0,0,0-4.45,4.45q0,11.75,0,23.5a4.22,4.22,0,0,0,2.39,3.87c.17,0,2.2.11,4,.17H20l2.43,2.19Z"/><path class="cls-2" d="M18.41,25.45a3.23,3.23,0,0,1-3.19-3.17q0-1.24,0-2.48a3.25,3.25,0,0,1,3.18-3.19h4.07a3.23,3.23,0,0,1,3.16,3.07c0,.89,0,1.77,0,2.62a3.21,3.21,0,0,1-3.27,3.15Zm2-6.67-2,0a1.07,1.07,0,0,0-1,1.12c0,.76,0,1.51,0,2.27a1,1,0,0,0,1.08,1.07h3.93a1,1,0,0,0,1-.87,20.76,20.76,0,0,0,0-2.47,1,1,0,0,0-1.08-1.12Z"/><path class="cls-2" d="M27.32,19.93a1.11,1.11,0,0,1-1.21-1.09,1,1,0,0,1,.29-.75,1.26,1.26,0,0,1,.91-.35h6.28a1.1,1.1,0,0,1,.89,1.85,1.21,1.21,0,0,1-.89.34H27.32Z"/><path class="cls-2" d="M27.32,23.42a1.1,1.1,0,0,1-1.21-1.07,1.08,1.08,0,0,1,.3-.77,1.24,1.24,0,0,1,.89-.34h6.32a1.18,1.18,0,0,1,.87.34,1.08,1.08,0,0,1,.29.8,1.07,1.07,0,0,1-1.18,1H27.32Z"/><path class="cls-2" d="M32.12,39.44m-6.38,0"/><path class="cls-3" d="M25.78,37.38a1.18,1.18,0,0,1-.87-.34,1.08,1.08,0,0,1-.29-.81,1.06,1.06,0,0,1,1.18-1h6.25a1.09,1.09,0,0,1,1.24,1A1.05,1.05,0,0,1,33,37a1.27,1.27,0,0,1-.93.37H25.78Z"/><path class="cls-3" d="M31.8,42.73a1.18,1.18,0,0,1-.87-.34,1.08,1.08,0,0,1-.29-.81,1.06,1.06,0,0,1,1.18-1h6.25a1.09,1.09,0,0,1,1.24,1,1.05,1.05,0,0,1-.3.77,1.27,1.27,0,0,1-.93.37H31.8Z"/></svg>