<svg id="Layer_1" data-name="Layer 1" xmlns="http://www.w3.org/2000/svg" viewBox="0 0 60 60"><defs><style>.cls-1{fill:#f4f4f4;}.cls-2{fill:#eb1e79;}</style></defs><title>Artboard 3</title><circle class="cls-1" cx="30" cy="30" r="30"/><path class="cls-2" d="M22.57,41.15a2.34,2.34,0,0,1-2.48,1.24c-1.11,0-2.09-1.09-2.5-2.72l-1.24-6.19a1.24,1.24,0,0,0-1.21-1c-1.24,0-1.24,0-1.24-2.37.39-4.66,1.49-6.39,3.26-7.81a1.24,1.24,0,0,0,.22-.23l.09-.11a6,6,0,0,0,5.11.08v-2.9a3.71,3.71,0,1,1,1-4h2.52a6.31,6.31,0,0,0-6-5,6.17,6.17,0,0,0-4.62,10.28C13,22.54,11.82,25.2,11.42,30c0,2.08,0,4.42,2.68,4.87l1.07,5.33c.71,2.83,2.64,4.65,4.92,4.65A4.21,4.21,0,0,0,22.57,44Z"/><path class="cls-2" d="M37.43,44a4.23,4.23,0,0,0,2.48.82c2.28,0,4.21-1.83,4.93-4.71l1.06-5.28c2.68-.46,2.68-2.8,2.68-5-.39-4.7-1.53-7.36-4-9.43a6.17,6.17,0,0,0-4.62-10.28,6.31,6.31,0,0,0-6,5h2.53a3.73,3.73,0,1,1,1,4V22A6,6,0,0,0,42.55,22l.09.11a1.23,1.23,0,0,0,.22.22c1.77,1.41,2.87,3.14,3.25,7.7,0,2.48,0,2.48-1.24,2.48a1.24,1.24,0,0,0-1.21,1l-1.23,6.14C42,41.3,41,42.39,39.91,42.39a3.35,3.35,0,0,1-2.48-1.24Z"/><path class="cls-2" d="M34.61,25.42a6.1,6.1,0,0,0,1.59-4.09,6.19,6.19,0,1,0-10.81,4.09c-2.51,2.07-3.65,4.73-4.05,9.54,0,2.08,0,4.41,2.68,4.87l1.08,5.34c.71,2.82,2.64,4.66,4.92,4.66a4.37,4.37,0,0,0,3-1.28,7.13,7.13,0,0,0,1.88-3.44L36,39.82c2.69-.46,2.69-2.8,2.68-5C38.28,30.15,37.14,27.49,34.61,25.42ZM30,35l-2.48-3.31,1.65-4.12h1.65l1.66,4.12Z"/></svg>