<svg id="Layer_1" data-name="Layer 1" xmlns="http://www.w3.org/2000/svg" viewBox="0 0 52.56 25.28"><defs><style>.cls-1,.cls-2{fill:none;stroke:#8a6406;}.cls-1{stroke-miterlimit:10;stroke-width:0.91px;}.cls-2{stroke-linecap:round;stroke-linejoin:round;stroke-width:0.92px;}</style></defs><title>Artboard 4</title><path class="cls-1" d="M39.58,24.71a7.24,7.24,0,0,1-2.27,0l-4-.08-7.07-.15-12.49.26c-3.7.08-.38-5.29.78-6.47,2.1-2.13,5-3.29,7.77-4.26,1.1-.39,1.3-1.12.45-2-2-2-2.3-5-1.83-7.68A4.34,4.34,0,0,1,24.33.69c2-.47,4.73-.31,6.27,1.28s1.31,4.3,1,6.21a7.28,7.28,0,0,1-1.53,3.52c-.73.87-1.42,1.81.09,2.34,2.79,1,5.84,2.14,8,4.27,1.29,1.27,3.49,4.29,1.93,6.06A1.19,1.19,0,0,1,39.58,24.71Z"/><path class="cls-2" d="M43.19,21.23c1.07,0,7.49.06,8-.12a1,1,0,0,0,.43-.28c1.27-1.45-.52-3.91-1.57-4.94-1.77-1.74-4.26-2.68-6.54-3.48-1.23-.43-.67-1.2-.07-1.91a5.92,5.92,0,0,0,1.25-2.87c.26-1.56.39-3.83-.81-5.06s-3.45-1.43-5.12-1a3.54,3.54,0,0,0-2.79,3c-.38,2.15-.14,4.66,1.49,6.26.7.68.53,1.28-.36,1.59a12.31,12.31,0,0,0-2.2.82A16.76,16.76,0,0,1,43.19,21.23Z"/><path class="cls-2" d="M17.62,13.23a12.31,12.31,0,0,0-2.2-.82c-.89-.31-1.06-.91-.36-1.59,1.63-1.6,1.88-4.11,1.49-6.26a3.54,3.54,0,0,0-2.79-3c-1.67-.38-3.86-.25-5.12,1s-1.07,3.5-.81,5.06A5.92,5.92,0,0,0,9.08,10.5c.59.71,1.16,1.47-.07,1.91-2.28.8-4.76,1.74-6.54,3.48-1.05,1-2.84,3.49-1.57,4.94a1,1,0,0,0,.43.28c.56.18,7,.15,8,.12A16.76,16.76,0,0,1,17.62,13.23Z"/></svg>