<svg id="Layer_1" data-name="Layer 1" xmlns="http://www.w3.org/2000/svg" viewBox="0 0 21.87 20.16"><defs><style>.cls-1{fill:#40a6a4;}.cls-2{fill:none;stroke:#40a6a4;stroke-miterlimit:10;stroke-width:0.85px;}</style></defs><title>Artboard 28</title><path class="cls-1" d="M15.83,14.16H6a10.69,10.69,0,0,1,0-1.61c.22-1.39,2.22-2.46,3.64-2.48h2.49a4.6,4.6,0,0,1,2.23.7,2.77,2.77,0,0,1,1.42,1.78A10.68,10.68,0,0,1,15.83,14.16Z"/><circle class="cls-1" cx="10.93" cy="6.85" r="2.36"/><path class="cls-2" d="M19.27,7.92c-1.58-.37-1.89-1.09-1.1-2.48a1.59,1.59,0,0,0-.45-2.24c-.7-.66-1.29-1.23-2.4-.55-1.41.86-2.07.59-2.49-1C12.48.31,11.59.5,10.67.46s-1.45.11-1.74,1a1.92,1.92,0,0,1-2.79,1.2c-1.08-.51-1.59.27-2.28.86s-.58,1.23-.15,2c.77,1.33.41,2.29-1.06,2.66A1.53,1.53,0,0,0,1.35,9.9c0,1.61.08,1.68,1.62,2.31a2.87,2.87,0,0,1,.89.68A1,1,0,0,1,4.07,14a2.72,2.72,0,0,1-.27.54c-.64.92-.4,1.6.4,2.33s1.35,1.14,2.42.48c1.3-.8,1.92-.47,2.51,1,.18.44.41,1,.78,1.18A2.26,2.26,0,0,0,13.12,18c.38-1.1,1.07-1.38,2.17-.89.45.2,1.1.66,1.35.5a6.06,6.06,0,0,0,1.86-1.75c.2-.3,0-1-.26-1.45-.67-1.44-.5-2.14,1-2.49,1.3-.3,1.27-1.13,1.27-2.09S20.4,8.18,19.27,7.92Z"/></svg>