<svg id="Layer_1" data-name="Layer 1" xmlns="http://www.w3.org/2000/svg" viewBox="0 0 20.32 20.04"><defs><style>.cls-1{fill:#008bec;}.cls-2{fill:#fff;}</style></defs><title>Artboard 27</title><path class="cls-1" d="M8.22,20A3.12,3.12,0,0,1,6,19.09a3.08,3.08,0,0,1-.91-2.19c0-1.51,0-3.12,0-5.22a3,3,0,0,1,3-3H17.2a3,3,0,0,1,3.09,2.54,2.76,2.76,0,0,1,.05.52v1c0,1.39,0,2.83,0,4.24a3.08,3.08,0,0,1-2.53,3,3.79,3.79,0,0,1-.7.05H8.22Z"/><path class="cls-1" d="M5.45,19.94c-1.07,0-2.89-.07-3-.11A3.4,3.4,0,0,1,0,16.52V6.57c0-1,0-2.08,0-3.12A3.36,3.36,0,0,1,2.58.17a3.71,3.71,0,0,1,.86-.1h7.91a3.4,3.4,0,0,1,3.45,2.86,3.58,3.58,0,0,1,0,.6c0,.66,0,4.2,0,4.2v.2H13.76V3.57a2.33,2.33,0,0,0-2.43-2.42H3.51A2.34,2.34,0,0,0,1.06,3.59V16.52a2.32,2.32,0,0,0,1.31,2.13l2.2.09h.07L6,20Z"/><path class="cls-1" d="M3.78,7.52A1.78,1.78,0,0,1,2,5.78c0-.46,0-.91,0-1.37A1.78,1.78,0,0,1,3.78,2.65H6A1.78,1.78,0,0,1,7.75,4.34c0,.48,0,1,0,1.44A1.77,1.77,0,0,1,6,7.52ZM4.89,3.85H3.81a.59.59,0,0,0-.58.62s0,.89,0,1.25a.57.57,0,0,0,.6.59H6a.53.53,0,0,0,.55-.48,11.27,11.27,0,0,0,0-1.36A.58.58,0,0,0,6,3.86Z"/><path class="cls-1" d="M8.68,4.48A.61.61,0,0,1,8,3.88a.57.57,0,0,1,.16-.41.69.69,0,0,1,.5-.19h3.46a.6.6,0,0,1,.49,1,.67.67,0,0,1-.49.19H8.68Z"/><path class="cls-1" d="M8.69,6.4A.6.6,0,0,1,8,5.82a.59.59,0,0,1,.17-.43.68.68,0,0,1,.49-.19h3.48a.65.65,0,0,1,.48.19.6.6,0,0,1,.16.44.59.59,0,0,1-.65.58H8.69Z"/><path class="cls-1" d="M11.33,15.21m-3.51,0"/><path class="cls-2" d="M7.84,14.08a.64.64,0,0,1-.48-.18.59.59,0,0,1-.16-.44.58.58,0,0,1,.65-.57h3.44a.61.61,0,0,1,.68.57.58.58,0,0,1-.16.43.69.69,0,0,1-.51.21H7.84Z"/><path class="cls-2" d="M11.15,17a.64.64,0,0,1-.48-.18.59.59,0,0,1-.16-.44.58.58,0,0,1,.65-.57H14.6a.61.61,0,0,1,.68.57.58.58,0,0,1-.16.43.69.69,0,0,1-.51.21H11.15Z"/></svg>