<svg id="Layer_1" data-name="Layer 1" xmlns="http://www.w3.org/2000/svg" viewBox="0 0 20.94 19.19"><defs><style>.cls-1{fill:none;stroke:#7321a6;stroke-linecap:round;stroke-linejoin:round;stroke-width:0.74px;}.cls-2{fill:#7321a6;}</style></defs><title>Artboard 25</title><path class="cls-1" d="M11.89,17.35H.39a7.2,7.2,0,0,1,4.54-6.88,7.18,7.18,0,0,1,6.56.14"/><path class="cls-1" d="M11.82,4.73a3.78,3.78,0,1,1-7.56-.15,3.78,3.78,0,1,1,7.56.15Z"/><path class="cls-2" d="M18.74,9.87c-.79.33-1.14.12-1.23-.72-.07-.58-.38-.75-.88-.81s-.93-.13-1.19.51c-.33.8-.7.89-1.37.33s-.87-.1-1.27.17-.58.5-.43,1a1,1,0,0,1-.82,1.37c-.62.12-.59.61-.7,1.07s.13.7.54.88c.74.33.88.85.37,1.46a.8.8,0,0,0,0,1.14c.49.68.55.69,1.4.48a1.5,1.5,0,0,1,.59,0,.53.53,0,0,1,.42.39,1.43,1.43,0,0,1,.05.31c0,.59.33.8.88.87s.92.07,1.18-.54.67-.79,1.36-.36c.21.13.49.31.69.26a1.19,1.19,0,0,0,.9-1.63c-.18-.59,0-.92.65-1,.26-.05.67-.06.73-.2a3.18,3.18,0,0,0,.25-1.31c0-.19-.33-.41-.55-.54-.73-.4-.87-.75-.34-1.37s.19-.87-.1-1.28S19.3,9.63,18.74,9.87Zm-1.2,2.27a2.05,2.05,0,1,1-2.86-.51A2,2,0,0,1,17.54,12.13Z"/></svg>