<svg id="Layer_1" data-name="Layer 1" xmlns="http://www.w3.org/2000/svg" viewBox="0 0 20.48 18.73"><defs><style>.cls-1{fill:none;stroke:#7321a6;stroke-miterlimit:10;stroke-width:0.54px;}</style></defs><title>Artboard 8</title><path class="cls-1" d="M14.56,18.46H6a.58.58,0,0,1-.58-.57c0-1.09-.05-3.56,0-5.68A4.56,4.56,0,0,1,7.84,8a5.08,5.08,0,0,1,5.59.54A4.44,4.44,0,0,1,15.13,12c0,2.76,0,3.34,0,5.86A.58.58,0,0,1,14.56,18.46Z"/><path class="cls-1" d="M13.25,4.27a3.08,3.08,0,0,1-2.19,2.16,3.13,3.13,0,0,1-3.93-3.1,3.12,3.12,0,1,1,6.12.94Z"/><path class="cls-1" d="M4.58,9.74a8.23,8.23,0,0,0-.64,4.19c0,1.68,0,.83,0,2.55H.86a.58.58,0,0,1-.58-.57c0-.71,0-2,0-3.43A3.27,3.27,0,0,1,4.58,9.74Z"/><path class="cls-1" d="M3.64,4.52a2.1,2.1,0,1,1,0,4.2,2.1,2.1,0,1,1,0-4.2Z"/><path class="cls-1" d="M15.89,9.75a3.3,3.3,0,0,1,4.29,3c0,1.87,0,1.72,0,3.2a.59.59,0,0,1-.58.58H16.53c0-1.56,0-.6,0-2.16S16.72,11.2,15.89,9.75Z"/><path class="cls-1" d="M16.82,8.72a2.1,2.1,0,1,1,2.12-2.06A2.1,2.1,0,0,1,16.82,8.72Z"/></svg>