<svg id="Layer_1" data-name="Layer 1" xmlns="http://www.w3.org/2000/svg" viewBox="0 0 23.88 11.49"><defs><style>.cls-1,.cls-2{fill:none;stroke:#8a6406;}.cls-1{stroke-miterlimit:10;stroke-width:0.42px;}.cls-2{stroke-linecap:round;stroke-linejoin:round;stroke-width:0.42px;}</style></defs><title>Artboard 9</title><path class="cls-1" d="M18,11.23a3.29,3.29,0,0,1-1,0l-1.83,0-3.21-.07-5.68.12c-1.68,0-.17-2.4.36-2.94a9,9,0,0,1,3.53-1.94c.5-.18.59-.51.2-.89A3.9,3.9,0,0,1,9.5,2,2,2,0,0,1,11.06.31,3.11,3.11,0,0,1,13.91.9a3.44,3.44,0,0,1,.45,2.82,3.31,3.31,0,0,1-.69,1.6c-.33.39-.65.82,0,1.06a9.69,9.69,0,0,1,3.65,1.94c.59.58,1.58,1.95.88,2.75A.54.54,0,0,1,18,11.23Z"/><path class="cls-2" d="M19.62,9.65c.49,0,3.4,0,3.66-.06a.45.45,0,0,0,.2-.13c.58-.66-.24-1.78-.72-2.24a7.89,7.89,0,0,0-3-1.58c-.56-.2-.3-.54,0-.87a2.69,2.69,0,0,0,.57-1.3A2.8,2.8,0,0,0,20,1.17,2.54,2.54,0,0,0,17.63.69a1.61,1.61,0,0,0-1.27,1.38A3.18,3.18,0,0,0,17,4.91c.32.31.24.58-.16.72a5.59,5.59,0,0,0-1,.37A7.62,7.62,0,0,1,19.62,9.65Z"/><path class="cls-2" d="M8,6a5.59,5.59,0,0,0-1-.37c-.41-.14-.48-.41-.16-.72a3.18,3.18,0,0,0,.68-2.85A1.61,1.61,0,0,0,6.25.69a2.54,2.54,0,0,0-2.32.48,2.8,2.8,0,0,0-.37,2.3,2.69,2.69,0,0,0,.57,1.3c.27.32.53.67,0,.87a7.89,7.89,0,0,0-3,1.58C.64,7.69-.17,8.81.41,9.46a.45.45,0,0,0,.2.13c.25.08,3.17.07,3.66.06A7.62,7.62,0,0,1,8,6Z"/></svg>