<svg id="Layer_1" data-name="Layer 1" xmlns="http://www.w3.org/2000/svg" viewBox="0 0 21.87 20.16"><defs><style>.cls-1{fill:#c85211;}</style></defs><title>Artboard 28</title><path class="cls-1" d="M10.92,19.73H3.14a1.83,1.83,0,0,1-1.81-1.37,2.1,2.1,0,0,1-.05-.51q0-6.36,0-12.72,0-1.42,0-2.84A1.82,1.82,0,0,1,3.15.42H18.7A1.82,1.82,0,0,1,20.59,2.3q0,7.81,0,15.62a1.82,1.82,0,0,1-1.83,1.81ZM2.15,4.81c0,.07,0,.13,0,.18q0,6.47,0,12.95a.82.82,0,0,0,.93.92H18.78c.65,0,.94-.3.94-.95q0-6.44,0-12.89c0-.07,0-.14,0-.22Zm0-.87H19.49c.18,0,.24,0,.23-.23,0-.5,0-1,0-1.5a1.37,1.37,0,0,0,0-.33.8.8,0,0,0-.89-.6H3.11c-.67,0-1,.29-1,1,0,.37,0,.74,0,1.11C2.14,3.55,2.14,3.73,2.14,3.94Z"/><circle class="cls-1" cx="18.86" cy="2.61" r="0.43" transform="translate(16.1 21.45) rotate(-89.54)"/><circle class="cls-1" cx="16.02" cy="2.61" r="0.43" transform="translate(13.1 18.57) rotate(-88.89)"/><path class="cls-1" d="M17.43,3A.42.42,0,0,1,17,2.6a.43.43,0,0,1,.43-.42.44.44,0,0,1,.42.44A.43.43,0,0,1,17.43,3Z"/><path class="cls-1" d="M15.34,8.48c-.18.3-.35.59-.52.87a.66.66,0,0,0,0,.68c.06.12.1.24.15.37a.64.64,0,0,0,.49.43c.28.06.56.13.83.22a.29.29,0,0,1,.17.2c0,.44,0,.87,0,1.33l-1,.25a.8.8,0,0,0-.53.46A1.13,1.13,0,0,0,15,14.68a4.31,4.31,0,0,1,.31.52c-.32.31-.63.63-1,.93a.29.29,0,0,1-.26,0,7.21,7.21,0,0,1-.63-.38.74.74,0,0,0-.78-.06l-.34.14a.63.63,0,0,0-.44.48c-.06.26-.14.51-.19.77s-.13.24-.31.24c-.33,0-.67,0-1,0-.18,0-.28,0-.31-.24s-.12-.52-.19-.77a.64.64,0,0,0-.44-.48c-.12,0-.23-.1-.34-.15a.71.71,0,0,0-.71,0,8,8,0,0,1-.71.42.31.31,0,0,1-.28,0c-.32-.29-.62-.59-.94-.9.18-.3.33-.57.5-.84a.69.69,0,0,0,.05-.75,2.47,2.47,0,0,1-.14-.34.64.64,0,0,0-.49-.43l-1-.25c0-.46,0-.91,0-1.37,0-.06.1-.15.17-.17.26-.08.53-.14.8-.21a.94.94,0,0,0,.26-.1A1.32,1.32,0,0,0,7,9.3c-.13-.22-.28-.43-.39-.66a.31.31,0,0,1,0-.28c.25-.27.52-.52.78-.79a.23.23,0,0,1,.34,0A4.15,4.15,0,0,0,8.49,8a1.42,1.42,0,0,0,.59,0c.12,0,.22-.1.34-.13a.71.71,0,0,0,.53-.6c0-.23.12-.46.17-.69a.23.23,0,0,1,.27-.22h1.08c.17,0,.23.07.27.22s.13.52.19.77a.65.65,0,0,0,.43.49l.4.16a.64.64,0,0,0,.65,0c.23-.15.47-.29.71-.42a.29.29,0,0,1,.27,0C14.71,7.84,15,8.16,15.34,8.48ZM14,11.84a3.14,3.14,0,0,0-3-3,3.14,3.14,0,0,0-3,3,3.14,3.14,0,0,0,3,3.07A3.14,3.14,0,0,0,14,11.84Z"/><path class="cls-1" d="M10.92,10a1.73,1.73,0,0,1,1.85,1.79A1.75,1.75,0,0,1,11,13.68,1.75,1.75,0,0,1,9.1,11.88,1.73,1.73,0,0,1,10.92,10Z"/></svg>