<svg id="Layer_1" data-name="Layer 1" xmlns="http://www.w3.org/2000/svg" viewBox="0 0 24.47 12.07"><defs><style>.cls-1{fill:#8a6406;}.cls-2{fill:none;stroke:#8a6406;stroke-linecap:round;stroke-linejoin:round;stroke-width:1px;}</style></defs><title>Artboard 26</title><path class="cls-1" d="M18.28,11.52a3.29,3.29,0,0,1-1,0l-1.83,0-3.21-.07-5.67.12c-1.68,0-.17-2.4.36-2.94a9,9,0,0,1,3.53-1.94c.5-.18.59-.51.2-.89a3.9,3.9,0,0,1-.83-3.49A2,2,0,0,1,11.35.61a3.11,3.11,0,0,1,2.85.58A3.44,3.44,0,0,1,14.65,4,3.31,3.31,0,0,1,14,5.61c-.33.39-.64.82,0,1.06a9.69,9.69,0,0,1,3.65,1.94c.59.58,1.58,1.95.88,2.75A.54.54,0,0,1,18.28,11.52Z"/><path class="cls-2" d="M19.91,9.71c.49,0,3.4,0,3.65-.06a.45.45,0,0,0,.2-.13c.58-.66-.24-1.77-.72-2.24a7.89,7.89,0,0,0-3-1.58c-.56-.2-.3-.54,0-.87a2.69,2.69,0,0,0,.57-1.3,2.8,2.8,0,0,0-.37-2.3A2.54,2.54,0,0,0,17.92.76a1.61,1.61,0,0,0-1.27,1.37A3.18,3.18,0,0,0,17.33,5c.32.31.24.58-.16.72a5.59,5.59,0,0,0-1,.37A7.61,7.61,0,0,1,19.91,9.71Z"/><path class="cls-2" d="M8.3,6.08a5.59,5.59,0,0,0-1-.37c-.41-.14-.48-.41-.16-.72a3.18,3.18,0,0,0,.68-2.84A1.61,1.61,0,0,0,6.55.76a2.54,2.54,0,0,0-2.32.47,2.8,2.8,0,0,0-.37,2.3,2.69,2.69,0,0,0,.57,1.3c.27.32.52.67,0,.87a7.89,7.89,0,0,0-3,1.58C.94,7.75.13,8.87.7,9.53a.45.45,0,0,0,.2.13c.25.08,3.17.07,3.65.06A7.61,7.61,0,0,1,8.3,6.08Z"/></svg>