<svg id="Layer_1" data-name="Layer 1" xmlns="http://www.w3.org/2000/svg" viewBox="0 0 45.17 28.39"><defs><style>.cls-1{fill:#006991;}</style></defs><title>Artboard 41</title><g id="_Group_" data-name="&lt;Group&gt;"><g id="_Group_2" data-name="&lt;Group&gt;"><path class="cls-1" d="M41.49,28.39H9.12a3.68,3.68,0,0,1-3.68-3.68V9A3.68,3.68,0,0,1,9.12,5.31H41.49A3.68,3.68,0,0,1,45.17,9V24.71A3.68,3.68,0,0,1,41.49,28.39ZM9.12,6A2.94,2.94,0,0,0,6.18,9V24.71a2.94,2.94,0,0,0,2.93,2.94H41.49a2.94,2.94,0,0,0,2.94-2.94V9A2.94,2.94,0,0,0,41.49,6Z"/></g><g id="_Group_3" data-name="&lt;Group&gt;"><path class="cls-1" d="M44.8,15.56h-39a.37.37,0,0,1-.37-.37V10a.37.37,0,0,1,.37-.37h39a.37.37,0,0,1,.37.37v5.24A.37.37,0,0,1,44.8,15.56ZM6.18,14.82H44.43v-4.5H6.18Z"/></g><g id="_Group_4" data-name="&lt;Group&gt;"><path class="cls-1" d="M38.11,24.18a3.05,3.05,0,0,1-.93-.15,3.06,3.06,0,1,1-.93-6,3.11,3.11,0,0,1,.93.14,3.1,3.1,0,0,1,.93-.14,3.06,3.06,0,0,1,0,6.12Zm-.93-.91.13,0a2.35,2.35,0,0,0,.8.14,2.32,2.32,0,0,0,0-4.64,2.35,2.35,0,0,0-.8.14.37.37,0,0,1-.25,0,2.37,2.37,0,0,0-.81-.14,2.32,2.32,0,0,0,0,4.64,2.39,2.39,0,0,0,.81-.14Z"/></g><g id="_Group_5" data-name="&lt;Group&gt;"><path class="cls-1" d="M19.17,19.77H9.81a.37.37,0,1,1,0-.74h9.37a.37.37,0,0,1,0,.74Z"/></g><g id="_Group_6" data-name="&lt;Group&gt;"><path class="cls-1" d="M29,19.77H23.24a.37.37,0,0,1,0-.74H29a.37.37,0,1,1,0,.74Z"/></g><g id="_Group_7" data-name="&lt;Group&gt;"><path class="cls-1" d="M29,23.22H19.66a.37.37,0,1,1,0-.74H29a.37.37,0,1,1,0,.74Z"/></g><g id="_Group_8" data-name="&lt;Group&gt;"><path class="cls-1" d="M15.59,23.22H9.81a.37.37,0,1,1,0-.74h5.79a.37.37,0,0,1,0,.74Z"/></g><g id="_Group_9" data-name="&lt;Group&gt;"><path class="cls-1" d="M5.81,23.08H3.68A3.68,3.68,0,0,1,0,19.4V3.68A3.68,3.68,0,0,1,3.68,0H36a3.68,3.68,0,0,1,3.68,3.68v2a.37.37,0,0,1-.37.37H9.12A2.94,2.94,0,0,0,6.18,9V22.71A.37.37,0,0,1,5.81,23.08ZM3.68.74A2.94,2.94,0,0,0,.74,3.68V19.4a2.94,2.94,0,0,0,2.94,2.94H5.44V9A3.68,3.68,0,0,1,9.12,5.31H39V3.68A2.94,2.94,0,0,0,36,.74Z"/></g></g></svg>