<svg id="Layer_1" data-name="Layer 1" xmlns="http://www.w3.org/2000/svg" viewBox="0 0 26.44 38.56"><defs><style>.cls-1{fill:#006991;}</style></defs><title>Artboard 45</title><path class="cls-1" d="M26.12,38.56H.32A.32.32,0,0,1,0,38.24V1.91a.32.32,0,0,1,.32-.32h25.8a.32.32,0,0,1,.32.32V38.24A.32.32,0,0,1,26.12,38.56ZM.63,37.93H25.8V2.22H.63Z"/><path class="cls-1" d="M21.78,11.84H4.66a.32.32,0,0,1-.32-.32V7.39a.32.32,0,0,1,.32-.32H21.78a.32.32,0,0,1,.32.32v4.13A.32.32,0,0,1,21.78,11.84ZM5,11.2h16.5V7.7H5Z"/><path class="cls-1" d="M21.47,14.56H5a.32.32,0,1,1,0-.63H21.47a.32.32,0,1,1,0,.63Z"/><path class="cls-1" d="M21.47,17.15H5a.32.32,0,1,1,0-.63H21.47a.32.32,0,1,1,0,.63Z"/><path class="cls-1" d="M21.47,19.74H10.11a.32.32,0,1,1,0-.63H21.47a.32.32,0,1,1,0,.63Z"/><path class="cls-1" d="M17.34,22.33H5a.32.32,0,1,1,0-.63H17.34a.32.32,0,1,1,0,.63Z"/><path class="cls-1" d="M21.47,24.92H5a.32.32,0,1,1,0-.63H21.47a.32.32,0,1,1,0,.63Z"/><path class="cls-1" d="M15.46,27.51h-7a.32.32,0,1,1,0-.63h7a.32.32,0,1,1,0,.63Z"/><path class="cls-1" d="M13.46,30.09H5a.32.32,0,1,1,0-.63h8.49a.32.32,0,1,1,0,.63Z"/><path class="cls-1" d="M23.44,3.81a.32.32,0,0,1-.32-.32V.32a.32.32,0,0,1,.63,0V3.49A.32.32,0,0,1,23.44,3.81ZM20,3.81a.32.32,0,0,1-.32-.32V.32a.32.32,0,0,1,.63,0V3.49A.32.32,0,0,1,20,3.81Zm-3.41,0a.32.32,0,0,1-.32-.32V.32a.32.32,0,0,1,.63,0V3.49A.32.32,0,0,1,16.62,3.81Zm-3.41,0a.32.32,0,0,1-.32-.32V.32a.32.32,0,0,1,.63,0V3.49A.32.32,0,0,1,13.22,3.81Zm-3.41,0a.32.32,0,0,1-.32-.32V.32a.32.32,0,0,1,.63,0V3.49A.32.32,0,0,1,9.81,3.81Zm-3.41,0a.32.32,0,0,1-.32-.32V.32a.32.32,0,0,1,.63,0V3.49A.32.32,0,0,1,6.4,3.81ZM3,3.81a.32.32,0,0,1-.32-.32V.32a.32.32,0,0,1,.63,0V3.49A.32.32,0,0,1,3,3.81Z"/></svg>