<svg id="Layer_1" data-name="Layer 1" xmlns="http://www.w3.org/2000/svg" viewBox="0 0 27.81 38.62"><defs><style>.cls-1{fill:#6d6d6d;}</style></defs><title>Artboard 49</title><g id="_Group_" data-name="&lt;Group&gt;"><g id="_Group_2" data-name="&lt;Group&gt;"><path class="cls-1" d="M27.49,38.62H.32A.32.32,0,0,1,0,38.31V3.45a.32.32,0,0,1,.32-.32H6.89a.32.32,0,0,1,.32.32V7.53H20.6V3.45a.32.32,0,0,1,.32-.32h6.57a.32.32,0,0,1,.32.32V38.31A.32.32,0,0,1,27.49,38.62ZM.63,38H27.17V3.76H21.24V7.85a.32.32,0,0,1-.32.32h-14a.32.32,0,0,1-.32-.32V3.76H.63Z"/></g><g id="_Group_3" data-name="&lt;Group&gt;"><path class="cls-1" d="M25,36.17H2.77a.32.32,0,0,1-.32-.32V5.9a.32.32,0,0,1,.32-.32H6.89a.32.32,0,0,1,.32.32V7.53H20.6V5.9a.32.32,0,0,1,.32-.32H25a.32.32,0,0,1,.32.32v30A.32.32,0,0,1,25,36.17Zm-22-.63H24.72V6.21H21.24V7.85a.32.32,0,0,1-.32.32h-14a.32.32,0,0,1-.32-.32V6.21H3.08Z"/></g><g id="_Group_4" data-name="&lt;Group&gt;"><path class="cls-1" d="M20.92,8.17h-14a.32.32,0,0,1-.32-.32v-5a.32.32,0,0,1,.32-.32H8.8V.32A.32.32,0,0,1,9.12,0h9.57A.32.32,0,0,1,19,.32V2.49h1.92a.32.32,0,0,1,.32.32v5A.32.32,0,0,1,20.92,8.17ZM7.2,7.53H20.6V3.12H18.69a.32.32,0,0,1-.32-.32V.63H9.44V2.81a.32.32,0,0,1-.32.32H7.2Z"/></g><g id="_Group_5" data-name="&lt;Group&gt;"><path class="cls-1" d="M13.9,5.61a1.72,1.72,0,1,1,1.72-1.72A1.72,1.72,0,0,1,13.9,5.61Zm0-2.81A1.09,1.09,0,1,0,15,3.89,1.09,1.09,0,0,0,13.9,2.8Z"/></g><g id="_Group_6" data-name="&lt;Group&gt;"><path class="cls-1" d="M10.85,17.92H7.71a.32.32,0,0,1-.32-.32V14.69a.32.32,0,0,1,.32-.32h3.14a.32.32,0,0,1,.32.32V17.6A.32.32,0,0,1,10.85,17.92ZM8,17.29h2.51V15H8Z"/></g><g id="_Group_7" data-name="&lt;Group&gt;"><path class="cls-1" d="M10.85,24.11H7.71a.32.32,0,0,1-.32-.32V20.89a.32.32,0,0,1,.32-.32h3.14a.32.32,0,0,1,.32.32V23.8A.32.32,0,0,1,10.85,24.11ZM8,23.48h2.51V21.21H8Z"/></g><g id="_Group_8" data-name="&lt;Group&gt;"><path class="cls-1" d="M10.85,30.31H7.71A.32.32,0,0,1,7.4,30V27.08a.32.32,0,0,1,.32-.32h3.14a.32.32,0,0,1,.32.32V30A.32.32,0,0,1,10.85,30.31ZM8,29.67h2.51V27.4H8Z"/></g><g id="_Group_9" data-name="&lt;Group&gt;"><path class="cls-1" d="M16.29,18.52h0a.32.32,0,0,1-.23-.16l-.71-1.24a.32.32,0,1,1,.55-.32l.51.88,3.51-3.52a.32.32,0,0,1,.45.45l-3.81,3.81A.32.32,0,0,1,16.29,18.52Z"/></g><g id="_Group_10" data-name="&lt;Group&gt;"><path class="cls-1" d="M16.29,24.56h0A.32.32,0,0,1,16,24.4l-.71-1.24a.32.32,0,1,1,.55-.32l.51.88,3.51-3.52a.32.32,0,0,1,.45.45l-3.81,3.81A.32.32,0,0,1,16.29,24.56Z"/></g><g id="_Group_11" data-name="&lt;Group&gt;"><path class="cls-1" d="M16.29,30.61h0a.32.32,0,0,1-.23-.16l-.72-1.24a.32.32,0,0,1,.55-.32l.51.88,3.51-3.52a.32.32,0,0,1,.45.45l-3.81,3.81A.31.31,0,0,1,16.29,30.61Z"/></g></g></svg>