<svg id="Layer_1" data-name="Layer 1" xmlns="http://www.w3.org/2000/svg" viewBox="0 0 29.64 34.46"><defs><style>.cls-1{fill:#6d6d6d;}</style></defs><title>Artboard 50</title><g id="_Group_" data-name="&lt;Group&gt;"><g id="_Group_2" data-name="&lt;Group&gt;"><path class="cls-1" d="M29.31,30.63h-24A.33.33,0,0,1,5,30.3V.33A.33.33,0,0,1,5.35,0H23.22a.33.33,0,0,1,.23.1l6.09,6.1a.33.33,0,0,1,.1.23v8.82a.32.32,0,0,1,0,.16l0,3.21V30.3A.33.33,0,0,1,29.31,30.63ZM5.68,30H29V23s0-4.08,0-4.12l0-3.74V6.56L23.08.65H5.68Z"/></g><g id="_Group_3" data-name="&lt;Group&gt;"><path class="cls-1" d="M24.5,10.8H8.85a.33.33,0,1,1,0-.65H24.5a.33.33,0,1,1,0,.65Z"/></g><g id="_Group_4" data-name="&lt;Group&gt;"><path class="cls-1" d="M24.5,15.64H8.85a.33.33,0,1,1,0-.65H24.5a.33.33,0,1,1,0,.65Z"/></g><g id="_Group_5" data-name="&lt;Group&gt;"><path class="cls-1" d="M24.5,20.48H8.85a.33.33,0,1,1,0-.65H24.5a.33.33,0,0,1,0,.65Z"/></g><g id="_Group_6" data-name="&lt;Group&gt;"><path class="cls-1" d="M24.5,25.32H8.85a.33.33,0,1,1,0-.65H24.5a.33.33,0,1,1,0,.65Z"/></g><g id="_Group_7" data-name="&lt;Group&gt;"><path class="cls-1" d="M29.31,6.86h-6.1a.33.33,0,0,1-.33-.33V.33A.33.33,0,0,1,23.45.1l6.09,6.1a.33.33,0,0,1,.1.23v.11A.33.33,0,0,1,29.31,6.86Zm-5.77-.65h5.09L23.54,1.11Z"/></g><g id="_Group_8" data-name="&lt;Group&gt;"><path class="cls-1" d="M24.29,34.46H.33A.33.33,0,0,1,0,34.13v-30a.33.33,0,0,1,.33-.33h5a.33.33,0,0,1,.33.33V30H24.29a.33.33,0,0,1,.33.33v3.83A.33.33,0,0,1,24.29,34.46ZM.65,33.81H24V30.63H5.35A.33.33,0,0,1,5,30.3V4.48H.65Z"/></g><g id="_Group_9" data-name="&lt;Group&gt;"><path class="cls-1" d="M17.72,7.05H8.85a.33.33,0,1,1,0-.65h8.87a.33.33,0,1,1,0,.65Z"/></g><g id="_Group_10" data-name="&lt;Group&gt;"><path class="cls-1" d="M17.72,3.3H8.85a.33.33,0,1,1,0-.65h8.87a.33.33,0,1,1,0,.65Z"/></g></g></svg>