<svg id="Layer_1" data-name="Layer 1" xmlns="http://www.w3.org/2000/svg" viewBox="0 0 44.31 36.12"><defs><style>.cls-1{fill:#006991;}</style></defs><title>Artboard 40</title><g id="_Group_" data-name="&lt;Group&gt;"><g id="_Group_2" data-name="&lt;Group&gt;"><path class="cls-1" d="M31.53,36.12H12.78a.36.36,0,0,1-.36-.36V12.4a.36.36,0,0,1,.36-.36H31.53a.36.36,0,0,1,.36.36V35.75A.36.36,0,0,1,31.53,36.12Zm-18.38-.73h18V12.76h-18Z"/></g><g id="_Group_3" data-name="&lt;Group&gt;"><path class="cls-1" d="M28.44,12.76H15.87a.36.36,0,0,1-.36-.36V7.33A.36.36,0,0,1,15.87,7H28.44a.36.36,0,0,1,.36.36V12.4A.36.36,0,0,1,28.44,12.76ZM16.23,12H28.08V7.7H16.23Z"/></g><g id="_Group_4" data-name="&lt;Group&gt;"><path class="cls-1" d="M22.16,7.7a.36.36,0,0,1-.36-.36v-7a.36.36,0,1,1,.73,0v7A.36.36,0,0,1,22.16,7.7Z"/></g><g id="_Group_5" data-name="&lt;Group&gt;"><path class="cls-1" d="M26.54,36.12H17.77a.36.36,0,0,1-.36-.36V25.93a.36.36,0,0,1,.36-.36h8.78a.36.36,0,0,1,.36.36v9.82A.36.36,0,0,1,26.54,36.12Zm-8.42-.73h8.05V26.3H18.13Z"/></g><g id="_Group_6" data-name="&lt;Group&gt;"><path class="cls-1" d="M26.9,16.32H17.41a.36.36,0,1,1,0-.73H26.9a.36.36,0,1,1,0,.73Z"/></g><g id="_Group_7" data-name="&lt;Group&gt;"><path class="cls-1" d="M26.9,19.57H17.41a.36.36,0,1,1,0-.73H26.9a.36.36,0,1,1,0,.73Z"/></g><g id="_Group_8" data-name="&lt;Group&gt;"><path class="cls-1" d="M26.9,22.82H17.41a.36.36,0,1,1,0-.73H26.9a.36.36,0,1,1,0,.73Z"/></g><g id="_Group_9" data-name="&lt;Group&gt;"><path class="cls-1" d="M43.95,36.12H31.53a.36.36,0,0,1-.36-.36V21.18a.36.36,0,0,1,.36-.36H43.95a.36.36,0,0,1,.36.36V35.75A.36.36,0,0,1,43.95,36.12Zm-12.06-.73H43.58V21.55H31.89Z"/></g><g id="_Group_10" data-name="&lt;Group&gt;"><path class="cls-1" d="M36.3,27H33.89a.36.36,0,0,1-.36-.36V23.87a.36.36,0,0,1,.36-.36H36.3a.36.36,0,0,1,.36.36v2.75A.36.36,0,0,1,36.3,27Zm-2-.73h1.68v-2H34.25Z"/></g><g id="_Group_11" data-name="&lt;Group&gt;"><path class="cls-1" d="M41.59,27H39.18a.36.36,0,0,1-.36-.36V23.87a.36.36,0,0,1,.36-.36h2.41a.36.36,0,0,1,.36.36v2.75A.36.36,0,0,1,41.59,27Zm-2-.73h1.68v-2H39.54Z"/></g><g id="_Group_12" data-name="&lt;Group&gt;"><path class="cls-1" d="M36.3,32.73H33.89a.36.36,0,0,1-.36-.36V29.61a.36.36,0,0,1,.36-.36H36.3a.36.36,0,0,1,.36.36v2.75A.36.36,0,0,1,36.3,32.73Zm-2-.73h1.68V30H34.25Z"/></g><g id="_Group_13" data-name="&lt;Group&gt;"><path class="cls-1" d="M41.59,32.73H39.18a.36.36,0,0,1-.36-.36V29.61a.36.36,0,0,1,.36-.36h2.41a.36.36,0,0,1,.36.36v2.75A.36.36,0,0,1,41.59,32.73Zm-2-.73h1.68V30H39.54Z"/></g><g id="_Group_14" data-name="&lt;Group&gt;"><path class="cls-1" d="M12.78,36.12H.36A.36.36,0,0,1,0,35.75V21.18a.36.36,0,0,1,.36-.36H12.78a.36.36,0,0,1,.36.36V35.75A.36.36,0,0,1,12.78,36.12ZM.73,35.39H12.42V21.55H.73Z"/></g><g id="_Group_15" data-name="&lt;Group&gt;"><path class="cls-1" d="M5.13,27H2.72a.36.36,0,0,1-.36-.36V23.87a.36.36,0,0,1,.36-.36H5.13a.36.36,0,0,1,.36.36v2.75A.36.36,0,0,1,5.13,27Zm-2-.73H4.77v-2H3.08Z"/></g><g id="_Group_16" data-name="&lt;Group&gt;"><path class="cls-1" d="M10.42,27H8a.36.36,0,0,1-.36-.36V23.87A.36.36,0,0,1,8,23.51h2.41a.36.36,0,0,1,.36.36v2.75A.36.36,0,0,1,10.42,27Zm-2-.73h1.68v-2H8.38Z"/></g><g id="_Group_17" data-name="&lt;Group&gt;"><path class="cls-1" d="M5.13,32.73H2.72a.36.36,0,0,1-.36-.36V29.61a.36.36,0,0,1,.36-.36H5.13a.36.36,0,0,1,.36.36v2.75A.36.36,0,0,1,5.13,32.73Zm-2-.73H4.77V30H3.08Z"/></g><g id="_Group_18" data-name="&lt;Group&gt;"><path class="cls-1" d="M10.42,32.73H8a.36.36,0,0,1-.36-.36V29.61A.36.36,0,0,1,8,29.25h2.41a.36.36,0,0,1,.36.36v2.75A.36.36,0,0,1,10.42,32.73Zm-2-.73h1.68V30H8.38Z"/></g></g></svg>