<svg id="Layer_1" data-name="Layer 1" xmlns="http://www.w3.org/2000/svg" viewBox="0 0 34.25 31.37"><defs><style>.cls-1{fill:#006991;}</style></defs><title>Artboard 46</title><path class="cls-1" d="M34,25.73H26.08a.28.28,0,1,1,0-.56h7.61V.56H.56v24.6H8.17a.28.28,0,0,1,0,.56H.28A.28.28,0,0,1,0,25.45V.28A.28.28,0,0,1,.28,0H34a.28.28,0,0,1,.28.28V25.45A.28.28,0,0,1,34,25.73Z"/><path class="cls-1" d="M33.74,6.13H13.48a.28.28,0,0,1-.15,0L10.88,4.5H.57a.28.28,0,0,1,0-.56H11a.28.28,0,0,1,.15,0l2.45,1.58H33.74a.28.28,0,0,1,0,.56Z"/><path class="cls-1" d="M28.74,3.51H27.62a.28.28,0,0,1,0-.56h1.12a.28.28,0,0,1,0,.56Z"/><path class="cls-1" d="M30.61,3.51H29.5a.28.28,0,0,1,0-.56h1.11a.28.28,0,0,1,0,.56Z"/><path class="cls-1" d="M32.47,3.51H31.36a.28.28,0,0,1,0-.56h1.11a.28.28,0,0,1,0,.56Z"/><path class="cls-1" d="M17.84,31.37H16.42a.28.28,0,0,1-.28-.24l-.38-2.54a7.37,7.37,0,0,1-1.15-.31l-1.6,2a.28.28,0,0,1-.36.07l-1.23-.71a.28.28,0,0,1-.12-.35l.94-2.39a7.69,7.69,0,0,1-.84-.85L9,27a.28.28,0,0,1-.35-.12l-.71-1.23A.28.28,0,0,1,8,25.3l2-1.6a7.6,7.6,0,0,1-.31-1.15l-2.54-.38a.28.28,0,0,1-.24-.28v-.71a.28.28,0,1,1,.56,0v.47L10,22a.28.28,0,0,1,.24.24,7,7,0,0,0,.38,1.44.28.28,0,0,1-.09.32l-2,1.57L9,26.4l2.36-.93a.28.28,0,0,1,.32.08,7.09,7.09,0,0,0,1.05,1.05.28.28,0,0,1,.09.32l-.93,2.36.81.47,1.57-2a.28.28,0,0,1,.32-.09,6.83,6.83,0,0,0,1.43.38.28.28,0,0,1,.24.24l.38,2.5h.94l.38-2.5a.28.28,0,0,1,.24-.24,6.85,6.85,0,0,0,1.43-.38.28.28,0,0,1,.32.09l1.58,2,.81-.47-.93-2.36a.28.28,0,0,1,.09-.32,7.14,7.14,0,0,0,1.05-1.05.28.28,0,0,1,.32-.08l2.36.93.47-.81-2-1.58a.28.28,0,0,1-.09-.32A6.58,6.58,0,0,0,24,22.26a.28.28,0,0,1,.24-.24l2.5-.38v-.47a.28.28,0,1,1,.56,0v.71a.28.28,0,0,1-.24.28l-2.54.38a7.09,7.09,0,0,1-.31,1.15l2,1.6a.28.28,0,0,1,.07.36l-.71,1.23a.28.28,0,0,1-.35.12l-2.39-.94a7.73,7.73,0,0,1-.84.85L23,29.31a.28.28,0,0,1-.12.35l-1.23.71a.28.28,0,0,1-.36-.07l-1.6-2a7.42,7.42,0,0,1-1.15.31l-.38,2.54A.28.28,0,0,1,17.84,31.37Zm-.71-6.28a3.93,3.93,0,0,1-3.92-3.92.28.28,0,1,1,.56,0,3.36,3.36,0,1,0,6.72,0,.28.28,0,1,1,.56,0A3.93,3.93,0,0,1,17.12,25.1Z"/><path class="cls-1" d="M30.13,21.45h-26a.28.28,0,0,1,0-.56h26a.28.28,0,1,1,0,.56Z"/><path class="cls-1" d="M22,9.52H8.27a.28.28,0,0,1,0-.56H22a.28.28,0,0,1,0,.56Z"/><path class="cls-1" d="M26,9.52H23.74a.28.28,0,0,1,0-.56H26a.28.28,0,0,1,0,.56Z"/><path class="cls-1" d="M19.11,11.73H8.27a.28.28,0,0,1,0-.56H19.11a.28.28,0,0,1,0,.56Z"/><path class="cls-1" d="M26,11.73H23.74a.28.28,0,0,1,0-.56H26a.28.28,0,0,1,0,.56Z"/><path class="cls-1" d="M22.09,11.73H20.53a.28.28,0,0,1,0-.56h1.56a.28.28,0,1,1,0,.56Z"/><path class="cls-1" d="M26,13.74H15.13a.28.28,0,1,1,0-.56H26a.28.28,0,1,1,0,.56Z"/><path class="cls-1" d="M10.51,13.74H8.27a.28.28,0,0,1,0-.56h2.24a.28.28,0,0,1,0,.56Z"/><path class="cls-1" d="M13.72,13.74H12.16a.28.28,0,1,1,0-.56h1.56a.28.28,0,1,1,0,.56Z"/><path class="cls-1" d="M26,15.92H12.41a.28.28,0,0,1,0-.56H26a.28.28,0,0,1,0,.56Z"/><path class="cls-1" d="M10.51,15.92H8.27a.28.28,0,0,1,0-.56h2.24a.28.28,0,0,1,0,.56Z"/><path class="cls-1" d="M19.11,18H8.28a.28.28,0,0,1,0-.56H19.11a.28.28,0,0,1,0,.56Z"/><path class="cls-1" d="M26,18H23.74a.28.28,0,0,1,0-.56H26A.28.28,0,0,1,26,18Z"/><path class="cls-1" d="M22.09,18H20.53a.28.28,0,0,1,0-.56h1.56a.28.28,0,1,1,0,.56Z"/></svg>