<svg id="Layer_1" data-name="Layer 1" xmlns="http://www.w3.org/2000/svg" viewBox="0 0 36.45 35.69"><defs><style>.cls-1{fill:#006991;}</style></defs><title>Artboard 44</title><path class="cls-1" d="M6.56,35.69A6.59,6.59,0,0,1,.37,31.31a6.47,6.47,0,0,1,.37-5.17,6.52,6.52,0,0,1,4.05-3.3,6.55,6.55,0,0,1,8.15,4.84c0,.15.06.31.09.49l0,.11h5.71l-.65-.77a.25.25,0,0,1,.31-.38L21.7,29a.25.25,0,0,1,0,.44l-3.3,1.74a.25.25,0,0,1-.31-.38l.68-.8H18c-1.66,0-3.23,0-4.79,0a1.85,1.85,0,0,0-.25.58,6.6,6.6,0,0,1-6.08,5.1Zm0-12.6a6.1,6.1,0,0,0-5.39,3.28,6,6,0,0,0-.34,4.78,6.06,6.06,0,0,0,11.63-.67c0-.1.25-.95.67-1,1.59,0,3.18,0,4.87,0h1.31a.25.25,0,0,1,.19.41l-.18.22,1.73-.92-1.65-.93.1.11a.25.25,0,0,1-.19.41H12.85a.25.25,0,0,1-.25-.21l-.05-.32c0-.17-.05-.32-.08-.46a6.07,6.07,0,0,0-5.88-4.71Z"/><path class="cls-1" d="M6.49,13.09q-.36,0-.73,0a6.54,6.54,0,1,1,7.16-8c.13.58.29.66.8.65,1.28,0,2.56,0,3.92,0h1.16L18.14,5a.25.25,0,0,1,.3-.39l3.19,1.7a.25.25,0,0,1,.13.22.25.25,0,0,1-.12.22l-3.26,1.9a.25.25,0,0,1-.32-.06.25.25,0,0,1,0-.32l.76-.92H13.09v0c0,.13-.07.24-.1.36A6.47,6.47,0,0,1,6.49,13.09ZM6.6.5a5.47,5.47,0,0,0-.73,0,6,6,0,0,0-.07,12,6,6,0,0,0,6.69-4.87c0-.13.06-.26.11-.41l.06-.21a.25.25,0,0,1,.24-.18h6.45a.25.25,0,0,1,.19.41l-.2.24,1.65-1-1.5-.8.05.06a.25.25,0,0,1-.18.42H17.63c-1.35,0-2.63,0-3.91,0h-.06c-.74,0-1.06-.28-1.23-1A6.09,6.09,0,0,0,6.6.5Z"/><path class="cls-1" d="M29.89,35.69a6.46,6.46,0,0,1-5.13-2.51,6.65,6.65,0,0,1-1.13-6h0a6.32,6.32,0,0,1,4.46-4.39A6.67,6.67,0,0,1,33.95,24a6.49,6.49,0,0,1,2.5,5.25,6.62,6.62,0,0,1-6.36,6.45Zm0-12.59a6.58,6.58,0,0,0-1.67.22,5.81,5.81,0,0,0-4.1,4h0a6.15,6.15,0,0,0,1,5.51,6,6,0,0,0,4.92,2.31,6.11,6.11,0,0,0,5.87-6,6,6,0,0,0-2.31-4.85A6.05,6.05,0,0,0,29.89,23.1Zm-6,4.2h0Z"/><path class="cls-1" d="M29.89,13.1a7.1,7.1,0,0,1-1.82-.24h0a6.32,6.32,0,0,1-4.45-4.4,6.63,6.63,0,0,1,1.21-6,6.54,6.54,0,0,1,11.6,3.75,6.53,6.53,0,0,1-6.54,6.93Zm-1.69-.72a6.14,6.14,0,0,0,5.53-1.14,6,6,0,0,0,2.2-5A6,6,0,0,0,25.23,2.73a6.13,6.13,0,0,0-1.12,5.59,5.81,5.81,0,0,0,4.09,4Z"/><path class="cls-1" d="M12.5,23.76a.25.25,0,0,1-.23-.34l1.38-3.49a.25.25,0,0,1,.48.09v1.1l11.09-9.35a.25.25,0,0,1,.35,0l.72.86a.25.25,0,0,1,0,.35l-11,9.32,1.07.2a.25.25,0,0,1,0,.49l-3.75.74Zm1.13-2.43-.73,1.84,2-.4-.3-.06a.25.25,0,0,1-.12-.44l11.25-9.5-.4-.47L14,21.84a.25.25,0,0,1-.41-.19Z"/><g id="_Group_" data-name="&lt;Group&gt;"><path class="cls-1" d="M5.14,9A.25.25,0,0,1,5,8.9L4.21,7.6a.24.24,0,0,1,0-.19.25.25,0,0,1,.11-.15.25.25,0,0,1,.13,0,.25.25,0,0,1,.22.12l.59,1L9,4.59a.25.25,0,0,1,.18-.07.25.25,0,0,1,.25.25.25.25,0,0,1-.07.18l-4,4A.25.25,0,0,1,5.18,9Z"/></g><g id="_Group_2" data-name="&lt;Group&gt;"><path class="cls-1" d="M28.71,8.21a.25.25,0,0,1-.18-.12l-.75-1.3a.24.24,0,0,1,0-.19.25.25,0,0,1,.11-.15.25.25,0,0,1,.13,0,.25.25,0,0,1,.22.12l.59,1,3.77-3.78a.25.25,0,0,1,.18-.07A.25.25,0,0,1,33,4a.25.25,0,0,1-.07.18l-4,4a.25.25,0,0,1-.18.07Z"/></g><g id="_Group_3" data-name="&lt;Group&gt;"><path class="cls-1" d="M5.14,31.18A.25.25,0,0,1,5,31.06l-.75-1.3a.24.24,0,0,1,0-.19.25.25,0,0,1,.11-.15.25.25,0,0,1,.13,0,.25.25,0,0,1,.22.12l.59,1L9,26.75a.25.25,0,0,1,.18-.07.25.25,0,0,1,.25.25.25.25,0,0,1-.07.18l-4,4a.25.25,0,0,1-.18.07Z"/></g></svg>