<svg id="Layer_1" data-name="Layer 1" xmlns="http://www.w3.org/2000/svg" xmlns:xlink="http://www.w3.org/1999/xlink" viewBox="0 0 603.31 501.38"><defs><style>.cls-1{fill:none;}.cls-2{clip-path:url(#clip-path);}.cls-3{fill:#324148;}.cls-4,.cls-5{opacity:0.2;}.cls-4{fill:url(#Degradado_sin_nombre_71);}.cls-6{fill:url(#linear-gradient);}.cls-7{fill:url(#linear-gradient-2);}.cls-8{fill:url(#linear-gradient-3);}.cls-9{fill:url(#linear-gradient-4);}.cls-10{fill:url(#linear-gradient-5);}.cls-11{fill:url(#linear-gradient-6);}.cls-12{fill:url(#linear-gradient-7);}.cls-13{fill:url(#linear-gradient-8);}.cls-14{fill:url(#linear-gradient-9);}.cls-15{fill:url(#linear-gradient-10);}.cls-16{fill:url(#linear-gradient-11);}.cls-17{fill:url(#linear-gradient-12);}.cls-18{fill:url(#linear-gradient-13);}.cls-19{fill:url(#linear-gradient-14);}.cls-20{fill:url(#linear-gradient-15);}.cls-21{fill:url(#linear-gradient-16);}.cls-22{fill:url(#linear-gradient-17);}</style><clipPath id="clip-path"><rect class="cls-1" width="603.31" height="501.38"/></clipPath><linearGradient id="Degradado_sin_nombre_71" x1="1672.24" y1="-5966.79" x2="2043.85" y2="-5966.79" gradientTransform="translate(-5718.23 -1290.08) rotate(89.64)" gradientUnits="userSpaceOnUse"><stop offset="0" stop-color="#6b99ef"/><stop offset="1" stop-color="#fffbff"/></linearGradient><linearGradient id="linear-gradient" x1="-262.44" y1="-5058.91" x2="-177.2" y2="-5058.91" gradientTransform="matrix(0.29, -0.96, 1.21, 0.37, 6773.65, 1720.75)" gradientUnits="userSpaceOnUse"><stop offset="0" stop-color="#fffbff"/><stop offset="1"/></linearGradient><linearGradient id="linear-gradient-2" x1="-249.27" y1="-5058.22" x2="-180.04" y2="-5058.22" xlink:href="#linear-gradient"/><linearGradient id="linear-gradient-3" x1="-236.41" y1="-5057.53" x2="-182.54" y2="-5057.53" xlink:href="#linear-gradient"/><linearGradient id="linear-gradient-4" x1="-224.01" y1="-5056.85" x2="-184.96" y2="-5056.85" xlink:href="#linear-gradient"/><linearGradient id="linear-gradient-5" x1="-219.43" y1="-5056.17" x2="-186.5" y2="-5056.17" xlink:href="#linear-gradient"/><linearGradient id="linear-gradient-6" x1="-222.24" y1="-5055.5" x2="-172.34" y2="-5055.5" xlink:href="#linear-gradient"/><linearGradient id="linear-gradient-7" x1="-226.3" y1="-5054.83" x2="-158.18" y2="-5054.83" xlink:href="#linear-gradient"/><linearGradient id="linear-gradient-8" x1="-230.74" y1="-5054.12" x2="-144.02" y2="-5054.12" xlink:href="#linear-gradient"/><linearGradient id="linear-gradient-9" x1="-235.41" y1="-5053.4" x2="-129.86" y2="-5053.4" xlink:href="#linear-gradient"/><linearGradient id="linear-gradient-10" x1="-240.21" y1="-5052.67" x2="-115.69" y2="-5052.67" xlink:href="#linear-gradient"/><linearGradient id="linear-gradient-11" x1="-245.08" y1="-5051.95" x2="-101.53" y2="-5051.95" xlink:href="#linear-gradient"/><linearGradient id="linear-gradient-12" x1="-250.01" y1="-5051.22" x2="-87.37" y2="-5051.22" xlink:href="#linear-gradient"/><linearGradient id="linear-gradient-13" x1="-254.97" y1="-5050.5" x2="-73.21" y2="-5050.5" xlink:href="#linear-gradient"/><linearGradient id="linear-gradient-14" x1="-260.01" y1="-5049.78" x2="-59.05" y2="-5049.78" xlink:href="#linear-gradient"/><linearGradient id="linear-gradient-15" x1="-265.01" y1="-5049.06" x2="-44.89" y2="-5049.06" xlink:href="#linear-gradient"/><linearGradient id="linear-gradient-16" x1="-270.12" y1="-5048.34" x2="-30.73" y2="-5048.34" xlink:href="#linear-gradient"/><linearGradient id="linear-gradient-17" x1="-275.22" y1="-5047.63" x2="-16.57" y2="-5047.63" xlink:href="#linear-gradient"/></defs><title>Artboard 16</title><g class="cls-2"><rect class="cls-3" width="1024.5" height="501.38"/><g class="cls-2"><path class="cls-4" d="M183,513.08a250.1,250.1,0,0,0-19.87,96.33q0,1.61,0,3.22A265.23,265.23,0,0,0,181,706.42l.82-.32A264.17,264.17,0,0,1,164,609.42a249.24,249.24,0,0,1,19.79-96C199,478,222.23,450.41,249.17,435q3.34,3,6.71,6.06c-26,16.87-48,45.3-62,81.51a258.61,258.61,0,0,0,3.68,193.77l.85-.36a257.69,257.69,0,0,1-3.67-193.07c13.94-36.12,35.87-64.46,61.84-81.2,21.59,19.23,44.5,37.18,71.84,46.14a124.93,124.93,0,0,0,45.35,6q4,0,7.91-.15,3.9.05,7.79-.14,4,.07,7.89-.11,3.94.08,7.87-.1,4,.1,8-.07,4,.11,7.9,0,4,.14,8,0h.11c2,.08,4.07.12,6.09.09l1.8-.05c1.47.07,2.93.12,4.4.13,1.25,0,2.5,0,3.77,0l2.43.11c1.94.07,3.91.08,5.89.06l.31,0c2.65.16,5.36.24,8.09.23,2.81.22,5.66.34,8.52.38,2.35.22,4.72.39,7.09.48l1.45,0c1.4.16,2.81.31,4.22.42s2.95.21,4.43.28l1.23.18q3.53.46,7.16.71,4.21.71,8.49,1.14c17.36,3.48,35.49,3.33,51.52-.49,19.39-4.62,35.19-14.36,45.71-28.18l-.74-.56c-10.38,13.65-26,23.28-45.19,27.84a119.23,119.23,0,0,1-41.71,2,137.65,137.65,0,0,0,33-3.07c22.27-4.82,41.69-15,54.69-28.61l-.64-.61c-12.87,13.5-32.13,23.57-54.24,28.36a136.36,136.36,0,0,1-41.38,2.52,157.47,157.47,0,0,0,38.11-4.76c22.34-5.53,43.56-15.7,58.2-27.89l-.54-.65c-14.55,12.12-35.64,22.22-57.87,27.72A154.71,154.71,0,0,1,501,495.65l-.46-.1-.64-.16a178.25,178.25,0,0,0,40.42-6.66c22.14-6.11,44.64-16,61.72-27.18l-.44-.67c-17,11.12-39.43,21-61.49,27.08a174.9,174.9,0,0,1-43,6.72l-2-.51a203.73,203.73,0,0,0,41.72-8.54c27.4-8.3,52.63-20.15,65.24-26.48l-.34-.68c-12.58,6.32-37.77,18.15-65.12,26.44-15.84,4.83-30.23,7.69-43.59,8.66-.79-.23-1.59-.45-2.38-.69,12.77-1.68,26.73-5.07,42.72-10.35,16.35-5.36,33.24-12,48.15-17.83,7.35-2.88,14.29-5.6,20.61-8l-.25-.67c-6.33,2.36-13.28,5.08-20.63,8-14.89,5.84-31.77,12.46-48.11,17.81-16.59,5.47-31,8.92-44.13,10.52l-2.63-.85c15.51-2.7,30.36-7.45,43.51-12.1,8-2.82,16.31-5.89,24.31-8.85,17.44-6.47,33.9-12.57,48-16.25l-.17-.66c-14.12,3.69-30.6,9.8-48.05,16.27-8,3-16.25,6-24.3,8.85-13.48,4.76-28.76,9.64-44.68,12.28-.92-.31-1.84-.64-2.76-1,15.64-3.36,30.69-8.71,44.2-13.77l10-3.74C559.34,464,583,455,602.3,451.89l-.1-.63c-19.35,3.16-43.05,12.08-66,20.71l-10,3.74c-13.78,5.17-29.18,10.63-45.15,14-1-.35-1.94-.72-2.91-1.08,14.63-3.7,29.24-9.23,44.82-15.38,26.15-10.27,55.78-21.91,79.38-23.74l0-.59c-23.69,1.84-53.36,13.49-79.55,23.78-15.85,6.26-30.7,11.87-45.57,15.57-1-.4-2.08-.8-3.11-1.22,15.25-4.41,30.23-10.6,44.88-16.66l.56-.23c51.59-21.25,69.86-23.05,82.93-23.07v-.56c-11.32,0-24.6,2.4-40.58,7.3C547.58,458.16,533,464,519.31,469.6l-.56.23c-14.85,6.15-30,12.42-45.5,16.84-1.06-.43-2.11-.85-3.16-1.29,14-4.54,27.78-10.49,41.25-16.32l4.71-2c50-21.49,71.77-23.38,86.48-22.39l0-.51c-12-.81-26,1.14-42.59,6-15.87,4.6-31.92,11.22-44.14,16.47l-4.71,2c-13.63,5.91-27.56,11.94-41.76,16.49l-3.25-1.4c13-4.63,25.76-10.39,38.26-16.06l8.19-3.7c26.93-12,61.5-25.38,90-21.72l.06-.47c-12.75-1.63-27.34-.12-44.59,4.63C545,450,530.46,455.4,512.38,463.47l-8.19,3.7c-12.64,5.73-25.54,11.56-38.7,16.21-1.1-.49-2.19-1-3.28-1.49,12.14-4.69,24-10.31,35.7-15.83,3.67-1.74,7.46-3.53,11.19-5.26,53-24.54,78.82-23.76,93.62-21l.08-.43c-13.44-2.47-28.68-1.39-46.59,3.29-13.89,3.63-28.92,9.28-47.29,17.79-3.74,1.73-7.53,3.53-11.2,5.26-11.79,5.58-23.8,11.26-36.07,16l-3.36-1.57c11.39-4.72,22.54-10.21,33.49-15.61,4.53-2.23,9.22-4.55,13.85-6.76,26-12.42,64.35-28.05,97.19-20.38l.09-.38c-33-7.71-71.4,8-97.45,20.4-4.62,2.22-9.31,4.53-13.85,6.76-11.05,5.45-22.31,11-33.8,15.73l-3.41-1.64c10.71-4.74,21.21-10.11,31.53-15.4,5.31-2.72,10.8-5.53,16.22-8.2,18.82-9.27,35.29-15.51,50.36-19.08,18.91-4.48,35.87-4.69,50.4-.63l.1-.34c-14.59-4.08-31.61-3.87-50.58.62-15.1,3.58-31.59,9.83-50.44,19.1-5.42,2.67-10.91,5.49-16.22,8.21-10.4,5.33-21,10.74-31.78,15.51l-3.48-1.72c10.12-4.73,20-10,29.78-15.17,6-3.19,12.23-6.5,18.38-9.61,42.77-21.64,76.9-27.86,104.34-19l.1-.3c-27.53-8.86-61.74-2.62-104.58,19.05-6.15,3.11-12.37,6.42-18.39,9.61-9.82,5.22-19.81,10.51-30,15.27l-3.51-1.78c9.56-4.71,18.94-9.86,28.17-14.93,6.67-3.66,13.56-7.45,20.38-11,19.64-10.19,37.15-16.86,53.51-20.39,20.24-4.37,38.55-3.68,54.41,2l.09-.25c-15.91-5.73-34.26-6.42-54.56-2-16.39,3.53-33.92,10.21-53.58,20.42-6.82,3.54-13.72,7.33-20.39,11-9.29,5.1-18.73,10.28-28.35,15l-3.56-1.85c9.05-4.67,17.93-9.7,26.71-14.67,7.27-4.12,14.79-8.38,22.23-12.34,20.07-10.66,38.09-17.55,55.09-21,20.92-4.31,39.9-3.18,56.42,3.36l.09-.22c-16.56-6.56-35.59-7.69-56.55-3.37-17,3.51-35.06,10.4-55.15,21.07-7.45,4-15,8.22-22.24,12.34-8.82,5-17.75,10.06-26.85,14.74-6.65-3.49-13.23-7.08-19.74-10.65-7.37-4-15-8.21-22.56-12.12-14-7.23-31.6-15.45-50.86-20.61q-7-2.45-13.79-4.2-5.52-1.87-10.89-3.32-7-2.45-13.76-4.22-5.49-1.88-10.86-3.34-6.23-2.21-12.33-3.88-6.39-2.29-12.66-4-5.94-2.14-11.8-3.78-6.42-2.37-12.75-4.16-6.27-2.33-12.46-4.11-6.28-2.37-12.5-4.19-6.34-2.43-12.62-4.32-6.44-2.52-12.84-4.48-6.4-2.55-12.75-4.56-6.33-2.58-12.62-4.63-6.59-2.76-13.14-5c-4.34-1.86-8.67-3.57-13-5.08a200.55,200.55,0,0,0-29.49-10.44A166.26,166.26,0,0,0,62.65,346c-19.76,1.73-37.84,7.16-53.75,16.16C-6,370.6-19.44,382.43-31.18,397.35A194.24,194.24,0,0,0-58,444.18C-71.61,477.6-77.61,513.73-83.4,548.67l.23,0c5.8-34.92,11.79-71,25.41-104.43A194,194,0,0,1-31,397.49c11.72-14.9,25.18-26.71,40-35.1,15.88-9,33.93-14.41,53.65-16.13a166,166,0,0,1,56.39,5.1A198.73,198.73,0,0,1,146,360.7c-1-.34-2-.69-3-1-4.82-1.51-9.71-2.83-14.53-3.92-38.66-8.72-78.26-2.95-108.65,15.83-14.34,8.86-27.29,21-38.48,35.95A194.65,194.65,0,0,0-44.16,454.5c-12.34,32.21-17.59,66.16-22.72,104l.27,0c5.13-37.83,10.38-71.77,22.71-104a194.44,194.44,0,0,1,25.43-46.88c11.17-15,24.09-27,38.4-35.88,30.33-18.74,69.86-24.5,108.44-15.8,4.81,1.08,9.7,2.4,14.51,3.91,2,.64,4.08,1.33,6.13,2.06q2.43,1.08,4.85,2.23l-1.46-.43c-4.86-1.35-9.79-2.49-14.65-3.39-38.1-7.08-77.13.43-107.08,20.61A144.22,144.22,0,0,0-6.2,417.76a195.44,195.44,0,0,0-24.14,47.07c-12,33.41-16.45,69.47-20,103.54l.31,0c3.57-34.05,8.05-70.09,20-103.47a195.14,195.14,0,0,1,24.1-47,143.92,143.92,0,0,1,36.79-36.65c29.88-20.14,68.82-27.63,106.85-20.56,4.85.9,9.77,2,14.62,3.38,1.11.31,2.22.65,3.33,1q2.61,1.26,5.22,2.6c-4.57-1.08-9.21-2-13.79-2.63-37.57-5.51-76,3.75-105.51,25.39A148.35,148.35,0,0,0,6.3,428a196.59,196.59,0,0,0-22.81,47.19c-11.54,34.65-15,71.37-17.31,103.07l.35,0c2.33-31.68,5.77-68.38,17.29-103A196.26,196.26,0,0,1,6.59,428.15a148,148,0,0,1,35.18-37.41c29.41-21.59,67.77-30.82,105.25-25.33,4.9.71,9.85,1.67,14.73,2.85l.4.1q2.75,1.44,5.5,3c-3.75-.68-7.53-1.23-11.26-1.63A143.2,143.2,0,0,0,52.45,399.88a152.91,152.91,0,0,0-33.66,38.26A198.07,198.07,0,0,0-2.7,485.47C-13.24,519.7-16,556.54-17.3,588.07l.39,0c1.31-31.5,4.06-68.32,14.59-102.51a197.69,197.69,0,0,1,21.44-47.23,152.54,152.54,0,0,1,33.57-38.17A142.81,142.81,0,0,1,156.35,370.1c4.11.44,8.27,1.06,12.39,1.85l2.32,1.31q1.65,1,3.31,1.95c-2.89-.37-5.79-.66-8.67-.86a137.73,137.73,0,0,0-54.64,7.34A144.18,144.18,0,0,0,63.33,409.3c-23.72,20.61-42.26,51.32-52.21,86.49C1.07,531.33-.52,569-.78,597.93h.43c.26-28.86,1.85-66.54,11.89-102,9.93-35.09,28.42-65.73,52.07-86.28A143.73,143.73,0,0,1,111.2,382.1a137.29,137.29,0,0,1,54.47-7.32c3.2.22,6.42.55,9.63,1q2.85,1.72,5.71,3.54c-2-.15-4-.26-6-.32a134,134,0,0,0-54.28,9.81,147.68,147.68,0,0,0-46.52,29.93c-22.79,21.53-40.29,52.57-49.27,87.39-4.25,16.47-9.67,43.39-9.37,90.56q0,5.37.17,11.1h.47c-.62-25.89-.35-64.59,9.18-101.54,9-34.73,26.41-65.69,49.14-87.16a147.19,147.19,0,0,1,46.37-29.83A133.58,133.58,0,0,1,175,379.46c2.27.07,4.56.2,6.85.38q2.89,1.85,5.78,3.81c-1.1,0-2.21,0-3.31,0a130.88,130.88,0,0,0-53.93,12.28,151.44,151.44,0,0,0-45.3,32.25C63.25,450.61,46.79,482,38.77,516.44c-5.15,22.13-7.57,46.13-7.39,74.11.05,8.63.36,17.64.9,27.09l.52,0c-2.31-40-.25-72.15,6.48-101.05,8-34.39,24.41-65.66,46.2-88a150.91,150.91,0,0,1,45.15-32.14,130.38,130.38,0,0,1,53.72-12.23c1.36,0,2.72,0,4.09,0q2.92,2,5.84,4.08l-.62,0c-36,1.64-70.67,19.15-97.66,49.31-20.89,23.35-36.3,55-43.39,89.18-4,19.15-5.88,39.86-5.74,62.66.08,12.08.73,24.75,2,38.08l.56-.05c-3.53-38.44-2.3-71.33,3.77-100.57,7.08-34.07,22.44-65.65,43.26-88.92,26.89-30.05,61.43-47.5,97.27-49.13l1.33,0q2.94,2.11,5.88,4.33c-35,3.52-68.29,22.59-94,53.9-20.19,24.57-34.18,55.72-40.45,90.07A283.63,283.63,0,0,0,62,590a396.58,396.58,0,0,0,3.31,47.33l.59-.08C61.18,599.87,61.53,567.13,67,537.2c6.25-34.26,20.2-65.31,40.33-89.8C133.11,416,166.53,397,201.58,393.65q3,2.25,5.93,4.59c-33.77,5.49-65.49,26-89.77,58.21-19.18,25.43-32.15,56.89-37.52,91A275.46,275.46,0,0,0,77,592a359.55,359.55,0,0,0,4.83,55.21l.63-.1c-5.83-35.93-6.38-69.44-1.63-99.6,5.35-34,18.28-65.34,37.39-90.68,24.32-32.25,56.12-52.73,89.94-58.06q3,2.38,6,4.86c-32.58,7.38-62.73,29.24-85.53,62.25-18.14,26.26-30.1,58-34.57,91.86a268.8,268.8,0,0,0-2.25,37,331.8,331.8,0,0,0,6.59,62.37L99,657c-6.95-35-8.4-68.35-4.33-99.11,4.46-33.74,16.38-65.4,34.46-91.57,22.83-33,53-54.87,85.63-62.09l2.46,2.07c1.18,1,2.35,2,3.52,3.05-31.41,9.18-60,32.29-81.29,66-17.09,27-28,59.12-31.63,92.76a264.83,264.83,0,0,0-1.48,29.9,310,310,0,0,0,8.52,69l.7-.17c-8-34.11-10.39-67.29-7-98.63,3.59-33.53,14.5-65.5,31.53-92.45,21.32-33.74,49.92-56.8,81.33-65.84q3.06,2.67,6.11,5.39c-30,10.95-57.65,35.66-77.17,69.51-16,27.8-25.95,60.19-28.69,93.65q-.94,11.5-.87,23.18a292.86,292.86,0,0,0,10.62,75.23l.73-.2c-9.07-33.25-12.34-66.27-9.73-98.14,2.73-33.35,12.62-65.63,28.59-93.33,19.51-33.84,47.14-58.49,77.16-69.31q3.11,2.79,6.19,5.6c-29,12.58-55.07,38.34-73.13,72.77a233.34,233.34,0,0,0-25.75,94.55q-.45,8-.4,16.09A283.88,283.88,0,0,0,148,686.68l.77-.24a279.43,279.43,0,0,1-12.43-97.65A232.55,232.55,0,0,1,162,494.57c18-34.4,44.12-60.1,73.07-72.55l6.32,5.79c-28,14.12-52.59,40.87-69.22,75.83a241.58,241.58,0,0,0-22.81,95.44q-.15,4.8-.12,9.64a273.42,273.42,0,0,0,15.3,87.83l.8-.28a271.07,271.07,0,0,1-15.13-97.17A240.75,240.75,0,0,1,172.89,504c16.61-34.92,41.21-61.59,69.12-75.59l6.48,5.93C221.48,449.91,198.25,477.6,183,513.08Zm66.37-78.24c1.68-1,3.37-1.86,5.07-2.72q3.22,2.91,6.47,5.81c-1.63.94-3.25,1.91-4.85,2.95Q252.71,437.88,249.38,434.85Zm-73.27-61.32q2.63.63,5.27,1.37,2.43,1.12,4.87,2.32-2.54-.54-5.07-1Q178.65,374.84,176.12,373.53Zm-1.35-.71c-1.52-.77-3-1.52-4.55-2.25q2.41.72,4.83,1.52c1.44.61,2.88,1.22,4.32,1.87Q177.06,373.36,174.77,372.82Zm280.94,111q-1.71.6-3.42,1.18c-1.08-.42-2.16-.87-3.24-1.32q1.73-.64,3.46-1.31c.92.42,1.84.85,2.76,1.25ZM485,493.92h-1l-1.25-.23,1.06-.09,1.1.29Zm-277.95-108q2.61,1.39,5.22,2.86c-1.11-.11-2.22-.21-3.32-.3l-2-.11q-2.69-1.66-5.38-3.23Q204.36,385.47,207.09,385.91Zm-6.56-1.43q-2.59-1.49-5.17-2.91,2.65.47,5.32,1,2.52,1.24,5,2.55Q203.11,384.78,200.53,384.48Zm246.82,99.43c-1.14.41-2.28.8-3.42,1.19-1.08-.41-2.16-.85-3.24-1.29q1.72-.64,3.43-1.31,1.61.72,3.23,1.41Zm-34.8,8.8.73-.08,1,.1-.44,0ZM259.22,421.54c1.79-.54,3.6-1,5.41-1.45q2.86,2.29,5.7,4.64c-.75.23-1.5.46-2.25.71-1,.34-2,.7-3,1.08Q262.15,424,259.22,421.54Zm-33.14-24.83q-2.69-1.74-5.38-3.4,2.71.17,5.44.45,2.61,1.47,5.22,3c-1.18,0-2.35-.09-3.52-.1Zm1.76.63c1.56,0,3.12.08,4.69.16q2.67,1.61,5.35,3.32h-.61c-1.58,0-3.16.1-4.74.2q-2.73-1.88-5.47-3.67Zm229.22,95.17,1.23-.14,1.4.25-1.11.06ZM246.69,404.93c-.57,0-1.14.08-1.71.11q-2.69-1.83-5.37-3.56,2.68,0,5.39.13,2.61,1.56,5.23,3.21C249,404.84,247.86,404.87,246.69,404.93Zm0,.72c1.53-.07,3.07-.11,4.62-.12q2.66,1.69,5.33,3.48l-.57,0c-1.58.12-3.15.29-4.73.49q-2.72-2-5.44-3.83Zm10.67,0q2.56,1.51,5.12,3.1-2.59,0-5.13.22-2.62-1.76-5.24-3.44Q254.75,405.52,257.4,405.64Zm12.35,4q2.49,1.45,5,3-2.53.06-5,.23-2.56-1.7-5.12-3.32C266.3,409.48,268,409.52,269.75,409.6ZM282,413.44q2.46,1.41,4.93,2.91c-1.65,0-3.29.12-4.92.23q-2.53-1.66-5-3.23C278.63,413.33,280.31,413.37,282,413.44Zm12.27,3.83q2.38,1.35,4.76,2.77c-1.61,0-3.2.12-4.79.23q-2.46-1.59-4.92-3.11C291,417.15,292.6,417.19,294.26,417.26ZM306.41,421q2.41,1.35,4.83,2.77-2.37,0-4.74.19-2.45-1.56-4.89-3.06C303.19,420.88,304.8,420.91,306.41,421Zm137.11,70.33-1.27.17c-.9-.14-1.8-.28-2.7-.44.84-.16,1.68-.31,2.52-.48.85.2,1.69.38,2.54.57Zm-11.38-.85c-.68.13-1.36.25-2,.37q-1.44-.27-2.88-.57,1.4-.31,2.79-.66c1,.25,1.91.47,2.87.7Zm-11.38-.85c-.85.2-1.7.38-2.56.57q-1.54-.32-3.07-.69h0c1-.26,2-.54,3-.82q1.52.44,3,.83ZM271.06,418.73q2-.35,4-.62l1.32-.16q2.64,1.87,5.29,3.82l.13.09c-1.75.33-3.5.7-5.24,1.12-1.78-1.4-3.57-2.79-5.36-4.15ZM265.62,414c1.47-.16,2.94-.27,4.42-.37q2.65,1.77,5.31,3.64l-.4,0c-1.6.22-3.21.48-4.81.78q-2.71-2-5.42-4Zm18.76,7.43c-.65.11-1.29.24-1.94.36l-.48-.36q-2.44-1.8-4.87-3.52,2.6-.3,5.23-.47,2.61,1.72,5.23,3.53C286.48,421.06,285.43,421.22,284.38,421.39Zm-1.62,1.2q2.75,2,5.48,4.16-2.6.65-5.18,1.45-2.79-2.27-5.6-4.5Q280.1,423.06,282.76,422.58Zm.64-.12,1.12-.21c1.37-.22,2.74-.41,4.12-.58,1.26.88,2.51,1.76,3.77,2.67l1.54,1.12-.15,0c-1.67.32-3.32.69-5,1.1Q286.12,424.5,283.4,422.46ZM426.85,488q-1.6-.46-3.19-1c1.09-.35,2.17-.72,3.26-1.09,1.05.39,2.1.75,3.16,1.11C429,487.39,427.93,487.7,426.85,488Zm3.79-.76c1,.34,2,.67,3.05,1-1,.28-2,.56-3.07.81-1-.27-2.09-.57-3.13-.87Q429.07,487.73,430.64,487.25Zm-7.5-.38c-1.1-.36-2.2-.72-3.3-1.1q1.7-.59,3.38-1.22l.35.14c1,.38,1.92.73,2.88,1.08C425.35,486.15,424.25,486.52,423.14,486.87Zm-1.13.35c-1.08.33-2.16.66-3.24,1-1.09-.31-2.18-.63-3.27-1,1.11-.36,2.23-.72,3.34-1.1Q420.42,486.69,422,487.21Zm-4.44,1.3c-.83.23-1.66.47-2.49.68l-.6.15q-1.62-.39-3.23-.83c1.07-.31,2.14-.62,3.21-1C415.49,487.88,416.53,488.21,417.57,488.51Zm-2.52-1.43c-1.1-.35-2.2-.71-3.3-1.09q1.71-.6,3.41-1.23l.49.2c.93.36,1.86.68,2.79,1C417.31,486.35,416.18,486.72,415.05,487.08Zm-1,.33c-1.09.34-2.18.65-3.27,1q-1.65-.45-3.29-1,1.67-.53,3.33-1.1Q412.39,486.89,414,487.41Zm-4.36,1.28-.26.08c-1,.26-1.91.5-2.86.74q-1.64-.38-3.28-.81,1.6-.46,3.2-1Q408,488.24,409.65,488.69Zm-6.84-.1c-3.64-1-7.23-2.09-10.76-3.38-23.73-8.67-44.11-24.61-63.82-40-8-6.29-16.35-12.79-24.78-18.7l-1.81-1.26c1.6-.19,3.29-.34,5-.46q3.58,2.3,7.19,4.75c8.34,5.7,16.57,12,24.54,18,19,14.49,38.69,29.47,61.37,37.9q3.12,1.16,6.27,2.15Q404.44,488.12,402.81,488.59Zm-99.67-61.65c8.41,5.91,16.72,12.4,24.75,18.68,19.74,15.44,40.16,31.4,64,40.11,3.25,1.19,6.56,2.24,9.91,3.15q-1.57.44-3.16.84a122.62,122.62,0,0,1-14.51-4.22c-24.88-8.95-46-25.89-66.47-42.27-7.15-5.73-14.51-11.62-22-17.13q2.43-.42,5.15-.77Zm-8.49-1.59-1.94-1.42q-1.65-1.19-3.3-2.35,2.55-.29,5.14-.46,2.59,1.68,5.18,3.45C298,424.79,296.34,425.05,294.65,425.36Zm-.69,1.05,1-.18c7.59,5.59,15.08,11.59,22.35,17.41C337.8,460,359,477,383.94,486a123,123,0,0,0,13.58,4q-1.51.37-3,.71a122.05,122.05,0,0,1-18.32-4.91c-26.06-9.22-48-27.2-69.18-44.57-5.64-4.62-11.41-9.35-17.25-13.91C291.14,427,292.55,426.68,294,426.41Zm104,63.71q1.54.35,3.1.67c-1,.2-1.92.38-2.87.57q-1.58-.25-3.16-.53Q396.54,490.48,398,490.11Zm1.12-.28q1.55-.4,3.08-.83,1.57.42,3.15.81c-1,.25-2,.47-3,.69Q400.74,490.19,399.13,489.83Zm6.81.11q1.5.35,3,.67c-.93.2-1.86.39-2.78.57q-1.57-.25-3.14-.55C404,490.41,405,490.19,405.94,489.94Zm1.17-.3c.79-.2,1.57-.39,2.36-.61l.68-.2c1,.28,2,.55,3.07.81-1,.24-1.94.47-2.9.69Q408.7,490,407.11,489.64Zm6.76.16q1.48.36,3,.69c-.92.19-1.83.36-2.74.53q-1.51-.25-3-.54C412,490.27,412.94,490,413.87,489.8Zm5.48-1.46c1.06-.31,2.12-.64,3.18-1,1,.33,2.05.67,3.08,1-1,.29-2.08.55-3.13.82C421.44,488.91,420.39,488.63,419.35,488.35Zm6.91.2c1,.29,2,.58,3,.84-.92.22-1.85.45-2.77.65l-.14,0q-1.55-.34-3.1-.71C424.23,489.09,425.24,488.82,426.26,488.54Zm5.18.71q1.5-.38,3-.79c1,.29,1.94.59,2.91.87-1,.23-1.94.44-2.91.65C433.42,489.75,432.42,489.5,431.43,489.25Zm6.77.3q1.39.38,2.78.73c-.88.18-1.77.35-2.65.51-1-.19-1.93-.38-2.89-.59C436.36,490,437.28,489.78,438.21,489.55Zm5.53.64c.93-.2,1.85-.4,2.77-.62.89.25,1.79.51,2.68.75l-2.69.49C445.57,490.62,444.65,490.4,443.73,490.19Zm-1.09-.24c-1-.24-2-.49-3-.75q1.48-.38,3-.78c1,.3,1.94.6,2.91.89C444.58,489.52,443.61,489.74,442.64,489.94Zm-3.85-1q-1.54-.41-3.08-.87c1-.3,2.09-.61,3.14-.93q1.51.52,3,1Q440.33,488.58,438.79,489ZM435,487.88c-1.07-.32-2.14-.65-3.21-1q1.64-.52,3.26-1.07c1,.39,2.09.76,3.14,1.13C437.15,487.26,436.08,487.58,435,487.88Zm-3.78-1.19c-1.08-.36-2.16-.72-3.24-1.11,1.12-.39,2.24-.8,3.36-1.21l.14.06c1,.41,2,.8,3.06,1.18Q432.9,486.17,431.24,486.69Zm-3.7-1.28c-1.1-.4-2.21-.81-3.31-1.24q1.74-.66,3.46-1.34,1.61.7,3.24,1.37C429.8,484.61,428.67,485,427.54,485.41ZM423.84,484h0c-1.11-.44-2.21-.89-3.3-1.36q1.78-.72,3.54-1.47,1.63.76,3.27,1.48Q425.6,483.37,423.84,484Zm-1,.37c-1.14.42-2.27.82-3.42,1.22-1.11-.39-2.22-.79-3.33-1.22q1.75-.66,3.48-1.36Q421.22,483.74,422.86,484.4Zm-7.07-.12c-20.36-7.89-38.5-20.91-56-33.5-7.8-5.6-15.87-11.39-24-16.65q-7.88-5.08-15.62-9.39,2.16.13,4.43.35,10.62,5.37,21.55,12.2c8,5,16,10.53,23.67,15.87,15.66,10.86,31.82,22.06,49.53,29.75C418.13,483.38,417,483.83,415.79,484.28ZM335.36,434.7c8.14,5.25,16.2,11,24,16.63,17.38,12.47,35.34,25.35,55.49,33.29q-1.72.64-3.44,1.24c-1.15-.4-2.3-.81-3.45-1.25-21.49-8.14-40.39-22.13-58.66-35.66-7.89-5.84-16.06-11.89-24.31-17.37q-5.58-3.71-11.14-7c1.52,0,3.09,0,4.72.11Q326.87,429.24,335.36,434.7Zm-10.74-2.59c8.24,5.48,16.4,11.51,24.29,17.35C367.21,463,386.15,477,407.72,485.21q1.35.51,2.71,1c-1.12.38-2.24.75-3.36,1.1q-3.55-1.09-7.06-2.39c-22.6-8.41-42.23-23.36-61.22-37.82-8-6.07-16.22-12.35-24.57-18.06q-3.26-2.23-6.51-4.32,2.35-.13,4.9-.16Q318.57,428.11,324.62,432.12ZM305.48,424q-2.46.18-4.92.47-2.55-1.75-5.09-3.4,2.48-.14,5-.17Q303,422.41,305.48,424Zm-12.18-3.68c-1.67.13-3.33.3-5,.51q-2.57-1.79-5.14-3.49,2.54-.14,5.11-.17Q290.79,418.7,293.3,420.32Zm-12.15-3.7q-2.56.19-5.08.51-2.63-1.85-5.25-3.6,2.58-.15,5.19-.18Q278.57,414.95,281.15,416.63Zm-12.21-3.77c-1.14.09-2.27.18-3.4.3-.59.06-1.18.15-1.77.22q-2.68-1.91-5.36-3.72,2.63-.15,5.31-.17Q266.32,411.13,268.94,412.86Zm-12.76-3.05,1.53-.1q2.71,1.83,5.43,3.76c-1.78.23-3.56.5-5.33.82q-2.76-2.1-5.52-4.1Q254.23,410,256.17,409.8Zm7.92,4.35q2.74,2,5.48,4-2.66.5-5.3,1.15-1.92-1.53-3.84-3c-.59-.46-1.17-.89-1.76-1.33Q261.39,414.47,264.09,414.15Zm6.39,4.69.45.34c1.7,1.29,3.39,2.6,5.08,3.93-1.76.44-3.51.94-5.24,1.48q-2.82-2.33-5.66-4.61C266.9,419.55,268.69,419.17,270.48,418.84Zm6.42,5q2.83,2.24,5.64,4.53-2.6.82-5.16,1.78-2.89-2.44-5.8-4.86Q274.23,424.46,276.91,423.81Zm6.51,5.24c4.25,3.47,8.45,7,12.59,10.45,22,18.42,44.74,37.47,72.07,47a122.3,122.3,0,0,0,21,5.29q-1.35.24-2.71.45a122,122,0,0,1-26.1-5.86c-28.49-9.8-52-29.91-74.77-49.36q-3.62-3.1-7.32-6.23C279.92,430.17,281.67,429.59,283.42,429Zm84.8,57.05c-27.26-9.51-50-28.53-71.94-46.93-4.06-3.4-8.19-6.86-12.36-10.27q2.6-.79,5.23-1.43c5.94,4.63,11.81,9.43,17.53,14.13C327.92,459,349.88,477,376,486.25A122.48,122.48,0,0,0,393.29,491q-1.44.31-2.88.58A121.93,121.93,0,0,1,368.22,486.1Zm25.66,5q1.48.28,3,.53c-.9.16-1.79.3-2.68.44q-1.53-.18-3.05-.4Q392.51,491.38,393.89,491.08Zm3.76.65q1.34.21,2.68.4c-.74.11-1.49.22-2.23.31h0q-1.45-.12-2.91-.28Zm1.38-.26c.91-.18,1.82-.36,2.74-.56q1.44.28,2.88.53c-.86.15-1.72.31-2.57.44Q400.55,491.7,399,491.47Zm6.54.13q1.31.22,2.62.4c-.77.11-1.53.19-2.29.29q-1.35-.12-2.69-.28Zm1.51-.28c.88-.17,1.76-.36,2.64-.55q1.42.29,2.84.55c-.87.15-1.72.28-2.58.41Q408.51,491.54,407.07,491.32Zm6.43.17,2.47.4-2.1.28q-1.32-.13-2.64-.28Zm1.6-.31,2.53-.51q1.35.29,2.7.54c-.79.14-1.58.27-2.37.39Q416.53,491.42,415.1,491.19Zm4-.83,1.78-.4,1.06-.27q1.43.36,2.86.69c-.91.19-1.81.37-2.71.54Q420.56,490.66,419.07,490.35Zm6.65.23q1.33.29,2.66.56c-.84.14-1.68.26-2.51.39q-1.36-.2-2.72-.42Zm3.83.79,2.27.41-2,.25-2.41-.29Zm1.79-.33.89-.16,1.63-.35c.87.2,1.74.38,2.61.56-.81.13-1.62.27-2.42.39Q432.69,491.28,431.34,491Zm6.45.32c.72.14,1.44.29,2.16.42l-2,.22-2.29-.3Zm6.16.39,2-.33c.73.15,1.46.29,2.18.42l-1.89.21C445.48,492,444.71,491.87,444,491.76Zm4-.67c.8-.15,1.6-.32,2.4-.48.82.21,1.64.42,2.46.61l-2.36.34C449.63,491.41,448.8,491.25,448,491.08Zm6.35.46,2.06.44-1.46.16-.39,0-2.21-.33ZM466.93,493l-.46-.05-.91-.13,1.16-.13,1.26.26Zm-4.1-.58-2.06-.34,2-.28,2,.47Zm-4-.68-2.56-.51c.82-.14,1.63-.29,2.45-.45l2.42.63C460.41,491.49,459.65,491.61,458.87,491.7Zm-4-.82q-1.37-.3-2.75-.63c.9-.19,1.81-.41,2.71-.62l2.72.78C456.65,490.58,455.75,490.74,454.86,490.89Zm-3.92-.92c-1-.25-2-.5-3-.77,1-.25,2-.49,3-.76,1,.31,1.91.61,2.87.9Q452.39,489.66,450.94,490Zm-3.87-1c-1-.29-2.06-.58-3.08-.9,1-.3,2.09-.6,3.13-.92,1,.36,2,.7,3,1Q448.61,488.56,447.07,488.94Zm-3.85-1.14c-1.06-.33-2.11-.66-3.16-1,1.09-.34,2.19-.69,3.28-1.06,1,.4,2.07.77,3.1,1.14Q444.83,487.35,443.22,487.8Zm-3.78-1.23c-1.08-.37-2.17-.74-3.25-1.14q1.69-.58,3.37-1.2c1.06.44,2.13.86,3.19,1.27Q441.1,486,439.44,486.57Zm-3.76-1.34q-1.63-.61-3.25-1.26,1.73-.65,3.45-1.33,1.6.71,3.21,1.38Q437.39,484.65,435.68,485.23ZM432,483.81l-.21-.08c-1-.42-2.07-.86-3.1-1.3q1.77-.71,3.52-1.46,1.63.77,3.27,1.5C434.32,482.92,433.16,483.37,432,483.81Zm-3.67-1.53q-1.67-.72-3.32-1.49,1.79-.77,3.57-1.58,1.64.82,3.3,1.6Q430.11,481.56,428.33,482.28Zm-3.6-1.62c-15.55-7.22-30-16.9-44.13-26.31-7.6-5.08-15.46-10.33-23.37-15.12q-12.22-7.39-24-13c1.19.2,2.41.42,3.65.65a273.55,273.55,0,0,1,30.7,15.59c7.76,4.54,15.51,9.5,23,14.3,12.15,7.79,24.62,15.77,37.74,22.31Q426.52,479.88,424.73,480.66Zm-67.89-40.78c7.89,4.78,15.75,10,23.34,15.1,13.92,9.3,28.26,18.87,43.62,26.08q-1.78.76-3.57,1.48c-17.9-7.66-34.23-19-50-30-7.7-5.34-15.67-10.87-23.7-15.89q-10.1-6.31-19.94-11.39c1.31.15,2.65.32,4,.52A270.21,270.21,0,0,1,356.83,439.88Zm-32.36-15.63q-1.89-1-3.77-1.86,1.72.27,3.46.59,1.86.79,3.73,1.63Q326.19,424.4,324.47,424.25Zm-1.94-.17q-2-.16-4.07-.24-2.16-1.18-4.31-2.31c1.37.14,2.75.32,4.13.51Q320.4,423,322.53,424.08Zm-5.6-.3c-1.5,0-3-.07-4.5-.06q-2.33-1.38-4.65-2.69c1.51.08,3,.2,4.58.33Q314.64,422.54,316.93,423.78Zm-10.85-3.7q-2.09-1.16-4.17-2.26,2.18.23,4.39.54c1.32.63,2.64,1.28,4,1.95Q308.16,420.15,306.08,420.08ZM304.7,420c-1.52,0-3,0-4.53,0-1.53-.92-3.06-1.82-4.58-2.7,1.55.08,3.12.2,4.69.34Q302.48,418.81,304.7,420ZM294,416.41c-1.48-.83-3-1.65-4.43-2.44q2.21.22,4.44.53,2.15,1,4.32,2.14C296.84,416.54,295.4,416.46,294,416.41Zm-1.3,0c-1.57,0-3.13,0-4.68,0q-2.4-1.46-4.8-2.85c1.59.08,3.19.2,4.8.34Q290.32,415.06,292.66,416.36Zm-11-3.73q-2.22-1.27-4.44-2.47,2.31.24,4.65.57c1.41.69,2.83,1.4,4.25,2.14C284.66,412.75,283.18,412.68,281.69,412.62Zm-1.21,0c-1.61,0-3.2,0-4.79,0q-2.42-1.49-4.83-2.91,2.47.13,5,.37C277.38,410.84,278.93,411.7,280.49,412.58Zm-11-3.76q-2.33-1.35-4.66-2.62,2.38.25,4.78.59,2.26,1.12,4.52,2.31Q271.76,408.92,269.45,408.82Zm-1.1,0q-2.49-.08-4.95,0-2.49-1.56-5-3,2.51.13,5.06.38Q265.91,407.39,268.35,408.78Zm-11.26-3.87q-2.4-1.4-4.79-2.74,2.44.26,4.9.61,2.33,1.17,4.67,2.42Q259.47,405,257.09,404.91Zm-1,0q-2.54-.08-5-.06-2.56-1.62-5.12-3.16,2.57.14,5.18.4Q253.58,403.42,256.08,404.87Zm-11.4-3.95q-2.47-1.46-4.93-2.85,2.5.27,5,.64,2.41,1.23,4.83,2.53Q247.13,401,244.68,400.92Zm-.92,0q-2.6-.1-5.18-.08-2.63-1.68-5.25-3.27,2.65.15,5.32.42Q241.2,399.38,243.76,400.89Zm-6.48.61h1.62q2.73,1.75,5.45,3.6c-1.79.13-3.58.28-5.37.5q-2.77-2-5.55-3.95Q235.36,401.53,237.28,401.5Zm8,4.25q2.75,1.88,5.51,3.86-2.7.35-5.37.83-2.81-2.16-5.61-4.21Q242.57,405.91,245.31,405.74Zm6.41,4.51q2.78,2,5.57,4.12c-1.79.34-3.57.73-5.34,1.16l-2.25-1.81c-1.14-.91-2.29-1.78-3.43-2.67C248.07,410.75,249.89,410.47,251.71,410.25Zm6.44,4.78c.68.52,1.37,1,2.05,1.56q1.8,1.4,3.6,2.83c-1.68.42-3.36.86-5,1.37l-.33.11q-2.85-2.39-5.72-4.73Q255.42,415.54,258.15,415Zm10.21,11.24c.92-.31,1.85-.59,2.78-.87q2.93,2.43,5.83,4.89-2.58,1-5.13,2.1-3-2.6-6-5.21C266.67,426.87,267.51,426.56,268.36,426.28Zm9.41,4.69q3.77,3.19,7.48,6.37c22.78,19.47,46.34,39.6,74.9,49.43a122.35,122.35,0,0,0,24.71,5.71c-.82.12-1.64.23-2.47.34a122.41,122.41,0,0,1-30.06-6.12c-29.75-10.11-54.11-31.33-77.67-51.85l-2-1.78C274.32,432.32,276,431.61,277.77,431Zm107.94,61.63h.08c.82.1,1.64.19,2.46.27l-2,.19q-1.34-.06-2.69-.15C384.25,492.79,385,492.7,385.71,492.59Zm1.53-.25,2.55-.44q1.39.21,2.79.4l-.7.11-1.7.21Q388.71,492.5,387.24,492.34Zm4.68.33,1.66-.26,2.35.27-1.87.18c-.85,0-1.69-.08-2.54-.14Zm7.61-.11,1.94-.27,2.22.26-1.78.17Zm9.85-.38,2.06.25-.93.1-.66.05-2.26-.15Zm6.29.15,1.7-.24,1.88.25-1.54.14Zm3.65-.54,2.15-.37,2.37.4-2,.25Zm6,.26,1.79.25-1.35.11-1.94-.15Zm3.91.51.55.06h-.08l-.76,0Zm2.71-.32,1.51-.2,1.6.24-1.36.11Zm5.42.35.26,0-.41,0Zm2.88-.32,1.44-.2,1.52.25-1.27.1Zm5.45.4.13,0h-.13Zm2.93-.32.65-.07.66-.09,1.43.25-1.17.07Zm27,1-1.45-.21,1.08-.1,1.27.28Zm-4.27-.66-2.05-.37,1.89-.27,2,.49Zm-4.09-.77c-.82-.17-1.64-.33-2.46-.52l2.45-.42c.8.23,1.59.44,2.39.65C468.85,491.76,468.06,491.85,467.27,491.94Zm-3.95-.87c-.94-.22-1.88-.44-2.82-.68.92-.19,1.85-.38,2.77-.59.9.28,1.8.55,2.69.81C465.09,490.77,464.2,490.93,463.32,491.07Zm-4-1c-1-.26-1.94-.52-2.91-.8,1-.24,2-.5,3-.76,1,.33,1.92.64,2.88.95C461.26,489.68,460.29,489.88,459.31,490.07ZM455.4,489c-1-.3-2-.61-3.05-.93,1.05-.29,2.11-.59,3.16-.9,1,.37,2,.72,3,1.06Q456.94,488.61,455.4,489Zm-3.86-1.19q-1.57-.51-3.13-1.05c1.09-.34,2.18-.69,3.26-1.05q1.55.61,3.1,1.19C453.7,487.19,452.62,487.49,451.53,487.78Zm-3.83-1.29c-1.06-.38-2.13-.77-3.19-1.17,1.13-.39,2.25-.78,3.37-1.18q1.57.66,3.15,1.3Q449.37,486,447.71,486.49Zm-7.51-2.87-.47-.19c-.94-.39-1.88-.79-2.82-1.2,1.17-.47,2.34-.95,3.51-1.44q1.62.77,3.26,1.51Q441.94,483,440.2,483.62Zm-3.69-1.56q-1.67-.73-3.32-1.51,1.77-.76,3.54-1.55,1.65.82,3.32,1.61Q438.28,481.35,436.51,482.05Zm-3.65-1.66q-1.68-.79-3.34-1.61,1.77-.81,3.54-1.65,1.67.86,3.35,1.7Q434.64,479.63,432.86,480.39Zm-3.61-1.74C416,472.08,403.31,464,391,456.1c-7.5-4.81-15.25-9.78-23-14.32a280.93,280.93,0,0,0-27.32-14.12l2.32.52a270.63,270.63,0,0,1,35.34,16.88c7.64,4.3,15.29,9,22.68,13.51,10.31,6.31,20.87,12.77,31.8,18.44Q431,477.84,429.25,478.65Zm-92.51-52.71-.84-.35,1.17.41Zm-6.29-1-2.83-1.28,2.81.61,2.74,1.08C332.26,425.19,331.36,425.05,330.45,424.93Zm-9.92-3.46-2.54-.36-2.52-1.16,2.71.59Zm2.76.31,1.59.43-1-.19Zm-7.66-1q-1.8-.21-3.58-.36-1.77-.9-3.54-1.77,1.87.29,3.76.64Q314,420.05,315.64,420.81ZM306,417.47,302.9,416q1.46.3,2.93.63l3.05,1.23Q307.44,417.66,306,417.47Zm-2.21-.28q-1.94-.23-3.86-.4-2-1-3.94-2,2,.3,4,.67C301.24,416,302.51,416.59,303.79,417.18Zm-10.16-3.54-2.95-1.39q1.74.36,3.5.77l2.66,1.09Q295.22,413.86,293.62,413.65Zm-2-.25c-1.33-.16-2.64-.29-4-.4q-1.92-1-3.84-2c1.38.22,2.77.45,4.17.71Q289.83,412.54,291.64,413.39Zm-10-3.47q-1.7-.83-3.4-1.62c1.19.25,2.38.5,3.58.78q1.62.66,3.26,1.36Q283.33,410.16,281.62,409.92Zm-1.89-.25c-1.41-.17-2.81-.32-4.2-.45q-2.09-1.11-4.18-2.17c1.44.22,2.88.47,4.33.74C277,408.4,278.38,409,279.73,409.67ZM269.28,406q-1.82-.9-3.63-1.74c1.26.26,2.53.54,3.8.84q1.73.71,3.46,1.46C271.69,406.37,270.49,406.19,269.28,406Zm-1.74-.23q-2.19-.28-4.35-.47-2.18-1.17-4.35-2.28c1.49.23,3,.48,4.49.77Q265.42,404.77,267.54,405.79Zm-10.62-3.73c-1.28-.64-2.57-1.26-3.85-1.87q2,.42,4,.9c1.23.51,2.45,1,3.68,1.57Q258.84,402.33,256.92,402.06Zm-1.61-.22q-2.27-.29-4.52-.5-2.25-1.23-4.5-2.4c1.55.25,3.1.51,4.66.81C252.4,400.43,253.85,401.13,255.3,401.85Zm-10.77-3.79q-2-1-4.09-2,2.11.45,4.24,1,2,.83,3.94,1.71Q246.57,398.35,244.54,398.05Zm-1.5-.22c-1.57-.21-3.13-.38-4.68-.54q-2.34-1.3-4.68-2.53c1.6.26,3.2.54,4.81.86Q240.76,396.7,243,397.84Zm-5.78-.64c-1.69-.15-3.37-.26-5-.34q-2.55-1.53-5.1-3,2.58.29,5.19.68Q234.78,395.83,237.26,397.19Zm-11.46-4.06c-1.61-.9-3.21-1.79-4.82-2.64,1.65.27,3.31.57,5,.91q2.35,1.12,4.71,2.31Q228.23,393.38,225.8,393.13Zm-1-.1q-2.61-.24-5.19-.38-2.62-1.59-5.23-3.1,2.66.31,5.34.73Q222.27,391.62,224.81,393Zm-11.62-4.17q-2.51-1.43-5-2.78,2.57.44,5.15,1,2.43,1.18,4.87,2.43Q215.67,389.13,213.18,388.87Zm-4.24.17c1.52.11,3,.26,4.57.43q2.68,1.53,5.35,3.15l-.45,0c-1.64-.07-3.28-.09-4.93-.09q-2.75-1.8-5.49-3.52Zm9.44,4.15,1.56.09q2.74,1.67,5.48,3.44c-1.82,0-3.65.06-5.47.16q-2.79-1.94-5.58-3.79Q216.39,393.11,218.39,393.19Zm8,4.16q2.77,1.81,5.54,3.71-2.75.18-5.48.49-2.83-2.08-5.65-4.07C222.69,397.39,224.55,397.35,226.42,397.35Zm6.45,4.32q2.8,1.94,5.6,4c-1.83.23-3.65.51-5.47.83q-2.85-2.22-5.71-4.33C229.15,401.95,231,401.78,232.87,401.67Zm6.44,4.6q2.83,2.07,5.66,4.24c-1.61.3-3.21.62-4.8,1l-.66.16-.58-.48q-2.58-2.1-5.16-4.11C235.61,406.76,237.46,406.49,239.31,406.27Zm1,6c1.8-.42,3.62-.77,5.44-1.09,1.23.95,2.45,1.89,3.68,2.86l2,1.64c-.68.17-1.36.32-2,.5q-1.71.46-3.42,1-2.9-2.46-5.82-4.85Zm9.34,4.68c.86-.23,1.74-.43,2.61-.64q2.89,2.34,5.76,4.75-2.69.83-5.34,1.81-2.95-2.57-5.92-5.1C247.75,417.45,248.71,417.18,249.68,416.92Zm9.13,4.75q2.95,2.48,5.87,5c-1.75.66-3.48,1.38-5.21,2.13q-3-2.66-6-5.31C255.21,422.82,257,422.21,258.81,421.66Zm6.64,5.65q3,2.62,6,5.23-2.55,1.13-5.06,2.41l-2.68-2.38-3.54-3.14C261.94,428.68,263.69,428,265.45,427.31Zm6.81,5.9,2.17,1.89c23.59,20.55,48,41.79,77.79,51.92a122.73,122.73,0,0,0,28.34,6c-.7.08-1.4.16-2.11.22A123,123,0,0,1,344.39,487c-29.6-9.93-53.9-30.72-77.23-51.39C268.85,434.75,270.55,434,272.26,433.22Zm72,54.07A123.22,123.22,0,0,0,376,493.42l-1.65.11a123.73,123.73,0,0,1-37.92-6.25c-28.48-9.44-52.1-28.81-74.55-48.83,1.64-.94,3.3-1.84,5-2.69C290.25,456.47,314.6,477.32,344.29,487.28Zm35.85,6,1.62-.17,1.8.13-1.27.08Zm8.12-.17,1.32-.16,1.59.13-1.1.06Zm8.08-.17,1.12-.12,1.31.11L398,493Zm8.12-.13.85-.11,1.18.1-.66,0Zm16.29-.19.52-.06.74.08h-.27Zm59.16.54-1-.18-1.06-.23,1.95-.24,1.93.54Zm-4.12-.86-2.4-.57c.8-.13,1.6-.27,2.4-.41l2.35.72Zm-4-1c-.88-.22-1.76-.47-2.64-.71.93-.18,1.86-.36,2.78-.56l2.57.85C473.56,491.07,472.66,491.21,471.75,491.35Zm-3.92-1.06c-1-.28-1.95-.57-2.92-.87,1-.24,2-.47,3-.73,1,.34,1.9.68,2.85,1C469.78,489.9,468.81,490.1,467.83,490.29Zm-4-1.19c-1-.31-2-.64-3-1,1.05-.29,2.1-.59,3.14-.89,1,.38,2,.76,3,1.12C465.94,488.62,464.89,488.86,463.84,489.1ZM460,487.83c-1-.35-2.07-.72-3.11-1.1,1.1-.34,2.2-.68,3.29-1,1,.42,2,.83,3.06,1.23C462.12,487.24,461,487.54,460,487.83Zm-3.86-1.36c-1.06-.39-2.11-.79-3.17-1.2,1.13-.38,2.25-.78,3.37-1.18,1.05.46,2.11.9,3.16,1.34C458.34,485.78,457.22,486.13,456.1,486.47Zm-7.59-3-.84-.34-2.45-1.07q1.75-.7,3.49-1.42c1.1.52,2.2,1,3.3,1.53Q450.27,482.84,448.52,483.48Zm-3.75-1.61q-1.67-.74-3.32-1.52,1.76-.75,3.51-1.53,1.66.82,3.33,1.62Q446.53,481.16,444.77,481.87Zm-3.7-1.7q-1.68-.79-3.36-1.62,1.76-.8,3.5-1.62c1.12.58,2.25,1.15,3.38,1.71Q442.84,479.42,441.07,480.17Zm-3.67-1.77q-1.7-.84-3.39-1.71l3.47-1.69c1.14.6,2.29,1.19,3.43,1.78Zm-3.65-1.84c-11.1-5.72-21.83-12.29-32.31-18.7-7.4-4.53-15.06-9.22-22.71-13.52a282.64,282.64,0,0,0-29.62-14.59l.94.25a275.48,275.48,0,0,1,39,17.66c7.55,4.08,15.14,8.49,22.47,12.75,8.39,4.88,17,9.84,25.7,14.46ZM313,418.6l-1-.19-1.46-.63.71.19Zm-12-3.77-1.34-.24-1.12-.48,1.82.49Zm-11.35-3.55-2-.39-1.93-.84,2.23.59Zm-12-3.82-2.27-.44-2.18-1,2.38.64Zm-12.09-3.89-2.55-.5L260.55,402l2.7.73Zm-12-3.89q-1.43-.3-2.86-.58l-2.89-1.3q1.51.4,3,.83Zm-12.31-4.08q-1.54-.33-3.08-.63-1.55-.72-3.1-1.41,1.66.44,3.34.93Zm-5-1q-2.14-.39-4.27-.7-2.12-1.09-4.24-2.12,2.22.48,4.46,1C233.56,393.39,234.91,394,236.27,394.61Zm-10.6-3.83q-1.71-.81-3.41-1.57c1.22.33,2.44.68,3.66,1q1.57.61,3.14,1.25Q227.36,391.12,225.66,390.78Zm-1.75-.34q-2.26-.42-4.52-.77c-1.47-.77-2.95-1.53-4.42-2.25q2.34.51,4.69,1.1C221.08,389.15,222.49,389.79,223.91,390.44Zm-10.92-4c-1.22-.59-2.44-1.17-3.65-1.73q2,.55,4,1.16c1.15.45,2.3.91,3.45,1.39Q214.88,386.86,213,386.47Zm-1.56-.31q-2.33-.45-4.66-.82-2.35-1.24-4.69-2.41c1.6.36,3.2.74,4.8,1.16Q209.15,385.09,211.43,386.16Zm-11.06-4.09c-1.35-.66-2.7-1.29-4.06-1.92q2.05.58,4.11,1.21c1.31.52,2.62,1,3.93,1.6C203,382.65,201.7,382.35,200.37,382.07Zm-1.45-.3q-2.45-.5-4.89-.9-2.44-1.31-4.87-2.56,2.56.59,5.12,1.28C195.82,380.29,197.37,381,198.92,381.77Zm-11.39-4.27c-1.4-.7-2.8-1.38-4.2-2,1.45.42,2.9.84,4.35,1.3s2.71,1.13,4.06,1.73C190.33,378.13,188.92,377.81,187.52,377.5Zm.35.52q2.59,1.3,5.17,2.68-1.46-.23-2.91-.44c-.8-.11-1.6-.2-2.41-.3q-2.68-1.58-5.36-3.06Q185.11,377.4,187.87,378Zm2.2,2.71c1.43.2,2.87.43,4.31.68q2.67,1.45,5.35,3l-.17,0c-1.76-.19-3.53-.32-5.29-.44q-2.76-1.73-5.51-3.36Zm9.44,4.15,1.38.16q2.74,1.59,5.49,3.28c-1.85-.1-3.71-.16-5.56-.18q-2.81-1.87-5.62-3.65C196.63,384.61,198.07,384.73,199.51,384.88Zm7.84,4.06q2.79,1.73,5.58,3.56c-1.86,0-3.72,0-5.57.13q-2.84-2-5.69-3.92C203.56,388.74,205.46,388.83,207.35,388.94Zm6.47,4.15q2.82,1.86,5.64,3.83c-1.86.11-3.72.27-5.57.47q-2.87-2.14-5.75-4.19Q211,393.08,213.82,393.09Zm6.49,4.41q2.85,2,5.71,4.09c-1.49.18-3,.37-4.45.61l-1.12.19q-2.9-2.27-5.8-4.45C216.52,397.76,218.41,397.61,220.3,397.51Zm1.36,5.37c1.71-.27,3.43-.49,5.16-.68q2.88,2.13,5.75,4.35c-.57.1-1.15.19-1.71.3-1.29.25-2.58.53-3.86.83q-2.92-2.41-5.85-4.71Zm9.34,4.68c.78-.15,1.57-.28,2.35-.41q2.69,2.1,5.37,4.28l.4.33c-1.85.45-3.69.93-5.53,1.48-1.81-1.55-3.62-3.1-5.44-4.61l-.46-.38Q229.35,407.88,231,407.56Zm8.85,4.8q2.93,2.4,5.85,4.87-2.72.84-5.42,1.83-3-2.63-6-5.23Q237.07,413,239.86,412.36Zm6.56,5.49q3,2.54,5.94,5.12c-1.77.66-3.53,1.39-5.29,2.15q-3-2.73-6.1-5.45C242.78,419,244.6,418.4,246.42,417.84Zm6.67,5.75q3.05,2.67,6.07,5.33-2.59,1.15-5.14,2.44l-1.27-1.15-5-4.49C249.53,425,251.31,424.26,253.09,423.6Zm6.8,6,3.65,3.23,2.59,2.3q-2.5,1.28-5,2.7-3.24-2.9-6.46-5.8Q257.28,430.71,259.89,429.57Zm68.62,58c-27.28-8.95-50.15-26.86-71.71-46.05,1.6-1,3.22-2,4.85-2.94,22.49,20.07,46.15,39.48,74.71,49a123.89,123.89,0,0,0,33.87,6.15A124.64,124.64,0,0,1,328.51,487.58Zm165.18,7.12h-1l-1.25-.25,1.11-.08Zm-3.34-1-1.82.09-2-.46,2-.22Zm-3.54-1.13-2.42.24-2.4-.63,2.47-.38Zm-3.67-1.23c-.92.14-1.85.27-2.78.39-.88-.25-1.77-.5-2.66-.76.93-.17,1.86-.37,2.79-.56ZM479.35,490l-3,.56-2.81-.89c1-.23,2-.46,3.06-.71Zm-3.72-1.41c-1.06.25-2.11.49-3.17.72q-1.51-.51-3-1c1.08-.28,2.15-.57,3.23-.87C473.64,487.82,474.63,488.22,475.63,488.61Zm-3.81-1.53c-1.11.31-2.21.6-3.32.88l-3.07-1.13c1.11-.33,2.22-.68,3.33-1Zm-3.8-1.59c-1.13.35-2.26.7-3.4,1q-1.59-.61-3.18-1.25,1.71-.57,3.41-1.16C465.9,484.58,467,485,468,485.49Zm-3.79-1.66q-1.73.6-3.47,1.17-1.61-.65-3.22-1.34c1.16-.42,2.31-.85,3.46-1.29Zm-3.79-1.72c-1.16.44-2.32.87-3.49,1.29l-1.32-.56c-.66-.29-1.31-.6-2-.89q1.74-.68,3.48-1.39C458.24,481.07,459.33,481.6,460.43,482.11Zm-3.78-1.79q-1.75.71-3.5,1.4c-1.12-.51-2.24-1-3.35-1.53q1.75-.74,3.48-1.5Zm-3.78-1.84q-1.74.76-3.49,1.5c-1.13-.53-2.25-1.09-3.38-1.64l3.44-1.57Zm-3.78-1.88-3.45,1.57q-1.71-.84-3.41-1.71l3.37-1.63Zm-3.79-1.93-3.38,1.63c-1.16-.59-2.32-1.18-3.47-1.79l3.32-1.68Zm-45.5-24.43c7.55,3.91,15.17,8.08,22.54,12.11,6.33,3.47,12.72,7,19.18,10.35l-3.32,1.67c-8.92-4.7-17.66-9.77-26.23-14.74-7.34-4.26-14.93-8.67-22.49-12.76q-13.65-7.38-26.21-12.7A290.87,290.87,0,0,1,399.8,450.24Zm-167.72-58-.22-.05-.22-.09Zm-12-4.1-.79-.2-.83-.35ZM208,383.9l-1.44-.38-1.35-.6Zm-12.45-4.41-1.64-.45L192,378.2C193.16,378.61,194.36,379,195.56,379.49Zm-12-4.37-2.52-.71-2.38-1.09C180.33,373.9,182,374.49,183.6,375.12ZM171,370.43c-.95-.29-1.89-.57-2.84-.84l-2.85-1.31Q168.13,369.3,171,370.43Zm-19.08-7.37c2.22.82,4.44,1.68,6.67,2.59-1.09-.35-2.19-.67-3.28-1Q153.59,363.85,151.9,363.06Zm5.08,2.42q2.47.76,5,1.61,2.28,1,4.57,2c-1.56-.43-3.11-.84-4.66-1.21h-.06Q159.38,366.66,157,365.49Zm6.15,3.14q2.71.68,5.43,1.46,2.54,1.2,5.08,2.48c-.79-.18-1.58-.37-2.37-.54-1-.2-1.93-.38-2.89-.56Q165.76,370,163.13,368.62Zm8,4.44-1.72-1,1.74.34c1.3.27,2.6.58,3.91.88q2.64,1.35,5.28,2.79c-1.8-.31-3.62-.57-5.43-.81C173.69,374.53,172.43,373.78,171.17,373.06Zm4.71,2.79c1.59.22,3.17.46,4.75.73l.91.17q2.76,1.52,5.51,3.13-2.77-.32-5.55-.53Q178.69,377.54,175.88,375.84Zm6.46,4c1.92.16,3.83.37,5.74.6q2.81,1.66,5.62,3.41c-1.88-.12-3.76-.2-5.64-.24Q185.19,381.71,182.34,379.88Zm6.51,4.32q2.88.07,5.77.27,2.85,1.79,5.69,3.68-2.84,0-5.67.09Q191.74,386.17,188.85,384.19Zm6.53,4.58c1.92-.06,3.85-.1,5.78-.07q2.87,1.92,5.75,3.95-2,.1-4,.27l-1.73.17Q198.3,390.88,195.38,388.78Zm6.54,4.84,1.08-.1c1.56-.13,3.13-.22,4.7-.29q2.9,2.05,5.8,4.21l-1.24.13c-1.48.18-3,.4-4.44.63Q204.87,395.86,201.92,393.62Zm6.57,5.11c1.28-.2,2.55-.38,3.84-.53.63-.08,1.27-.13,1.91-.2q2.92,2.18,5.83,4.47-2.83.48-5.64,1.11Q211.47,401.1,208.5,398.73Zm8.92,7.35-2.33-2c1.9-.42,3.8-.77,5.71-1.09q2.94,2.32,5.88,4.73c-1.88.44-3.76.92-5.63,1.46C219.84,408.17,218.63,407.11,217.41,406.08Zm4.29,3.71q2.82-.8,5.67-1.46l.62.51c1.77,1.47,3.54,3,5.3,4.5q-2.77.84-5.51,1.83Q224.76,412.45,221.7,409.79Zm6.74,6c1.84-.66,3.69-1.27,5.55-1.83q3,2.6,6,5.25c-1.8.67-3.6,1.4-5.38,2.17Q231.54,418.53,228.44,415.74Zm6.83,6.18q2.69-1.15,5.42-2.15,3.08,2.73,6.12,5.46-2.64,1.16-5.23,2.46Zm7,6.38q2.61-1.3,5.26-2.45l5.07,4.57,1.19,1.08c-1.7.86-3.39,1.76-5.06,2.72Z"/><g class="cls-5"><path class="cls-6" d="M819.78,87.08l-.16.08c-5.52-6.3-13.86-11-24.11-13.69A82,82,0,0,0,766.4,71.6c-10,1.15-19.65,3.7-28.95,6.17a234.92,234.92,0,0,1-24.72,5.61c-48,7.35-105.46-16.91-130.78-55.23-1.18-1.79-2.34-3.65-3.46-5.45-4.38-7.06-8.91-14.37-16.43-19.47-6.88-4.67-15.66-7-25.37-6.75a60,60,0,0,0-25.08,6.31C503.78,6.76,497,12,490.4,17.1a158.58,158.58,0,0,1-17.72,12.43,97.21,97.21,0,0,1-35.54,11.55A120.42,120.42,0,0,1,397,39.43a126.62,126.62,0,0,1-38.06-14.94A110.68,110.68,0,0,1,329.23-.93l.16-.08A110.45,110.45,0,0,0,359,24.37a126.4,126.4,0,0,0,38,14.91,120.17,120.17,0,0,0,40.06,1.65,97,97,0,0,0,35.47-11.53A158.32,158.32,0,0,0,490.25,17c6.58-5.09,13.39-10.34,21.24-14.33a60.15,60.15,0,0,1,25.17-6.33c9.76-.25,18.59,2.1,25.51,6.8,7.56,5.12,12.1,12.45,16.49,19.53,1.12,1.8,2.27,3.66,3.45,5.45,25.28,38.25,82.63,62.47,130.55,55.13a234.58,234.58,0,0,0,24.7-5.61c9.31-2.47,18.94-5,29-6.18a82.22,82.22,0,0,1,29.2,1.88C805.84,76,814.22,80.75,819.78,87.08Z"/><path class="cls-7" d="M819.64,88.27l-.21.13c-5.45-5.48-13.8-9.67-24.14-12.13A99.76,99.76,0,0,0,766.14,74c-1.2.08-2.44.19-3.7.31a232.34,232.34,0,0,0-23.58,3.86,209.27,209.27,0,0,1-24.64,3.89c-12.9,1-26.89-.8-38.87-2.7-15.2-2.42-27.16-5.28-37.64-9-15.89-5.66-30.28-13.79-41.61-23.51a96.88,96.88,0,0,1-13-13.36c-2-2.55-3.9-5.24-5.88-8.1-1.79-2.58-3.64-5.25-5.6-7.77a49.45,49.45,0,0,0-9.2-9.37,42.33,42.33,0,0,0-23-8.25,55.72,55.72,0,0,0-24.26,3.79c-7.26,2.94-13.63,7-19.78,11a139,139,0,0,1-17.29,10c-9.61,4.4-21.2,7.09-33.52,7.78a130,130,0,0,1-40.42-4.33,148.42,148.42,0,0,1-38.25-16.49,135.43,135.43,0,0,1-31-25.71l.22-.12a135.11,135.11,0,0,0,31,25.65A148,148,0,0,0,404.17,28a129.62,129.62,0,0,0,40.31,4.32c12.28-.69,23.84-3.37,33.41-7.75a138.84,138.84,0,0,0,17.26-9.95c6.17-4,12.55-8.07,19.83-11A56,56,0,0,1,539.38-.2a43.28,43.28,0,0,1,23.21,8.33,49.74,49.74,0,0,1,9.25,9.42c2,2.53,3.81,5.2,5.61,7.78,2,2.85,3.85,5.55,5.87,8.09a96.57,96.57,0,0,0,13,13.32c11.29,9.69,25.64,17.8,41.5,23.44,10.46,3.72,22.4,6.58,37.58,9,12,1.9,25.92,3.71,38.79,2.7A208.86,208.86,0,0,0,738.76,78a233,233,0,0,1,23.61-3.86c1.26-.12,2.51-.22,3.71-.31A100.14,100.14,0,0,1,795.33,76C805.74,78.52,814.15,82.75,819.64,88.27Z"/><path class="cls-8" d="M819.49,89.45l-.25.19C807.3,79.27,783.85,76,765.88,76.49c-1.19,0-2.42.07-3.67.12-7.67.33-14.78,1.24-21.66,2.13-8.38,1.08-16.3,2.1-24.85,2.08-9.11,0-19.13-1.71-29.74-3.5-2.92-.49-5.94-1-9-1.48l-7.32-1.13c-10.86-1.66-21.11-3.23-30.6-5.76-15.57-4.15-29.84-10.58-41.29-18.61a85.5,85.5,0,0,1-13.57-11.44,122.44,122.44,0,0,1-9-11.15c-1.13-1.52-2.3-3.09-3.46-4.6a61.49,61.49,0,0,0-9-9.8A43.86,43.86,0,0,0,541.22,3.6a53,53,0,0,0-22.59,1.27C511.93,6.81,506,9.79,500.2,12.68a124.93,124.93,0,0,1-16.78,7.37c-9.3,3.08-20.53,4.51-32.46,4.13A145.51,145.51,0,0,1,411.23,17C384.82,8.47,359-7.58,340.42-27l.28-.17C359.24-7.8,385,8.21,411.33,16.76a145,145,0,0,0,39.6,7.12c11.88.38,23.06-1,32.32-4.11A124.71,124.71,0,0,0,500,12.42c5.78-2.89,11.75-5.89,18.49-7.84A53.46,53.46,0,0,1,541.24,3.3,44.31,44.31,0,0,1,563,13.14,61.81,61.81,0,0,1,572.1,23c1.17,1.52,2.33,3.09,3.46,4.61a122.19,122.19,0,0,0,8.94,11.12A85.05,85.05,0,0,0,598,50.11c11.4,8,25.62,14.41,41.14,18.55,9.47,2.52,19.71,4.09,30.55,5.75L677,75.54c3,.48,6.05,1,9,1.48,10.59,1.78,20.59,3.47,29.66,3.49,8.52,0,16.42-1,24.79-2.07,6.89-.89,14-1.8,21.7-2.13,1.25-.05,2.49-.09,3.68-.12C783.87,75.74,807.46,79,819.49,89.45Z"/><path class="cls-9" d="M819.34,90.62l-.28.27c-14.18-10.35-44.5-11.77-53.45-12L762,78.87c-6.9-.08-13.19.25-19.28.57-8.62.45-16.77.88-25.51.09a171.91,171.91,0,0,1-20.39-3.67c-5.81-1.28-11.83-2.6-18.14-3.58-6.79-1.06-13.28-1.75-19.56-2.41-6.56-.69-12.76-1.34-18.63-2.36-15.14-2.64-29.31-7.39-41-13.72a71.71,71.71,0,0,1-14.13-9.52c-4.45-3.93-8.58-9.35-12.58-14.59L572,28.61a82.11,82.11,0,0,0-8.9-10.23A46.86,46.86,0,0,0,543,7.16a51.84,51.84,0,0,0-20.91-1.25,97.43,97.43,0,0,0-17.29,4.77,117.52,117.52,0,0,1-16.06,4.65c-9,1.75-19.87,1.92-31.39.48a169.79,169.79,0,0,1-39-10A223.69,223.69,0,0,1,346-40l.33-.22A223.13,223.13,0,0,0,418.49,5.51a169.19,169.19,0,0,0,38.9,9.92c11.47,1.43,22.27,1.27,31.23-.47a117.21,117.21,0,0,0,16-4.64A97.79,97.79,0,0,1,522,5.54,52.41,52.41,0,0,1,543.12,6.8a47.41,47.41,0,0,1,20.28,11.35,82.46,82.46,0,0,1,9,10.29l.81,1.06c4,5.23,8.1,10.63,12.51,14.52a71.17,71.17,0,0,0,14,9.46c11.6,6.3,25.7,11,40.78,13.65,5.84,1,12,1.67,18.59,2.36,6.29.66,12.79,1.34,19.59,2.41,6.33,1,12.35,2.31,18.17,3.59a171.47,171.47,0,0,0,20.32,3.66c8.71.79,16.83.36,25.44-.09,6.1-.32,12.4-.65,19.31-.57l3.65.06C774.56,78.74,805,80.18,819.34,90.62Z"/><path class="cls-10" d="M819.18,91.79l-.28.35c-9.12-5.37-27.14-9-53.56-10.78l-3.63-.24c-5.75-.38-11-.53-16-.67-9.2-.26-17.88-.5-27.07-2.22-4.63-.87-9.67-2.33-15-3.88a185.74,185.74,0,0,0-23.34-5.65,212,212,0,0,0-26-2c-4.37-.15-8.5-.3-12.46-.61a147.17,147.17,0,0,1-40.63-8.81,57.53,57.53,0,0,1-14.69-7.61c-5.15-3.81-9.94-9.73-14.35-15.56a117.94,117.94,0,0,0-8.75-10.67,52.63,52.63,0,0,0-18.58-12.71,53.57,53.57,0,0,0-19.25-3.76,95.15,95.15,0,0,0-16.35,1.77,122.38,122.38,0,0,1-15.13,1.87c-8.72.4-19.21-.7-30.32-3.18A209.18,209.18,0,0,1,425.45-5.35C400-16.57,373.09-34,351.61-53l.38-.28c21.43,19,48.28,36.37,73.67,47.57A208.55,208.55,0,0,0,463.86,7c11.06,2.46,21.48,3.56,30.14,3.16a121.84,121.84,0,0,0,15.06-1.86A95.63,95.63,0,0,1,525.51,6.5,54.29,54.29,0,0,1,545,10.31a53.26,53.26,0,0,1,18.81,12.86,118.61,118.61,0,0,1,8.79,10.72c4.39,5.8,9.15,11.68,14.24,15.44a56.93,56.93,0,0,0,14.53,7.52,146.43,146.43,0,0,0,40.43,8.77c3.95.31,8.07.46,12.43.61a212.5,212.5,0,0,1,26.06,2,186.35,186.35,0,0,1,23.43,5.67c5.31,1.54,10.33,3,14.93,3.86,9.13,1.71,17.79,2,27,2.21,5.06.14,10.28.29,16,.67l3.63.24C791.83,82.71,810,86.36,819.18,91.79Z"/><path class="cls-11" d="M819,93l-.24.45c-10.66-4.76-32.17-7.18-49.46-9.12l-4.24-.48-3.6-.43c-3.83-.47-7.37-.86-10.81-1.23-11-1.2-20.45-2.23-30.58-5.21-3.5-1-7.26-2.44-11.25-3.93-7.91-3-16.88-6.32-26.88-7.86-11-1.7-21.17-1.24-30.13-.84-3,.14-5.81.26-8.56.31A170.3,170.3,0,0,1,603,60.72l-.29-.07c-4.61-1.06-9.38-2.16-15-5.62C583,52.15,578,47.09,572.35,39.57l-1.72-2.3c-2.32-3.11-4.5-6-6.89-8.81a62.79,62.79,0,0,0-17.12-14.21A58.66,58.66,0,0,0,529,8a102.49,102.49,0,0,0-15.92-1.3c-4.25-.12-8.64-.24-13.7-.82A155.39,155.39,0,0,1,470.18-1a278,278,0,0,1-37.62-15.57C407.81-28.94,380.35-47,357.21-66l.42-.34c23.09,19,50.5,37,75.19,49.4A277.16,277.16,0,0,0,470.34-1.46a154.58,154.58,0,0,0,29.08,6.8c5,.58,9.4.7,13.63.82a103.07,103.07,0,0,1,16,1.31,59.47,59.47,0,0,1,17.85,6.36A63.51,63.51,0,0,1,564.24,28.2c2.4,2.78,4.6,5.73,6.92,8.85l1.71,2.3c5.6,7.46,10.55,12.46,15.14,15.29,5.48,3.39,10.19,4.47,14.74,5.52l.29.07a169.55,169.55,0,0,0,40.1,3.89c2.74,0,5.56-.18,8.54-.31,9-.41,19.18-.87,30.28.85,10.09,1.56,19.1,4.93,27,7.91,4,1.49,7.72,2.89,11.19,3.91,10.06,3,19.51,4,30.44,5.18,3.44.37,7,.76,10.82,1.23l3.6.43,4.24.48C786.64,85.72,808.22,88.14,819,93Z"/><path class="cls-12" d="M818.62,94.67c-7.45-2.25-20-3.87-33.35-5.58-7-.89-14.16-1.82-20.5-2.84q-1.83-.29-3.59-.61l-.1,0c-16.43-3-27.29-4.92-39.59-10-2.61-1.07-5.38-2.37-8.31-3.75-8.52-4-18.18-8.54-29.61-10.3-12.43-1.91-23.44-.44-33.15.85-2,.27-3.91.52-5.78.74a215.06,215.06,0,0,1-39.93,1l-.6,0c-4.6-.34-9.36-.68-15.26-3.71-6.5-3.33-12.46-10.2-16.31-15.37-1.23-1.65-2.42-3.31-3.57-4.91-1.67-2.32-3.24-4.52-4.9-6.65a80.29,80.29,0,0,0-15.67-15.71,70.76,70.76,0,0,0-16-8.79,126.36,126.36,0,0,0-16.65-5c-3.46-.86-7-1.74-11.09-2.93A246.9,246.9,0,0,1,476.56-9.38a411.52,411.52,0,0,1-36.91-18.37c-23.94-13.43-51.23-31.65-76.83-51.31l.45-.41C388.84-59.84,416.09-41.64,440-28.23A410.76,410.76,0,0,0,476.83-9.9a246,246,0,0,0,28,10.45c4,1.18,7.6,2.06,11.05,2.92a127.1,127.1,0,0,1,16.76,5,71.66,71.66,0,0,1,16.18,8.9,81,81,0,0,1,15.82,15.86c1.67,2.14,3.24,4.34,4.92,6.67,1.15,1.6,2.33,3.25,3.56,4.9,3.81,5.11,9.68,11.88,16,15.14,5.74,2.94,10.4,3.29,14.91,3.62l.6,0a214.22,214.22,0,0,0,39.77-1c1.86-.22,3.76-.47,5.76-.74,9.77-1.3,20.83-2.78,33.39-.85,11.56,1.78,21.28,6.34,29.86,10.37,2.92,1.37,5.68,2.67,8.27,3.73,12.21,5,23,7,39.4,9.93l.1,0q1.75.32,3.57.61c6.33,1,13.52,1.94,20.47,2.84,13.36,1.72,26,3.34,33.5,5.61Z"/><path class="cls-13" d="M818.52,95.92c-4-.63-9.66-1.24-16.18-2-11.67-1.27-26.2-2.86-37.86-5.29-1.23-.26-2.43-.52-3.57-.8-16.89-4-27.19-7.71-38-13.56-1.84-1-3.76-2.11-5.79-3.28C708.62,66.11,698,60,685.22,58c-13.65-2.09-25.27.55-35.52,2.88l-3.64.82a301.4,301.4,0,0,1-39.57,5.9l-.66.05c-4.67.39-9.49.79-15.81-1.88-7.59-3.2-14.1-10.95-17.31-15.28-1.91-2.58-3.66-5.16-5.35-7.66-1-1.47-2-2.92-3-4.34A118.34,118.34,0,0,0,550.18,21.3,94.51,94.51,0,0,0,535.82,10c-7-4.55-13.17-7.53-21-11.29L510-3.67c-8.69-4.26-17.78-9-27-14.12C470.87-24.43,458.69-31.55,446.75-39,425.11-52.43,399.5-69.8,368.43-92.08l.48-.47C400-70.29,425.56-52.93,447.18-39.48c11.93,7.4,24.09,14.52,36.15,21.15,9.23,5.11,18.3,9.85,27,14.1l4.87,2.36c7.84,3.78,14,6.77,21.09,11.35a95.48,95.48,0,0,1,14.5,11.43,119.09,119.09,0,0,1,14.32,17.35c1,1.42,2,2.87,3,4.35,1.69,2.49,3.43,5.07,5.34,7.64,3.15,4.26,9.55,11.88,16.92,15,6.08,2.57,10.78,2.18,15.33,1.8l.66-.05a300.67,300.67,0,0,0,39.45-5.88l3.63-.82c10.33-2.35,22-5,35.87-2.89,13,2,23.68,8.17,32.27,13.14,2,1.17,3.94,2.28,5.76,3.27,10.72,5.8,21,9.45,37.75,13.47,1.12.27,2.31.54,3.54.79,11.61,2.42,26.11,4,37.76,5.27,6.53.71,12.16,1.33,16.22,2Z"/><path class="cls-14" d="M818.43,97.18c-11.7-.09-36.3-1.47-54.24-6.06-1.23-.31-2.42-.65-3.55-1-16.75-5-26.31-10.27-36.3-17.14-1.12-.77-2.27-1.58-3.47-2.42-8.82-6.22-19.8-14-34-16.11-14.75-2.24-27.35,1.88-37.46,5.18l-1.92.63c-12,3.87-24.46,7.3-39.21,10.8l-.57.14c-4.55,1.08-9.7,2.31-16.49,0-6.06-2.07-12.73-7.6-18.31-15.19-2.63-3.58-4.87-7.16-7-10.62l-1.15-1.83A219.58,219.58,0,0,0,552,24.81a138,138,0,0,0-12.74-13.86,184.9,184.9,0,0,0-24-19.41c-6.94-4.9-15.4-10.63-25.19-17.27l-7.76-5.22c-8.6-5.78-18.34-12.34-28.44-19.23-9.71-6.65-19.65-13.54-30.17-20.85C407.25-82.42,390.27-94.2,374-105.09l.51-.54c16.23,10.9,33.22,22.69,49.64,34.08,10.52,7.3,20.46,14.2,30.17,20.84,10.09,6.89,19.83,13.45,28.43,19.23l7.76,5.23c9.8,6.64,18.26,12.37,25.21,17.28a185.79,185.79,0,0,1,24.12,19.5,138.88,138.88,0,0,1,12.82,14,220.21,220.21,0,0,1,12.82,18.82l1.15,1.83c2.16,3.45,4.39,7,7,10.57,5.46,7.43,11.95,12.83,17.8,14.83,6.49,2.22,11.27,1.08,15.9,0l.57-.14c14.73-3.49,27.16-6.91,39.14-10.78L649,59c10.22-3.34,22.93-7.49,37.93-5.22,14.46,2.2,25.56,10,34.48,16.3,1.19.84,2.34,1.65,3.46,2.42,9.91,6.81,19.38,12,36,17,1.11.33,2.29.66,3.5,1,17.84,4.57,42.32,5.94,54,6Z"/><path class="cls-15" d="M818.35,98.42c-11,1.57-36,.74-54.46-4.87-1.21-.37-2.4-.76-3.53-1.17-16.47-5.92-25.77-13.18-34.61-20.71l-1.23-1.05c-8.56-7.32-20.27-17.34-36-19.72s-28.74,3.21-39.14,7.71l-.47.2c-12.49,5.38-24.32,10-34.76,14.09l-4.51,1.76c-4.65,1.83-9.93,3.9-17.24,1.92-6.46-1.75-13.68-7.39-19.31-15.1a127.41,127.41,0,0,1-8-12.9c-1.8-3.18-3.42-6.15-5-9-2.22-4.06-4.31-7.9-6.33-11.26-3.82-6.34-7.76-11.85-11.1-16.4A172.43,172.43,0,0,0,520.5-13.25c-6.37-6-14.49-13-24.81-21.38-9.35-7.54-20.72-16.29-34.75-26.76-31.31-23.42-57.9-42-81.28-56.72l.53-.61C403.59-104,430.2-85.39,461.54-62c14,10.48,25.42,19.24,34.79,26.79,10.35,8.38,18.48,15.39,24.87,21.43a173.4,173.4,0,0,1,22.25,25.3c3.36,4.57,7.31,10.1,11.15,16.47,2,3.37,4.13,7.22,6.35,11.29,1.56,2.87,3.18,5.83,5,9a126.75,126.75,0,0,0,8,12.81c5.49,7.51,12.47,13,18.68,14.68,6.93,1.88,11.82,0,16.54-1.89l4.51-1.76c10.43-4.08,22.25-8.7,34.73-14.08l.47-.2c10.52-4.55,23.62-10.21,39.73-7.77s28,12.58,36.62,20l1.23,1.05c8.75,7.46,18,14.64,34.24,20.5,1.11.4,2.28.79,3.47,1.15,18.27,5.56,43.07,6.38,53.95,4.83Z"/><path class="cls-16" d="M818.28,99.65c-11.43,3.37-36.7,2.69-54.69-3.67-1.21-.43-2.39-.88-3.51-1.36C744,87.83,735.44,78.93,727.17,70.33c-7.32-7.62-19.57-20.37-37-23-16.76-2.52-30.09,4.72-39.83,10-6.69,3.62-13.15,7-19.39,10.35-6.75,3.58-13.13,7-19.1,10.22l-.21.12c-4.76,2.61-10.17,5.56-18,3.93-6.95-1.44-14.54-7-20.32-15a95.86,95.86,0,0,1-7.91-13.35C562.54,48,560.25,42.68,558.23,38c-.94-2.17-1.82-4.23-2.71-6.19-3.15-7-6.41-13.23-9.46-18.94C540.25,2,534.58-7.4,525.78-18.05a289.85,289.85,0,0,0-23.72-25c-9.54-9-21-19-34-29.55-19.61-15.93-49.88-39-82.76-58.52l.54-.69c32.94,19.54,63.27,42.67,82.91,58.62,13.07,10.59,24.54,20.56,34.11,29.61a291,291,0,0,1,23.81,25.1C535.49-7.76,541.19,1.7,547,12.61c3.06,5.72,6.33,12,9.49,19,.89,2,1.78,4,2.71,6.21,2,4.67,4.3,10,7.12,15.56a95,95,0,0,0,7.83,13.22c5.61,7.72,12.92,13.15,19.55,14.53,7.41,1.54,12.63-1.31,17.23-3.83l.22-.12c6-3.27,12.36-6.65,19.11-10.23,6.24-3.31,12.7-6.73,19.38-10.35,9.87-5.36,23.38-12.69,40.54-10.11C708.1,49.16,720.54,62.11,728,69.85c8.18,8.52,16.64,17.32,32.49,24,1.09.46,2.25.91,3.44,1.33,17.24,6.09,42.69,6.94,53.91,3.64Z"/><path class="cls-17" d="M818.2,100.87c-10.9,4.89-36.7,4.88-54.92-2.46-1.21-.49-2.38-1-3.5-1.55-14.81-7.19-22.21-16.52-30-26.41L728.59,69c-8.27-10.42-19.93-22.69-36.78-25.21-16.27-2.43-29.2,5-40,12.1l-4.49,2.94c-12,7.89-23.42,15.35-33.66,22.52-4.87,3.41-10.39,7.28-18.82,6C586.06,86,578,78.78,573.47,72.44a77.07,77.07,0,0,1-7.77-13.81,179.83,179.83,0,0,1-7.17-19.55c-.41-1.29-.82-2.55-1.22-3.78-2.67-8.14-5.45-15.42-7.82-21.47-4.4-11.24-9.68-23.47-18.43-36.69a240.88,240.88,0,0,0-22.63-28.63,417.42,417.42,0,0,0-33.32-32.34c-18.91-16.6-48.87-40.54-84.23-60.31l.56-.76c35.46,19.83,65.51,43.83,84.46,60.48A418.66,418.66,0,0,1,509.33-52a242,242,0,0,1,22.74,28.77c8.79,13.29,14.1,25.58,18.52,36.87,2.37,6.06,5.16,13.36,7.83,21.52.4,1.23.81,2.5,1.22,3.79a179.15,179.15,0,0,0,7.13,19.45A76.1,76.1,0,0,0,574.44,72c4.43,6.13,12.11,13.13,20.42,14.38,7.92,1.19,13.25-2.54,17.95-5.84C623,73.4,634.43,65.94,646.49,58L651,55.1c11-7.24,24.18-14.76,40.89-12.26,17.34,2.59,29.24,15.1,37.66,25.7L730.69,70c7.74,9.77,15,19,29.58,26,1.08.53,2.23,1,3.4,1.51,17.91,7.21,43.21,7.24,53.88,2.45Z"/><path class="cls-18" d="M818.12,102.08c-11.73,7.1-38,6.5-55.15-1.25-1.2-.54-2.37-1.13-3.48-1.74-14-7.69-20.5-17.69-27.41-28.28-.69-1.06-1.38-2.12-2.08-3.18-10.85-16.41-22.81-25.38-36.55-27.43-16.19-2.41-28.92,5.39-40.27,14.19-11.67,9-25.28,19.69-37.8,30.35-4.61,4-10.34,8.88-19.38,8-6.1-.6-15.17-4.81-22.35-14.81A65.28,65.28,0,0,1,566,63.65a141.3,141.3,0,0,1-6.36-22.35l-.56-2.5c-1.64-7.29-3.55-14.69-6.17-24-3.54-12.36-8.28-27.08-16.57-42.45a223.24,223.24,0,0,0-21.55-32.26A335.83,335.83,0,0,0,482.2-95c-26.48-25-56.11-46.48-85.7-62.1l.57-.84c29.71,15.69,59.45,37.24,86,62.33a337.25,337.25,0,0,1,32.74,35.26A224.43,224.43,0,0,1,537.49-28c8.34,15.46,13.1,30.24,16.65,42.65,2.63,9.33,4.54,16.74,6.18,24l.56,2.5a140.55,140.55,0,0,0,6.32,22.21,64.25,64.25,0,0,0,7.5,14c4.32,6,12.49,13.36,21.29,14.23,8.48.84,14-3.91,18.45-7.72C627,73.32,640.59,62.65,652.27,53.61s24.55-16.89,41.24-14.4c14.2,2.11,26.49,11.28,37.57,28l2.08,3.18c6.81,10.45,13.25,20.32,26.92,27.84,1.07.59,2.21,1.16,3.37,1.68,16.76,7.58,42.42,8.19,53.85,1.27Z"/><path class="cls-19" d="M818,103.29c-11.49,8.77-37.88,8.76-55.37,0-1.2-.6-2.36-1.25-3.46-1.93-13.4-8.26-19.43-19.52-25.27-30.42-.83-1.54-1.65-3.08-2.5-4.62-6.65-12.05-18.35-27-36.33-29.64-16.88-2.5-29.94,6.82-40.5,16.27-14.76,13.21-27,24.73-37.45,35.24-4.36,4.41-10.33,10.45-19.95,9.94-9.86-.52-18.75-8.25-23.36-14.71a57.67,57.67,0,0,1-7.49-14.73c-3-8.45-4.15-16.92-5.17-24.39l-.27-2c-1.18-8.48-2.66-17.16-4.52-26.53C552.51-3.45,548-18.32,541.67-32.46a220.09,220.09,0,0,0-20.47-35.89,291.2,291.2,0,0,0-31.9-37.91c-26-26.3-56.13-48.39-87.17-63.89l.57-.91c31.19,15.58,61.48,37.77,87.58,64.19a292.54,292.54,0,0,1,32,38.09A221.22,221.22,0,0,1,542.9-32.71c6.33,14.21,10.89,29.15,14.79,48.44,1.87,9.38,3.35,18.08,4.53,26.58l.27,2c1.07,7.79,2.17,15.84,5.13,24.2A56.57,56.57,0,0,0,575,82.94c4.42,6.19,12.87,13.59,22.15,14.08,9,.47,14.76-5.35,19-9.61,10.45-10.52,22.72-22.06,37.5-35.28C664.34,42.49,677.7,33,695.16,35.58c18.64,2.76,30.66,18,37.47,30.38.85,1.54,1.68,3.08,2.5,4.63,5.76,10.74,11.71,21.85,24.77,29.9,1.06.65,2.18,1.28,3.34,1.86,16.72,8.41,42.88,8.45,53.82.1Z"/><path class="cls-20" d="M817.94,104.49c-11.12,10.27-38.13,10.84-55.59,1.18-1.2-.66-2.36-1.38-3.44-2.12-13-8.86-18.27-21-23.42-32.71-.85-1.94-1.73-4-2.63-5.9C728,54.31,716.77,36,696.75,33.09c-17.49-2.58-30.4,7.83-40.72,18.36-14,14.29-26.16,27.42-37.11,40.13-4.11,4.78-10.32,12-20.51,11.91-6.5-.07-16.79-3.93-24.38-14.62a52.15,52.15,0,0,1-7.35-15.19c-2.76-8.94-3.32-17.74-3.86-26.25l-.11-1.64c-.62-9.61-1.59-19.39-2.87-29C557.06-3.94,553-21.1,547-37.26a225.24,225.24,0,0,0-19.4-39.53,264.61,264.61,0,0,0-31.2-40.7c-25.57-27.64-56.22-50.35-88.64-65.68l.57-1c32.61,15.42,63.43,38.26,89.14,66a266,266,0,0,1,31.36,40.91,226.46,226.46,0,0,1,19.5,39.74c6,16.23,10.13,33.46,12.92,54.22,1.29,9.68,2.25,19.48,2.88,29.12l.11,1.65c.54,8.46,1.1,17.2,3.82,26a51,51,0,0,0,7.18,14.85c7.24,10.19,16.92,13.87,23,13.94,8.8.09,14.24-5.39,19.49-11.5,11-12.73,23.12-25.87,37.16-40.18,4.41-4.5,10.41-10.17,17.7-14.12a37.72,37.72,0,0,1,24.23-4.58c20.82,3.07,32.34,21.81,37.36,32.71.9,2,1.79,4,2.64,5.92,5.07,11.56,10.31,23.51,22.91,32.12,1,.71,2.16,1.4,3.31,2,16.92,9.37,43.07,8.84,53.8-1.08Z"/><path class="cls-21" d="M817.84,105.7c-11,11.94-38.1,13.1-55.8,2.39a40.73,40.73,0,0,1-3.42-2.31c-12.6-9.48-17.24-22.5-21.73-35.09-.84-2.34-1.7-4.76-2.59-7.1-10.84-28.31-30.22-33.23-35.9-34.07C680.2,26.86,667,39,657.44,50c-13.22,15.17-25.59,30.32-36.77,45-5.21,6.86-11.13,13.59-21.06,13.87-10.25.29-20.14-7.08-25.4-14.51A48,48,0,0,1,567,78.7c-2.47-9.25-2.48-18.6-2.49-27.64V49.28c0-10.52-.41-21.15-1.22-31.57-1.74-22-5.34-41.51-11-59.76A236.13,236.13,0,0,0,534-85.22a248.29,248.29,0,0,0-30.49-43.49c-25.21-29-56.37-52.34-90.1-67.47l.58-1.06c34,15.24,65.34,38.72,90.71,67.91A249.68,249.68,0,0,1,535.31-85.6,237.35,237.35,0,0,1,553.73-42.2c5.69,18.33,9.31,38,11.05,60C565.6,28.25,566,38.9,566,49.45v1.77c0,9,0,18.26,2.45,27.37a46.75,46.75,0,0,0,7,15.25c5,7.06,14.31,14.06,23.88,13.79,9.28-.26,15-6.76,20-13.39,11.19-14.72,23.58-29.89,36.82-45.08,9.73-11.17,23.33-23.63,42.28-20.85,8.89,1.3,16.91,5.71,23.84,13.08a68.07,68.07,0,0,1,13.41,22c.9,2.35,1.77,4.78,2.6,7.12,4.42,12.4,9,25.23,21.22,34.43a39.17,39.17,0,0,0,3.27,2.21c17.07,10.33,43.21,9.23,53.78-2.26Z"/><path class="cls-22" d="M817.73,106.9c-5.6,7-15.68,11.16-27.66,11.38s-23.55-3.53-31.76-10.28C746,97.88,742,83.95,738.17,70.48c-.78-2.72-1.58-5.53-2.44-8.24-7.6-24-23.42-34.48-35.69-36.28-19-2.77-32.59,11.53-41.18,22.53-12.68,16.23-24.94,33-36.43,49.92a51.94,51.94,0,0,1-8.59,10.29,21.48,21.48,0,0,1-13,5.54c-10.76.69-21-6.74-26.41-14.41-9.93-14.11-9-30-8.17-45.44l.09-1.61c3.11-56.35-5.39-104.25-26-146.44C515.33-144.89,471.1-187,419-209.19l.57-1.14C472.07-188,516.63-145.57,541.8-94,562.49-51.62,571-3.53,567.9,53l-.09,1.61c-.85,15.2-1.74,30.93,7.93,44.67,5.1,7.25,14.73,14.29,24.74,13.65C610.26,112.32,616,105,621,97.66c11.51-16.91,23.78-33.72,36.48-50,18.37-23.52,33.12-24.39,42.62-23,19.56,2.86,32,21.19,37.15,37.39.86,2.72,1.67,5.54,2.45,8.27,3.8,13.27,7.74,27,19.65,36.8,7.85,6.46,19,10.05,30.47,9.84s21.18-4.18,26.54-10.89Z"/></g></g></g></svg>