<svg id="Layer_1" data-name="Layer 1" xmlns="http://www.w3.org/2000/svg" viewBox="0 0 420.57 501.38"><defs><style>.cls-1{fill:#f1f3f4;}.cls-2{opacity:0.1;}.cls-3,.cls-4,.cls-5,.cls-6,.cls-7,.cls-8,.cls-9{fill:none;stroke:#666;stroke-linecap:round;stroke-linejoin:round;}.cls-3{stroke-width:1.16px;}.cls-4{stroke-width:1.52px;}.cls-5{stroke-width:1.43px;}.cls-6{stroke-width:0.86px;}.cls-7{stroke-width:1.29px;}.cls-8{stroke-width:1.34px;}.cls-9{stroke-width:0.79px;}</style></defs><title>Artboard 17</title><rect class="cls-1" width="420.57" height="501.38"/><g class="cls-2"><line class="cls-3" x1="91.68" y1="446.06" x2="83.41" y2="454.87"/><line class="cls-3" x1="91.96" y1="454.6" x2="83.14" y2="446.33"/><line class="cls-4" x1="85.92" y1="55.96" x2="75.08" y2="67.52"/><line class="cls-4" x1="86.28" y1="67.16" x2="74.72" y2="56.32"/><line class="cls-5" x1="199.51" y1="232.29" x2="189.27" y2="243.21"/><line class="cls-5" x1="199.85" y1="242.87" x2="188.94" y2="232.63"/><line class="cls-4" x1="352.17" y1="93.35" x2="341.32" y2="104.91"/><line class="cls-4" x1="352.53" y1="104.56" x2="340.97" y2="93.71"/><polygon class="cls-6" points="243.83 148.15 235.09 145.81 237.44 154.54 239.78 163.28 246.18 156.88 252.57 150.48 243.83 148.15"/><polygon class="cls-7" points="367.31 246.6 354.27 243.12 357.77 256.14 361.27 269.17 370.8 259.63 380.34 250.08 367.31 246.6"/><polygon class="cls-6" points="96.39 125.02 88.23 121.1 88.92 130.12 89.61 139.14 97.08 134.03 104.54 128.93 96.39 125.02"/><path class="cls-4" d="M76.74,302.14A12,12,0,1,1,56,314.21"/><circle class="cls-8" cx="308.25" cy="445.65" r="10.65"/><circle class="cls-4" cx="376.23" cy="43.89" r="12.06"/><rect class="cls-9" x="188.47" y="351.44" width="12.57" height="12.57"/><rect class="cls-9" x="268.71" y="352.07" width="12.57" height="12.57"/><rect class="cls-6" x="31.64" y="167.71" width="13.65" height="13.65"/><path class="cls-6" d="M48,197.44c2.68-1.31,4.54,3.66,8,2"/><path class="cls-6" d="M36.77,203c2.68-1.31,4.54,3.66,8,2"/><path class="cls-6" d="M48,197.44c-2.68,1.31.11,5.83-3.3,7.5"/><path class="cls-6" d="M36.77,203c-2.68,1.31.11,5.83-3.3,7.5"/><line class="cls-8" x1="228.23" y1="467.04" x2="228.23" y2="443.04"/><line class="cls-4" x1="115.75" y1="254.62" x2="135.25" y2="235.67"/><line class="cls-4" x1="31.03" y1="63.6" x2="31.03" y2="36.41"/><line class="cls-3" x1="56.89" y1="443.42" x2="42.23" y2="428.76"/><line class="cls-4" x1="300.41" y1="50" x2="281.18" y2="30.78"/><circle class="cls-8" cx="270.98" cy="434.94" r="4.19" transform="translate(-190.01 211.13) rotate(-32.18)"/><circle class="cls-6" cx="150.98" cy="140.96" r="2.7" transform="translate(-51.88 102.07) rotate(-32.18)"/><circle class="cls-4" cx="337.61" cy="26.6" r="4.75" transform="translate(37.7 183.89) rotate(-32.18)"/></g></svg>